%TF.GenerationSoftware,KiCad,Pcbnew,(7.0.0)*%
%TF.CreationDate,2023-05-03T17:51:17-06:00*%
%TF.ProjectId,Phase_B_Proto,50686173-655f-4425-9f50-726f746f2e6b,rev?*%
%TF.SameCoordinates,Original*%
%TF.FileFunction,Copper,L1,Top*%
%TF.FilePolarity,Positive*%
%FSLAX46Y46*%
G04 Gerber Fmt 4.6, Leading zero omitted, Abs format (unit mm)*
G04 Created by KiCad (PCBNEW (7.0.0)) date 2023-05-03 17:51:17*
%MOMM*%
%LPD*%
G01*
G04 APERTURE LIST*
G04 Aperture macros list*
%AMRoundRect*
0 Rectangle with rounded corners*
0 $1 Rounding radius*
0 $2 $3 $4 $5 $6 $7 $8 $9 X,Y pos of 4 corners*
0 Add a 4 corners polygon primitive as box body*
4,1,4,$2,$3,$4,$5,$6,$7,$8,$9,$2,$3,0*
0 Add four circle primitives for the rounded corners*
1,1,$1+$1,$2,$3*
1,1,$1+$1,$4,$5*
1,1,$1+$1,$6,$7*
1,1,$1+$1,$8,$9*
0 Add four rect primitives between the rounded corners*
20,1,$1+$1,$2,$3,$4,$5,0*
20,1,$1+$1,$4,$5,$6,$7,0*
20,1,$1+$1,$6,$7,$8,$9,0*
20,1,$1+$1,$8,$9,$2,$3,0*%
G04 Aperture macros list end*
%TA.AperFunction,SMDPad,CuDef*%
%ADD10RoundRect,0.225000X0.225000X0.250000X-0.225000X0.250000X-0.225000X-0.250000X0.225000X-0.250000X0*%
%TD*%
%TA.AperFunction,SMDPad,CuDef*%
%ADD11RoundRect,0.250000X-0.262500X-0.450000X0.262500X-0.450000X0.262500X0.450000X-0.262500X0.450000X0*%
%TD*%
%TA.AperFunction,SMDPad,CuDef*%
%ADD12RoundRect,0.250000X0.262500X0.450000X-0.262500X0.450000X-0.262500X-0.450000X0.262500X-0.450000X0*%
%TD*%
%TA.AperFunction,SMDPad,CuDef*%
%ADD13RoundRect,0.243750X-0.243750X-0.456250X0.243750X-0.456250X0.243750X0.456250X-0.243750X0.456250X0*%
%TD*%
%TA.AperFunction,SMDPad,CuDef*%
%ADD14RoundRect,0.250000X0.450000X-0.262500X0.450000X0.262500X-0.450000X0.262500X-0.450000X-0.262500X0*%
%TD*%
%TA.AperFunction,SMDPad,CuDef*%
%ADD15RoundRect,0.225000X-0.225000X-0.250000X0.225000X-0.250000X0.225000X0.250000X-0.225000X0.250000X0*%
%TD*%
%TA.AperFunction,SMDPad,CuDef*%
%ADD16R,2.000000X0.500000*%
%TD*%
%TA.AperFunction,SMDPad,CuDef*%
%ADD17R,1.700000X2.000000*%
%TD*%
%TA.AperFunction,SMDPad,CuDef*%
%ADD18RoundRect,0.225000X0.250000X-0.225000X0.250000X0.225000X-0.250000X0.225000X-0.250000X-0.225000X0*%
%TD*%
%TA.AperFunction,SMDPad,CuDef*%
%ADD19RoundRect,0.200000X-0.200000X-0.275000X0.200000X-0.275000X0.200000X0.275000X-0.200000X0.275000X0*%
%TD*%
%TA.AperFunction,SMDPad,CuDef*%
%ADD20R,2.000000X1.500000*%
%TD*%
%TA.AperFunction,SMDPad,CuDef*%
%ADD21R,1.500000X0.550000*%
%TD*%
%TA.AperFunction,SMDPad,CuDef*%
%ADD22R,0.550000X1.500000*%
%TD*%
%TA.AperFunction,ComponentPad*%
%ADD23R,1.700000X1.700000*%
%TD*%
%TA.AperFunction,ComponentPad*%
%ADD24O,1.700000X1.700000*%
%TD*%
%TA.AperFunction,SMDPad,CuDef*%
%ADD25R,0.700000X1.000000*%
%TD*%
%TA.AperFunction,SMDPad,CuDef*%
%ADD26RoundRect,0.243750X0.243750X0.456250X-0.243750X0.456250X-0.243750X-0.456250X0.243750X-0.456250X0*%
%TD*%
%TA.AperFunction,SMDPad,CuDef*%
%ADD27RoundRect,0.150000X-0.512500X-0.150000X0.512500X-0.150000X0.512500X0.150000X-0.512500X0.150000X0*%
%TD*%
%TA.AperFunction,SMDPad,CuDef*%
%ADD28RoundRect,0.100000X-0.637500X-0.100000X0.637500X-0.100000X0.637500X0.100000X-0.637500X0.100000X0*%
%TD*%
%TA.AperFunction,ComponentPad*%
%ADD29R,1.500000X1.500000*%
%TD*%
%TA.AperFunction,ComponentPad*%
%ADD30C,1.500000*%
%TD*%
%TA.AperFunction,SMDPad,CuDef*%
%ADD31RoundRect,0.200000X0.200000X0.275000X-0.200000X0.275000X-0.200000X-0.275000X0.200000X-0.275000X0*%
%TD*%
%TA.AperFunction,SMDPad,CuDef*%
%ADD32RoundRect,0.250000X-0.312500X-1.450000X0.312500X-1.450000X0.312500X1.450000X-0.312500X1.450000X0*%
%TD*%
%TA.AperFunction,SMDPad,CuDef*%
%ADD33RoundRect,0.150000X0.512500X0.150000X-0.512500X0.150000X-0.512500X-0.150000X0.512500X-0.150000X0*%
%TD*%
%TA.AperFunction,SMDPad,CuDef*%
%ADD34RoundRect,0.200000X0.275000X-0.200000X0.275000X0.200000X-0.275000X0.200000X-0.275000X-0.200000X0*%
%TD*%
%TA.AperFunction,SMDPad,CuDef*%
%ADD35RoundRect,0.225000X-0.250000X0.225000X-0.250000X-0.225000X0.250000X-0.225000X0.250000X0.225000X0*%
%TD*%
%TA.AperFunction,ComponentPad*%
%ADD36C,2.000000*%
%TD*%
%TA.AperFunction,ComponentPad*%
%ADD37R,2.000000X2.000000*%
%TD*%
%TA.AperFunction,SMDPad,CuDef*%
%ADD38R,1.400000X1.200000*%
%TD*%
%TA.AperFunction,SMDPad,CuDef*%
%ADD39RoundRect,0.250000X0.250000X0.475000X-0.250000X0.475000X-0.250000X-0.475000X0.250000X-0.475000X0*%
%TD*%
%TA.AperFunction,ViaPad*%
%ADD40C,0.800000*%
%TD*%
%TA.AperFunction,Conductor*%
%ADD41C,0.250000*%
%TD*%
%TA.AperFunction,Conductor*%
%ADD42C,0.200000*%
%TD*%
G04 APERTURE END LIST*
D10*
%TO.P,C9,1*%
%TO.N,UCAP*%
X166129000Y-85090000D03*
%TO.P,C9,2*%
%TO.N,GND*%
X164579000Y-85090000D03*
%TD*%
D11*
%TO.P,R4,1*%
%TO.N,GREEN_LED*%
X181205500Y-87757000D03*
%TO.P,R4,2*%
%TO.N,Net-(D2-A)*%
X183030500Y-87757000D03*
%TD*%
D12*
%TO.P,R12,1*%
%TO.N,/dp*%
X207565000Y-71120000D03*
%TO.P,R12,2*%
%TO.N,Net-(U1-DPX)*%
X205740000Y-71120000D03*
%TD*%
D13*
%TO.P,D3,2,A*%
%TO.N,Net-(D3-A)*%
X154963100Y-87680800D03*
%TO.P,D3,1,K*%
%TO.N,GND*%
X153088100Y-87680800D03*
%TD*%
D10*
%TO.P,C11,1*%
%TO.N,+5V*%
X166116000Y-81534000D03*
%TO.P,C11,2*%
%TO.N,GND*%
X164566000Y-81534000D03*
%TD*%
D14*
%TO.P,R2,1*%
%TO.N,Button_2*%
X182067200Y-101750500D03*
%TO.P,R2,2*%
%TO.N,GND*%
X182067200Y-99925500D03*
%TD*%
D15*
%TO.P,C13,1*%
%TO.N,+5V*%
X195973400Y-92760800D03*
%TO.P,C13,2*%
%TO.N,GND*%
X197523400Y-92760800D03*
%TD*%
D12*
%TO.P,R11,1*%
%TO.N,/g*%
X207565000Y-68580000D03*
%TO.P,R11,2*%
%TO.N,Net-(U1-g)*%
X205740000Y-68580000D03*
%TD*%
D16*
%TO.P,J2,1,VBUS*%
%TO.N,Net-(J2-VBUS)*%
X150078999Y-81711999D03*
%TO.P,J2,2,D-*%
%TO.N,Net-(J2-D-)*%
X150078999Y-82511999D03*
%TO.P,J2,3,D+*%
%TO.N,Net-(J2-D+)*%
X150078999Y-83311999D03*
%TO.P,J2,4,ID*%
%TO.N,unconnected-(J2-ID-Pad4)*%
X150078999Y-84111999D03*
%TO.P,J2,5,GND*%
%TO.N,GND*%
X150078999Y-84911999D03*
D17*
%TO.P,J2,6,Shield*%
%TO.N,unconnected-(J2-Shield-Pad6)*%
X149978999Y-78861999D03*
X144528999Y-78861999D03*
X149978999Y-87761999D03*
X144528999Y-87761999D03*
%TD*%
D14*
%TO.P,R1,1*%
%TO.N,Button_1*%
X182067200Y-97633800D03*
%TO.P,R1,2*%
%TO.N,GND*%
X182067200Y-95808800D03*
%TD*%
D18*
%TO.P,C5,1*%
%TO.N,+5V*%
X177444400Y-77889400D03*
%TO.P,C5,2*%
%TO.N,GND*%
X177444400Y-76339400D03*
%TD*%
D19*
%TO.P,R14,1*%
%TO.N,Net-(J2-D+)*%
X153099000Y-84074000D03*
%TO.P,R14,2*%
%TO.N,USB_CONN_D+*%
X154749000Y-84074000D03*
%TD*%
D20*
%TO.P,S2,D1,COM_2*%
%TO.N,unconnected-(S2-COM_2-PadD1)*%
X216141199Y-98483999D03*
%TO.P,S2,C1,COM_1*%
%TO.N,+5V*%
X201841199Y-98483999D03*
%TO.P,S2,B1,NO_2*%
%TO.N,Button_2*%
X216141199Y-93483999D03*
%TO.P,S2,A1,NO_1*%
%TO.N,unconnected-(S2-NO_1-PadA1)*%
X201841199Y-93483999D03*
%TD*%
D21*
%TO.P,U3,1,PE6*%
%TO.N,SH_CP*%
X168035999Y-81343999D03*
%TO.P,U3,2,UVCC*%
%TO.N,+5V*%
X168035999Y-82143999D03*
%TO.P,U3,3,D-*%
%TO.N,USB_D-*%
X168035999Y-82943999D03*
%TO.P,U3,4,D+*%
%TO.N,USB_D+*%
X168035999Y-83743999D03*
%TO.P,U3,5,UGND*%
%TO.N,GND*%
X168035999Y-84543999D03*
%TO.P,U3,6,UCAP*%
%TO.N,UCAP*%
X168035999Y-85343999D03*
%TO.P,U3,7,VBUS*%
%TO.N,+5V*%
X168035999Y-86143999D03*
%TO.P,U3,8,PB0*%
%TO.N,unconnected-(U3-PB0-Pad8)*%
X168035999Y-86943999D03*
%TO.P,U3,9,PB1*%
%TO.N,SCK*%
X168035999Y-87743999D03*
%TO.P,U3,10,PB2*%
%TO.N,MOSI*%
X168035999Y-88543999D03*
%TO.P,U3,11,PB3*%
%TO.N,MISO*%
X168035999Y-89343999D03*
D22*
%TO.P,U3,12,PB7*%
%TO.N,Dig3*%
X169735999Y-91043999D03*
%TO.P,U3,13,~{RESET}*%
%TO.N,RESET*%
X170535999Y-91043999D03*
%TO.P,U3,14,VCC*%
%TO.N,+5V*%
X171335999Y-91043999D03*
%TO.P,U3,15,GND*%
%TO.N,GND*%
X172135999Y-91043999D03*
%TO.P,U3,16,XTAL2*%
%TO.N,XTAL2*%
X172935999Y-91043999D03*
%TO.P,U3,17,XTAL1*%
%TO.N,XTAL1*%
X173735999Y-91043999D03*
%TO.P,U3,18,PD0*%
%TO.N,Button_2*%
X174535999Y-91043999D03*
%TO.P,U3,19,PD1*%
%TO.N,Button_1*%
X175335999Y-91043999D03*
%TO.P,U3,20,PD2*%
%TO.N,TX*%
X176135999Y-91043999D03*
%TO.P,U3,21,PD3*%
%TO.N,RX*%
X176935999Y-91043999D03*
%TO.P,U3,22,PD5*%
%TO.N,unconnected-(U3-PD5-Pad22)*%
X177735999Y-91043999D03*
D21*
%TO.P,U3,23,GND*%
%TO.N,GND*%
X179435999Y-89343999D03*
%TO.P,U3,24,AVCC*%
%TO.N,+5V*%
X179435999Y-88543999D03*
%TO.P,U3,25,PD4*%
%TO.N,GREEN_LED*%
X179435999Y-87743999D03*
%TO.P,U3,26,PD6*%
%TO.N,Dig2*%
X179435999Y-86943999D03*
%TO.P,U3,27,PD7*%
%TO.N,Buzzer*%
X179435999Y-86143999D03*
%TO.P,U3,28,PB4*%
%TO.N,ST_CP*%
X179435999Y-85343999D03*
%TO.P,U3,29,PB5*%
%TO.N,DS*%
X179435999Y-84543999D03*
%TO.P,U3,30,PB6*%
%TO.N,Dig4*%
X179435999Y-83743999D03*
%TO.P,U3,31,PC6*%
%TO.N,RED_LED*%
X179435999Y-82943999D03*
%TO.P,U3,32,PC7*%
%TO.N,Dig1*%
X179435999Y-82143999D03*
%TO.P,U3,33,~{HWB}/PE2*%
%TO.N,GND*%
X179435999Y-81343999D03*
D22*
%TO.P,U3,34,VCC*%
%TO.N,+5V*%
X177735999Y-79643999D03*
%TO.P,U3,35,GND*%
%TO.N,GND*%
X176935999Y-79643999D03*
%TO.P,U3,36,PF7*%
%TO.N,unconnected-(U3-PF7-Pad36)*%
X176135999Y-79643999D03*
%TO.P,U3,37,PF6*%
%TO.N,unconnected-(U3-PF6-Pad37)*%
X175335999Y-79643999D03*
%TO.P,U3,38,PF5*%
%TO.N,unconnected-(U3-PF5-Pad38)*%
X174535999Y-79643999D03*
%TO.P,U3,39,PF4*%
%TO.N,unconnected-(U3-PF4-Pad39)*%
X173735999Y-79643999D03*
%TO.P,U3,40,PF1*%
%TO.N,unconnected-(U3-PF1-Pad40)*%
X172935999Y-79643999D03*
%TO.P,U3,41,PF0*%
%TO.N,unconnected-(U3-PF0-Pad41)*%
X172135999Y-79643999D03*
%TO.P,U3,42,AREF*%
%TO.N,AREF*%
X171335999Y-79643999D03*
%TO.P,U3,43,GND*%
%TO.N,GND*%
X170535999Y-79643999D03*
%TO.P,U3,44,AVCC*%
%TO.N,+5V*%
X169735999Y-79643999D03*
%TD*%
D23*
%TO.P,J1,1,MISO*%
%TO.N,MISO*%
X164103999Y-90591399D03*
D24*
%TO.P,J1,2,VCC*%
%TO.N,+5V*%
X161563999Y-90591399D03*
%TO.P,J1,3,SCK*%
%TO.N,SCK*%
X164103999Y-93131399D03*
%TO.P,J1,4,MOSI*%
%TO.N,MOSI*%
X161563999Y-93131399D03*
%TO.P,J1,5,~{RST}*%
%TO.N,RESET*%
X164103999Y-95671399D03*
%TO.P,J1,6,GND*%
%TO.N,GND*%
X161563999Y-95671399D03*
%TD*%
D12*
%TO.P,R16,1*%
%TO.N,+5V*%
X158441400Y-87680800D03*
%TO.P,R16,2*%
%TO.N,Net-(D3-A)*%
X156616400Y-87680800D03*
%TD*%
D25*
%TO.P,S3,4*%
%TO.N,N/C*%
X180107199Y-95812099D03*
%TO.P,S3,3*%
%TO.N,RESET*%
X180107199Y-101812099D03*
%TO.P,S3,2*%
%TO.N,N/C*%
X176407199Y-95812099D03*
%TO.P,S3,1*%
%TO.N,GND*%
X176407199Y-101812099D03*
%TD*%
D23*
%TO.P,J3,1,Pin_1*%
%TO.N,GND*%
X186669999Y-101208999D03*
D24*
%TO.P,J3,2,Pin_2*%
%TO.N,TX*%
X189209999Y-101208999D03*
%TO.P,J3,3,Pin_3*%
%TO.N,unconnected-(J3-Pin_3-Pad3)*%
X186669999Y-98668999D03*
%TO.P,J3,4,Pin_4*%
%TO.N,+3.3V*%
X189209999Y-98668999D03*
%TO.P,J3,5,Pin_5*%
%TO.N,Net-(J3-Pin_5)*%
X186669999Y-96128999D03*
%TO.P,J3,6,Pin_6*%
%TO.N,+3.3V*%
X189209999Y-96128999D03*
%TO.P,J3,7,Pin_7*%
%TO.N,RX*%
X186669999Y-93588999D03*
%TO.P,J3,8,Pin_8*%
%TO.N,+3.3V*%
X189209999Y-93588999D03*
%TD*%
D15*
%TO.P,C6,1*%
%TO.N,+5V*%
X181241400Y-89509600D03*
%TO.P,C6,2*%
%TO.N,GND*%
X182791400Y-89509600D03*
%TD*%
D26*
%TO.P,D2,2,A*%
%TO.N,Net-(D2-A)*%
X196194200Y-74574400D03*
%TO.P,D2,1,K*%
%TO.N,GND*%
X198069200Y-74574400D03*
%TD*%
D12*
%TO.P,R7,1*%
%TO.N,/c*%
X207565000Y-58420000D03*
%TO.P,R7,2*%
%TO.N,Net-(U1-c)*%
X205740000Y-58420000D03*
%TD*%
D27*
%TO.P,U4,1,I/O1*%
%TO.N,USB_CONN_D-*%
X156850500Y-82362000D03*
%TO.P,U4,2,GND*%
%TO.N,GND*%
X156850500Y-83312000D03*
%TO.P,U4,3,I/O2*%
%TO.N,USB_CONN_D+*%
X156850500Y-84262000D03*
%TO.P,U4,4,I/O2*%
%TO.N,USB_D+*%
X159125500Y-84262000D03*
%TO.P,U4,5,VBUS*%
%TO.N,+5V*%
X159125500Y-83312000D03*
%TO.P,U4,6,I/O1*%
%TO.N,USB_D-*%
X159125500Y-82362000D03*
%TD*%
D26*
%TO.P,D1,2,A*%
%TO.N,Net-(D1-A)*%
X187124100Y-74574400D03*
%TO.P,D1,1,K*%
%TO.N,GND*%
X188999100Y-74574400D03*
%TD*%
D10*
%TO.P,C14,1*%
%TO.N,+3.3V*%
X194259200Y-98755200D03*
%TO.P,C14,2*%
%TO.N,GND*%
X192709200Y-98755200D03*
%TD*%
D28*
%TO.P,U2,1,QB*%
%TO.N,/b*%
X212656500Y-60277500D03*
%TO.P,U2,2,QC*%
%TO.N,/c*%
X212656500Y-60927500D03*
%TO.P,U2,3,QD*%
%TO.N,/d*%
X212656500Y-61577500D03*
%TO.P,U2,4,QE*%
%TO.N,/e*%
X212656500Y-62227500D03*
%TO.P,U2,5,QF*%
%TO.N,/f*%
X212656500Y-62877500D03*
%TO.P,U2,6,QG*%
%TO.N,/g*%
X212656500Y-63527500D03*
%TO.P,U2,7,QH*%
%TO.N,/dp*%
X212656500Y-64177500D03*
%TO.P,U2,8,GND*%
%TO.N,GND*%
X212656500Y-64827500D03*
%TO.P,U2,9,QH'*%
%TO.N,unconnected-(U2-QH'-Pad9)*%
X218381500Y-64827500D03*
%TO.P,U2,10,~{SRCLR}*%
%TO.N,+5V*%
X218381500Y-64177500D03*
%TO.P,U2,11,SRCLK*%
%TO.N,SH_CP*%
X218381500Y-63527500D03*
%TO.P,U2,12,RCLK*%
%TO.N,ST_CP*%
X218381500Y-62877500D03*
%TO.P,U2,13,~{OE}*%
%TO.N,GND*%
X218381500Y-62227500D03*
%TO.P,U2,14,SER*%
%TO.N,DS*%
X218381500Y-61577500D03*
%TO.P,U2,15,QA*%
%TO.N,/a*%
X218381500Y-60927500D03*
%TO.P,U2,16,VCC*%
%TO.N,+5V*%
X218381500Y-60277500D03*
%TD*%
D29*
%TO.P,U1,1,e*%
%TO.N,Net-(U1-e)*%
X171754799Y-69494399D03*
D30*
%TO.P,U1,2,d*%
%TO.N,Net-(U1-d)*%
X174294800Y-69494400D03*
%TO.P,U1,3,DPX*%
%TO.N,Net-(U1-DPX)*%
X176834800Y-69494400D03*
%TO.P,U1,4,c*%
%TO.N,Net-(U1-c)*%
X179374800Y-69494400D03*
%TO.P,U1,5,g*%
%TO.N,Net-(U1-g)*%
X181914800Y-69494400D03*
%TO.P,U1,6,CA4*%
%TO.N,Dig4*%
X184454800Y-69494400D03*
%TO.P,U1,7,b*%
%TO.N,Net-(U1-b)*%
X184454800Y-54254400D03*
%TO.P,U1,8,CA3*%
%TO.N,Dig3*%
X181914800Y-54254400D03*
%TO.P,U1,9,CA2*%
%TO.N,Dig2*%
X179374800Y-54254400D03*
%TO.P,U1,10,f*%
%TO.N,Net-(U1-f)*%
X176834800Y-54254400D03*
%TO.P,U1,11,a*%
%TO.N,Net-(U1-a)*%
X174294800Y-54254400D03*
%TO.P,U1,12,CA1*%
%TO.N,Dig1*%
X171754800Y-54254400D03*
%TD*%
D31*
%TO.P,R17,1*%
%TO.N,+3.3V*%
X194310000Y-100431600D03*
%TO.P,R17,2*%
%TO.N,Net-(J3-Pin_5)*%
X192660000Y-100431600D03*
%TD*%
D32*
%TO.P,F1,1*%
%TO.N,Net-(J2-VBUS)*%
X153818500Y-77724000D03*
%TO.P,F1,2*%
%TO.N,+5V*%
X158093500Y-77724000D03*
%TD*%
D18*
%TO.P,C12,1*%
%TO.N,AREF*%
X171754800Y-77851600D03*
%TO.P,C12,2*%
%TO.N,GND*%
X171754800Y-76301600D03*
%TD*%
D12*
%TO.P,R8,1*%
%TO.N,/d*%
X207565000Y-60960000D03*
%TO.P,R8,2*%
%TO.N,Net-(U1-d)*%
X205740000Y-60960000D03*
%TD*%
D20*
%TO.P,S1,D1,COM_2*%
%TO.N,unconnected-(S1-COM_2-PadD1)*%
X216141199Y-84237199D03*
%TO.P,S1,C1,COM_1*%
%TO.N,+5V*%
X201841199Y-84237199D03*
%TO.P,S1,B1,NO_2*%
%TO.N,Button_1*%
X216141199Y-79237199D03*
%TO.P,S1,A1,NO_1*%
%TO.N,unconnected-(S1-NO_1-PadA1)*%
X201841199Y-79237199D03*
%TD*%
D33*
%TO.P,U5,1,VIN*%
%TO.N,+5V*%
X194558500Y-96200000D03*
%TO.P,U5,2,GND*%
%TO.N,GND*%
X194558500Y-95250000D03*
%TO.P,U5,3,ON/~{OFF}*%
%TO.N,+5V*%
X194558500Y-94300000D03*
%TO.P,U5,4,BP*%
%TO.N,Net-(U5-BP)*%
X192283500Y-94300000D03*
%TO.P,U5,5,VOUT*%
%TO.N,+3.3V*%
X192283500Y-96200000D03*
%TD*%
D18*
%TO.P,C4,1*%
%TO.N,+5V*%
X169316400Y-77838600D03*
%TO.P,C4,2*%
%TO.N,GND*%
X169316400Y-76288600D03*
%TD*%
D34*
%TO.P,R13,1*%
%TO.N,+5V*%
X169113200Y-94449400D03*
%TO.P,R13,2*%
%TO.N,RESET*%
X169113200Y-92799400D03*
%TD*%
D35*
%TO.P,C7,2*%
%TO.N,GND*%
X170688000Y-94399400D03*
%TO.P,C7,1*%
%TO.N,+5V*%
X170688000Y-92849400D03*
%TD*%
D12*
%TO.P,R9,1*%
%TO.N,/e*%
X207565000Y-63500000D03*
%TO.P,R9,2*%
%TO.N,Net-(U1-e)*%
X205740000Y-63500000D03*
%TD*%
D36*
%TO.P,LS1,2,2*%
%TO.N,GND*%
X196392800Y-81737200D03*
D37*
%TO.P,LS1,1,1*%
%TO.N,Buzzer*%
X188792799Y-81737199D03*
%TD*%
D12*
%TO.P,R10,1*%
%TO.N,/f*%
X207565000Y-66040000D03*
%TO.P,R10,2*%
%TO.N,Net-(U1-f)*%
X205740000Y-66040000D03*
%TD*%
D11*
%TO.P,R3,1*%
%TO.N,RED_LED*%
X181229000Y-82931000D03*
%TO.P,R3,2*%
%TO.N,Net-(D1-A)*%
X183054000Y-82931000D03*
%TD*%
D19*
%TO.P,R15,1*%
%TO.N,Net-(J2-D-)*%
X153099000Y-82296000D03*
%TO.P,R15,2*%
%TO.N,USB_CONN_D-*%
X154749000Y-82296000D03*
%TD*%
D38*
%TO.P,Y1,1,1*%
%TO.N,XTAL1*%
X172753199Y-96838399D03*
%TO.P,Y1,2,2*%
%TO.N,GND*%
X170553199Y-96838399D03*
%TO.P,Y1,3,3*%
%TO.N,XTAL2*%
X170553199Y-98538399D03*
%TO.P,Y1,4,4*%
%TO.N,GND*%
X172753199Y-98538399D03*
%TD*%
D15*
%TO.P,C15,1*%
%TO.N,Net-(U5-BP)*%
X192048800Y-92710000D03*
%TO.P,C15,2*%
%TO.N,GND*%
X193598800Y-92710000D03*
%TD*%
D39*
%TO.P,C8,1*%
%TO.N,+5V*%
X166050000Y-79502000D03*
%TO.P,C8,2*%
%TO.N,GND*%
X164150000Y-79502000D03*
%TD*%
D10*
%TO.P,C10,1*%
%TO.N,+5V*%
X166129000Y-86614000D03*
%TO.P,C10,2*%
%TO.N,GND*%
X164579000Y-86614000D03*
%TD*%
D12*
%TO.P,R5,1*%
%TO.N,/a*%
X207565000Y-53340000D03*
%TO.P,R5,2*%
%TO.N,Net-(U1-a)*%
X205740000Y-53340000D03*
%TD*%
D35*
%TO.P,C2,1*%
%TO.N,XTAL1*%
X174650400Y-96672400D03*
%TO.P,C2,2*%
%TO.N,GND*%
X174650400Y-98222400D03*
%TD*%
D12*
%TO.P,R6,1*%
%TO.N,/b*%
X207565000Y-55880000D03*
%TO.P,R6,2*%
%TO.N,Net-(U1-b)*%
X205740000Y-55880000D03*
%TD*%
D18*
%TO.P,C3,2*%
%TO.N,GND*%
X168757600Y-97028000D03*
%TO.P,C3,1*%
%TO.N,XTAL2*%
X168757600Y-98578000D03*
%TD*%
D40*
%TO.N,GND*%
X199288400Y-74574400D03*
X190246000Y-74574400D03*
X171754800Y-75133200D03*
X169316400Y-75133200D03*
X196392800Y-79603600D03*
X217017600Y-62230000D03*
X176479200Y-81026000D03*
X177393600Y-101803200D03*
X161594800Y-97739200D03*
X172770800Y-99822000D03*
X168757600Y-95910400D03*
X170688000Y-95504000D03*
X151841200Y-87680800D03*
X172161200Y-89662000D03*
X182067200Y-98907600D03*
X163525200Y-85090000D03*
X184912000Y-101244400D03*
X169418000Y-84582000D03*
X179933600Y-90271600D03*
X214020400Y-64820800D03*
X163169600Y-79502000D03*
X151765000Y-84963000D03*
X163525200Y-86614000D03*
X163474400Y-81534000D03*
X155600400Y-83312000D03*
X195935600Y-95300800D03*
X179425600Y-80416400D03*
X191617600Y-98755200D03*
X182067200Y-94742000D03*
X194767200Y-92710000D03*
X170535600Y-78181200D03*
X177444400Y-75234800D03*
X198678800Y-92760800D03*
X183896000Y-89560400D03*
%TD*%
D41*
%TO.N,SH_CP*%
X219070041Y-63527500D02*
X218381500Y-63527500D01*
X219520041Y-63077500D02*
X219070041Y-63527500D01*
X219520041Y-60077500D02*
X219520041Y-63077500D01*
X219195041Y-59752500D02*
X219520041Y-60077500D01*
X215708500Y-59752500D02*
X219195041Y-59752500D01*
X207278400Y-51322400D02*
X215708500Y-59752500D01*
X171256404Y-51322400D02*
X207278400Y-51322400D01*
X167465600Y-70759604D02*
X167465600Y-55113204D01*
X164472200Y-73753004D02*
X167465600Y-70759604D01*
X167465600Y-55113204D02*
X171256404Y-51322400D01*
X164472200Y-76056196D02*
X164472200Y-73753004D01*
X168036000Y-81344000D02*
X167335200Y-80643200D01*
X167335200Y-80643200D02*
X167335200Y-78919196D01*
X167335200Y-78919196D02*
X164472200Y-76056196D01*
%TO.N,+5V*%
X158441400Y-87680800D02*
X158441400Y-96465400D01*
X166159600Y-104183600D02*
X183134000Y-104183600D01*
X158441400Y-96465400D02*
X166159600Y-104183600D01*
X207841600Y-104183600D02*
X183134000Y-104183600D01*
X218846400Y-93178800D02*
X207841600Y-104183600D01*
X218846400Y-70256400D02*
X219100400Y-70002400D01*
X218846400Y-93178800D02*
X218846400Y-70256400D01*
%TO.N,Dig3*%
X171442800Y-51772400D02*
X179432800Y-51772400D01*
X167915600Y-55299600D02*
X171442800Y-51772400D01*
X167915600Y-70946000D02*
X167915600Y-55299600D01*
X164922200Y-75666600D02*
X164922200Y-73939400D01*
X168046400Y-79629400D02*
X168046400Y-78790800D01*
X179432800Y-51772400D02*
X181914800Y-54254400D01*
X164922200Y-73939400D02*
X167915600Y-70946000D01*
X170593000Y-82176000D02*
X168046400Y-79629400D01*
X170593000Y-85223396D02*
X170593000Y-82176000D01*
X168046400Y-78790800D02*
X164922200Y-75666600D01*
X169736000Y-86080396D02*
X170593000Y-85223396D01*
X169736000Y-91044000D02*
X169736000Y-86080396D01*
%TO.N,Dig2*%
X177342800Y-52222400D02*
X179374800Y-54254400D01*
X171653200Y-52222400D02*
X177342800Y-52222400D01*
X168365600Y-55510000D02*
X171653200Y-52222400D01*
X168365600Y-71540800D02*
X168365600Y-55510000D01*
X180093200Y-73406000D02*
X170230800Y-73406000D01*
X180076695Y-78740000D02*
X180093200Y-78740000D01*
X178361000Y-80455695D02*
X180076695Y-78740000D01*
X170230800Y-73406000D02*
X168365600Y-71540800D01*
X178561000Y-86944000D02*
X178361000Y-86744000D01*
X178361000Y-86744000D02*
X178361000Y-80455695D01*
X179436000Y-86944000D02*
X178561000Y-86944000D01*
X180093200Y-78740000D02*
X180093200Y-73406000D01*
%TO.N,Dig1*%
X179815196Y-72491600D02*
X170281600Y-72491600D01*
X180543200Y-73219604D02*
X179815196Y-72491600D01*
X180543200Y-82036800D02*
X180543200Y-73219604D01*
X168815600Y-57193600D02*
X171754800Y-54254400D01*
X180436000Y-82144000D02*
X180543200Y-82036800D01*
X179436000Y-82144000D02*
X180436000Y-82144000D01*
X170281600Y-72491600D02*
X168815600Y-71025600D01*
X168815600Y-71025600D02*
X168815600Y-57193600D01*
%TO.N,Net-(U1-a)*%
X175869600Y-52679600D02*
X174294800Y-54254400D01*
X176780280Y-52679600D02*
X175869600Y-52679600D01*
X177909800Y-53809120D02*
X176780280Y-52679600D01*
X178875000Y-55422800D02*
X177909800Y-54457600D01*
X182989800Y-54754200D02*
X182321200Y-55422800D01*
X182321200Y-55422800D02*
X178875000Y-55422800D01*
X184048400Y-53086000D02*
X182989800Y-54144600D01*
X182989800Y-54144600D02*
X182989800Y-54754200D01*
X205486000Y-53086000D02*
X184048400Y-53086000D01*
X177909800Y-54457600D02*
X177909800Y-53809120D01*
X205740000Y-53340000D02*
X205486000Y-53086000D01*
%TO.N,Net-(U1-b)*%
X204114400Y-54254400D02*
X184454800Y-54254400D01*
X205740000Y-55880000D02*
X204114400Y-54254400D01*
%TO.N,Net-(U1-c)*%
X178257200Y-70612000D02*
X179374800Y-69494400D01*
X169800396Y-69689996D02*
X170722400Y-70612000D01*
X170722400Y-70612000D02*
X178257200Y-70612000D01*
X169800396Y-69298804D02*
X169800396Y-69689996D01*
X205740000Y-58420000D02*
X201269600Y-62890400D01*
X201269600Y-62890400D02*
X176208800Y-62890400D01*
X176208800Y-62890400D02*
X169800396Y-69298804D01*
%TO.N,Net-(U1-e)*%
X171754800Y-68224400D02*
X171754800Y-69494400D01*
X176479200Y-63500000D02*
X171754800Y-68224400D01*
X205740000Y-63500000D02*
X176479200Y-63500000D01*
%TO.N,Net-(U1-DPX)*%
X180898800Y-65430400D02*
X176834800Y-69494400D01*
X205239327Y-65015000D02*
X204823927Y-65430400D01*
X206577500Y-65201100D02*
X206391400Y-65015000D01*
X204823927Y-65430400D02*
X180898800Y-65430400D01*
X206577500Y-70282500D02*
X206577500Y-65201100D01*
X205740000Y-71120000D02*
X206577500Y-70282500D01*
X206391400Y-65015000D02*
X205239327Y-65015000D01*
%TO.N,Net-(U1-g)*%
X184759600Y-66649600D02*
X181914800Y-69494400D01*
X203809600Y-66649600D02*
X184759600Y-66649600D01*
X205740000Y-68580000D02*
X203809600Y-66649600D01*
%TO.N,Net-(U1-f)*%
X169265600Y-61823600D02*
X176834800Y-54254400D01*
X169265600Y-69799200D02*
X169265600Y-61823600D01*
X170528400Y-71062000D02*
X169265600Y-69799200D01*
X179382000Y-71062000D02*
X170528400Y-71062000D01*
X180449800Y-69994200D02*
X179382000Y-71062000D01*
X205740000Y-66040000D02*
X183848920Y-66040000D01*
X183848920Y-66040000D02*
X180449800Y-69439120D01*
X180449800Y-69439120D02*
X180449800Y-69994200D01*
%TO.N,Net-(U1-d)*%
X206240673Y-64525000D02*
X206603600Y-64162073D01*
X179264200Y-64525000D02*
X206240673Y-64525000D01*
X206603600Y-64162073D02*
X206603600Y-61823600D01*
X206603600Y-61823600D02*
X205740000Y-60960000D01*
X174294800Y-69494400D02*
X179264200Y-64525000D01*
%TO.N,+5V*%
X181241400Y-89509600D02*
X182041400Y-90309600D01*
X203166200Y-90373200D02*
X203166200Y-85562200D01*
X203166200Y-97159000D02*
X203166200Y-90373200D01*
X182041400Y-90309600D02*
X203102600Y-90309600D01*
X203102600Y-90309600D02*
X203166200Y-90373200D01*
X219444000Y-64487400D02*
X219444000Y-69658800D01*
X219134100Y-64177500D02*
X219444000Y-64487400D01*
X218381500Y-64177500D02*
X219134100Y-64177500D01*
X219444000Y-69658800D02*
X219100400Y-70002400D01*
X204865600Y-84237200D02*
X219100400Y-70002400D01*
X161564000Y-90591400D02*
X158653400Y-87680800D01*
X158653400Y-87680800D02*
X158441400Y-87680800D01*
%TO.N,MOSI*%
X161564000Y-93131400D02*
X162929000Y-91766400D01*
X162929000Y-91766400D02*
X162929000Y-89394600D01*
X162929000Y-89394600D02*
X163779600Y-88544000D01*
X163779600Y-88544000D02*
X168036000Y-88544000D01*
%TO.N,MISO*%
X166788600Y-90591400D02*
X168036000Y-89344000D01*
X164104000Y-90591400D02*
X166788600Y-90591400D01*
%TO.N,SCK*%
X168770000Y-87744000D02*
X168036000Y-87744000D01*
X164104000Y-93131400D02*
X165923600Y-93131400D01*
X165923600Y-93131400D02*
X169111000Y-89944000D01*
X169111000Y-88085000D02*
X168770000Y-87744000D01*
X169111000Y-89944000D02*
X169111000Y-88085000D01*
%TO.N,+5V*%
X183134000Y-104183600D02*
X182974627Y-104183600D01*
X168440600Y-94449400D02*
X169113200Y-94449400D01*
X167284400Y-95605600D02*
X168440600Y-94449400D01*
X167284400Y-98450400D02*
X167284400Y-95605600D01*
X169381000Y-100547000D02*
X167284400Y-98450400D01*
X180797200Y-102006173D02*
X180797200Y-101142800D01*
X182974627Y-104183600D02*
X180797200Y-102006173D01*
X180201400Y-100547000D02*
X169381000Y-100547000D01*
X180797200Y-101142800D02*
X180201400Y-100547000D01*
%TO.N,Button_1*%
X183092200Y-101913800D02*
X183092200Y-98658800D01*
X184462000Y-103283600D02*
X183092200Y-101913800D01*
X203616200Y-85486600D02*
X203616200Y-99109000D01*
X205051996Y-84687200D02*
X204415600Y-84687200D01*
X204415600Y-84687200D02*
X203616200Y-85486600D01*
X210501996Y-79237200D02*
X205051996Y-84687200D01*
X199441600Y-103283600D02*
X184462000Y-103283600D01*
X183092200Y-98658800D02*
X182067200Y-97633800D01*
X216141200Y-79237200D02*
X210501996Y-79237200D01*
X203616200Y-99109000D02*
X199441600Y-103283600D01*
%TO.N,+5V*%
X201841200Y-84237200D02*
X204865600Y-84237200D01*
%TO.N,Button_2*%
X184050300Y-103733600D02*
X182067200Y-101750500D01*
X199627996Y-103733600D02*
X184050300Y-103733600D01*
X204066200Y-99295396D02*
X199627996Y-103733600D01*
X204066200Y-94333000D02*
X204066200Y-99295396D01*
X204915200Y-93484000D02*
X204066200Y-94333000D01*
X216141200Y-93484000D02*
X204915200Y-93484000D01*
%TO.N,GND*%
X199288400Y-74574400D02*
X198069200Y-74574400D01*
X190246000Y-74574400D02*
X188999100Y-74574400D01*
%TO.N,+5V*%
X178561000Y-88544000D02*
X179436000Y-88544000D01*
X177911000Y-87894000D02*
X178561000Y-88544000D01*
X177911000Y-81187800D02*
X177911000Y-87894000D01*
X177647600Y-80924400D02*
X177911000Y-81187800D01*
X177647600Y-80924400D02*
X177736000Y-80836000D01*
X176821000Y-81751000D02*
X177647600Y-80924400D01*
X177736000Y-80836000D02*
X177736000Y-79644000D01*
X175754200Y-81326305D02*
X176178895Y-81751000D01*
X175410200Y-80719000D02*
X175754200Y-81063000D01*
X176178895Y-81751000D02*
X176821000Y-81751000D01*
X169736000Y-80519000D02*
X169936000Y-80719000D01*
X169936000Y-80719000D02*
X175410200Y-80719000D01*
X169736000Y-79644000D02*
X169736000Y-80519000D01*
X175754200Y-81063000D02*
X175754200Y-81326305D01*
X193571000Y-94668200D02*
X193939200Y-94300000D01*
X193571000Y-95596751D02*
X193571000Y-94668200D01*
X193939200Y-94300000D02*
X194558500Y-94300000D01*
X194558500Y-96200000D02*
X194174249Y-96200000D01*
X194174249Y-96200000D02*
X193571000Y-95596751D01*
X200185600Y-98484000D02*
X198272400Y-96570800D01*
X194929300Y-96570800D02*
X194558500Y-96200000D01*
X201841200Y-98484000D02*
X200185600Y-98484000D01*
X198272400Y-96570800D02*
X194929300Y-96570800D01*
%TO.N,GND*%
X169316400Y-75133200D02*
X169316400Y-76288600D01*
X171754800Y-75133200D02*
X171754800Y-76301600D01*
%TO.N,AREF*%
X171336000Y-78955600D02*
X171336000Y-79644000D01*
X171754800Y-77851600D02*
X171754800Y-78536800D01*
X171754800Y-78536800D02*
X171336000Y-78955600D01*
%TO.N,+5V*%
X169316400Y-77838600D02*
X169316400Y-79224400D01*
X169316400Y-79224400D02*
X169736000Y-79644000D01*
%TO.N,GND*%
X170535600Y-79643600D02*
X170536000Y-79644000D01*
X170535600Y-78181200D02*
X170535600Y-79643600D01*
%TO.N,+5V*%
X170143000Y-83427400D02*
X168859600Y-82144000D01*
X170143000Y-85037000D02*
X170143000Y-83427400D01*
X169036000Y-86144000D02*
X170143000Y-85037000D01*
X168036000Y-86144000D02*
X169036000Y-86144000D01*
X168859600Y-82144000D02*
X168036000Y-82144000D01*
%TO.N,Dig4*%
X182118000Y-83567673D02*
X182118000Y-71831200D01*
X182118000Y-71831200D02*
X184454800Y-69494400D01*
X181729673Y-83956000D02*
X182118000Y-83567673D01*
X180728327Y-83956000D02*
X181729673Y-83956000D01*
X179436000Y-83744000D02*
X180516327Y-83744000D01*
X180516327Y-83744000D02*
X180728327Y-83956000D01*
%TO.N,ST_CP*%
X182803069Y-85344000D02*
X179436000Y-85344000D01*
X184341500Y-82307700D02*
X184341500Y-83805569D01*
X193700400Y-72948800D02*
X184341500Y-82307700D01*
X209296000Y-72948800D02*
X193700400Y-72948800D01*
X215195400Y-67049400D02*
X209296000Y-72948800D01*
X184341500Y-83805569D02*
X182803069Y-85344000D01*
X215195400Y-65375059D02*
X215195400Y-67049400D01*
X218381500Y-62877500D02*
X217692959Y-62877500D01*
X217692959Y-62877500D02*
X215195400Y-65375059D01*
%TO.N,DS*%
X218309000Y-61505000D02*
X218381500Y-61577500D01*
X215761400Y-61505000D02*
X218309000Y-61505000D01*
X214745400Y-66534200D02*
X214745400Y-62521000D01*
X193497200Y-72339200D02*
X208940400Y-72339200D01*
X183891500Y-83619173D02*
X183891500Y-81944900D01*
X183891500Y-81944900D02*
X193497200Y-72339200D01*
X182966673Y-84544000D02*
X183891500Y-83619173D01*
X208940400Y-72339200D02*
X214745400Y-66534200D01*
X179436000Y-84544000D02*
X182966673Y-84544000D01*
X214745400Y-62521000D02*
X215761400Y-61505000D01*
%TO.N,Net-(D1-A)*%
X183054000Y-82071200D02*
X183054000Y-82931000D01*
X187124100Y-78001100D02*
X183054000Y-82071200D01*
X187124100Y-74574400D02*
X187124100Y-78001100D01*
%TO.N,Net-(D2-A)*%
X185423000Y-87757000D02*
X183030500Y-87757000D01*
X196194200Y-76985800D02*
X185423000Y-87757000D01*
X196194200Y-74574400D02*
X196194200Y-76985800D01*
%TO.N,Buzzer*%
X188772800Y-81737200D02*
X184366000Y-86144000D01*
X188792800Y-81737200D02*
X188772800Y-81737200D01*
X184366000Y-86144000D02*
X179436000Y-86144000D01*
%TO.N,GND*%
X179436000Y-89774000D02*
X179436000Y-89344000D01*
X179933600Y-90271600D02*
X179436000Y-89774000D01*
%TO.N,+5V*%
X203166200Y-85562200D02*
X201841200Y-84237200D01*
X201841200Y-98484000D02*
X203166200Y-97159000D01*
%TO.N,GND*%
X196392800Y-79603600D02*
X196392800Y-81737200D01*
%TO.N,+5V*%
X218381500Y-60277500D02*
X219070041Y-60277500D01*
%TO.N,/a*%
X214645041Y-60927500D02*
X207565000Y-53847459D01*
X218381500Y-60927500D02*
X214645041Y-60927500D01*
X207565000Y-53847459D02*
X207565000Y-53340000D01*
%TO.N,GND*%
X217020100Y-62227500D02*
X217017600Y-62230000D01*
X218381500Y-62227500D02*
X217020100Y-62227500D01*
X214020400Y-64820800D02*
X212663200Y-64820800D01*
X212663200Y-64820800D02*
X212656500Y-64827500D01*
%TO.N,unconnected-(J2-Shield-Pad6)*%
X144529000Y-87762000D02*
X149979000Y-87762000D01*
X144529000Y-78862000D02*
X144529000Y-87762000D01*
X149979000Y-78862000D02*
X144529000Y-78862000D01*
%TO.N,/b*%
X212656500Y-60277500D02*
X211375500Y-60277500D01*
X211328000Y-60325000D02*
X211328000Y-59643000D01*
X211328000Y-59643000D02*
X207565000Y-55880000D01*
X211375500Y-60277500D02*
X211328000Y-60325000D01*
%TO.N,/f*%
X211967959Y-62877500D02*
X211955459Y-62865000D01*
X207899000Y-66040000D02*
X207565000Y-66040000D01*
%TO.N,/d*%
X210964500Y-61577500D02*
X210947000Y-61595000D01*
%TO.N,/e*%
X210949500Y-62227500D02*
X209677000Y-63500000D01*
%TO.N,/g*%
X212656500Y-63527500D02*
X211300500Y-63527500D01*
%TO.N,/f*%
X211074000Y-62865000D02*
X207899000Y-66040000D01*
%TO.N,/dp*%
X209111000Y-69574000D02*
X207565000Y-71120000D01*
X211412500Y-64177500D02*
X209111000Y-66479000D01*
%TO.N,/g*%
X208661000Y-68580000D02*
X207565000Y-68580000D01*
%TO.N,/c*%
X208534000Y-58420000D02*
X207565000Y-58420000D01*
%TO.N,/e*%
X209677000Y-63500000D02*
X207565000Y-63500000D01*
%TO.N,/g*%
X211300500Y-63527500D02*
X208661000Y-66167000D01*
%TO.N,/c*%
X212656500Y-60927500D02*
X211041500Y-60927500D01*
%TO.N,/g*%
X208661000Y-66167000D02*
X208661000Y-68580000D01*
%TO.N,/d*%
X212656500Y-61577500D02*
X210964500Y-61577500D01*
%TO.N,/dp*%
X212656500Y-64177500D02*
X211412500Y-64177500D01*
%TO.N,/f*%
X212656500Y-62877500D02*
X211967959Y-62877500D01*
%TO.N,/c*%
X211041500Y-60927500D02*
X208534000Y-58420000D01*
%TO.N,/d*%
X210312000Y-60960000D02*
X207565000Y-60960000D01*
%TO.N,/e*%
X212656500Y-62227500D02*
X210949500Y-62227500D01*
%TO.N,/f*%
X211955459Y-62865000D02*
X211074000Y-62865000D01*
%TO.N,/dp*%
X209111000Y-66479000D02*
X209111000Y-69574000D01*
%TO.N,/d*%
X210947000Y-61595000D02*
X210312000Y-60960000D01*
%TO.N,GND*%
X179425600Y-81333600D02*
X179436000Y-81344000D01*
X179425600Y-80416400D02*
X179425600Y-81333600D01*
X176936000Y-80569200D02*
X176936000Y-79644000D01*
X176479200Y-81026000D02*
X176936000Y-80569200D01*
%TO.N,TX*%
X177359604Y-93573600D02*
X176136000Y-92349996D01*
X184658000Y-93573600D02*
X177359604Y-93573600D01*
X186373299Y-100034000D02*
X184658000Y-98318701D01*
X188035000Y-100034000D02*
X186373299Y-100034000D01*
X189210000Y-101209000D02*
X188035000Y-100034000D01*
X184658000Y-98318701D02*
X184658000Y-93573600D01*
X176136000Y-92349996D02*
X176136000Y-91044000D01*
%TO.N,RESET*%
X170027600Y-102768400D02*
X166217600Y-98958400D01*
X166217600Y-98958400D02*
X166217600Y-95695000D01*
X179984400Y-102768400D02*
X170027600Y-102768400D01*
X180107200Y-102645600D02*
X179984400Y-102768400D01*
X180107200Y-101812100D02*
X180107200Y-102645600D01*
X166217600Y-95695000D02*
X166241200Y-95671400D01*
%TO.N,GND*%
X176416100Y-101803200D02*
X176407200Y-101812100D01*
X177393600Y-101803200D02*
X176416100Y-101803200D01*
X161564000Y-97708400D02*
X161594800Y-97739200D01*
X161564000Y-95671400D02*
X161564000Y-97708400D01*
%TO.N,RESET*%
X164104000Y-95671400D02*
X166241200Y-95671400D01*
X166241200Y-95671400D02*
X169113200Y-92799400D01*
%TO.N,GND*%
X170688000Y-95504000D02*
X170688000Y-94399400D01*
X173069200Y-98222400D02*
X172753200Y-98538400D01*
X174650400Y-98222400D02*
X173069200Y-98222400D01*
X172770800Y-98556000D02*
X172753200Y-98538400D01*
X172770800Y-99822000D02*
X172770800Y-98556000D01*
X168757600Y-97028000D02*
X168757600Y-95910400D01*
X170553200Y-95638800D02*
X170688000Y-95504000D01*
X170553200Y-96838400D02*
X170553200Y-95638800D01*
%TO.N,XTAL2*%
X170513600Y-98578000D02*
X170553200Y-98538400D01*
X168757600Y-98578000D02*
X170513600Y-98578000D01*
X172936000Y-95491200D02*
X172936000Y-91044000D01*
X171782000Y-95859600D02*
X172567600Y-95859600D01*
X172567600Y-95859600D02*
X172936000Y-95491200D01*
X170653200Y-98538400D02*
X171602400Y-97589200D01*
X171602400Y-97589200D02*
X171602400Y-96039200D01*
X170553200Y-98538400D02*
X170653200Y-98538400D01*
X171602400Y-96039200D02*
X171782000Y-95859600D01*
%TO.N,XTAL1*%
X174484400Y-96838400D02*
X174650400Y-96672400D01*
X172753200Y-96838400D02*
X174484400Y-96838400D01*
X173736000Y-92213692D02*
X173736000Y-91044000D01*
X174650400Y-93128092D02*
X173736000Y-92213692D01*
X174650400Y-96672400D02*
X174650400Y-93128092D01*
%TO.N,+5V*%
X169113200Y-94424200D02*
X170688000Y-92849400D01*
X169113200Y-94449400D02*
X169113200Y-94424200D01*
X171336000Y-92201400D02*
X171336000Y-91044000D01*
X170688000Y-92849400D02*
X171336000Y-92201400D01*
%TO.N,RESET*%
X169485183Y-92799400D02*
X169113200Y-92799400D01*
X170536000Y-91748583D02*
X169485183Y-92799400D01*
X170536000Y-91044000D02*
X170536000Y-91748583D01*
%TO.N,+5V*%
X195973400Y-92885100D02*
X194558500Y-94300000D01*
X195973400Y-92760800D02*
X195973400Y-92885100D01*
X180275800Y-88544000D02*
X181241400Y-89509600D01*
X179436000Y-88544000D02*
X180275800Y-88544000D01*
%TO.N,GND*%
X153088100Y-87680800D02*
X151841200Y-87680800D01*
%TO.N,Net-(D3-A)*%
X156616400Y-87680800D02*
X154963100Y-87680800D01*
%TO.N,+5V*%
X158138000Y-87377400D02*
X158441400Y-87680800D01*
X158138000Y-83915249D02*
X158138000Y-87377400D01*
X158741249Y-83312000D02*
X158138000Y-83915249D01*
X159125500Y-83312000D02*
X158741249Y-83312000D01*
X158093500Y-82664251D02*
X158741249Y-83312000D01*
X158093500Y-77724000D02*
X158093500Y-82664251D01*
X166050000Y-81468000D02*
X166116000Y-81534000D01*
X166050000Y-79502000D02*
X166050000Y-81468000D01*
X158093500Y-77724000D02*
X164272000Y-77724000D01*
X164272000Y-77724000D02*
X166050000Y-79502000D01*
%TO.N,GND*%
X163474400Y-81534000D02*
X164566000Y-81534000D01*
X182791400Y-89509600D02*
X183845200Y-89509600D01*
X182067200Y-98907600D02*
X182067200Y-99925500D01*
X172161200Y-91018800D02*
X172136000Y-91044000D01*
X184912000Y-101244400D02*
X186634600Y-101244400D01*
X151714000Y-84912000D02*
X151765000Y-84963000D01*
X163169600Y-79502000D02*
X164150000Y-79502000D01*
X194558500Y-95250000D02*
X195884800Y-95250000D01*
X156850500Y-83312000D02*
X155600400Y-83312000D01*
X172161200Y-89662000D02*
X172161200Y-91018800D01*
X169418000Y-84582000D02*
X168074000Y-84582000D01*
X163525200Y-85090000D02*
X164579000Y-85090000D01*
X177444400Y-75234800D02*
X177444400Y-76339400D01*
X183845200Y-89509600D02*
X183896000Y-89560400D01*
X194767200Y-92710000D02*
X193598800Y-92710000D01*
X150079000Y-84912000D02*
X151714000Y-84912000D01*
X163525200Y-86614000D02*
X164579000Y-86614000D01*
X198678800Y-92760800D02*
X197523400Y-92760800D01*
X168074000Y-84582000D02*
X168036000Y-84544000D01*
X195884800Y-95250000D02*
X195935600Y-95300800D01*
X182067200Y-94742000D02*
X182067200Y-95808800D01*
X186634600Y-101244400D02*
X186670000Y-101209000D01*
X192709200Y-98755200D02*
X191617600Y-98755200D01*
%TO.N,Net-(U5-BP)*%
X192048800Y-92710000D02*
X192048800Y-94065300D01*
X192048800Y-94065300D02*
X192283500Y-94300000D01*
%TO.N,+3.3V*%
X194259200Y-98755200D02*
X195122800Y-98755200D01*
X195376800Y-98501200D02*
X195376800Y-99364800D01*
X195376800Y-97536000D02*
X195376800Y-98501200D01*
X192283500Y-96200000D02*
X192364400Y-96200000D01*
X192283500Y-96200000D02*
X191821000Y-96200000D01*
X191679000Y-96200000D02*
X189210000Y-98669000D01*
X195376800Y-99364800D02*
X194310000Y-100431600D01*
X192212500Y-96129000D02*
X189210000Y-96129000D01*
X192283500Y-96200000D02*
X192212500Y-96129000D01*
X193700400Y-97536000D02*
X195376800Y-97536000D01*
X192283500Y-96200000D02*
X191679000Y-96200000D01*
X195122800Y-98755200D02*
X195376800Y-98501200D01*
X192364400Y-96200000D02*
X193700400Y-97536000D01*
X191821000Y-96200000D02*
X189210000Y-93589000D01*
%TO.N,+5V*%
X177444400Y-77889400D02*
X177736000Y-78181000D01*
X177736000Y-78181000D02*
X177736000Y-79644000D01*
X166599000Y-86144000D02*
X168036000Y-86144000D01*
X166129000Y-86614000D02*
X166599000Y-86144000D01*
X166116000Y-81534000D02*
X166726000Y-82144000D01*
X166726000Y-82144000D02*
X168036000Y-82144000D01*
%TO.N,Net-(J2-VBUS)*%
X151816000Y-81712000D02*
X151892000Y-81788000D01*
X151892000Y-79650500D02*
X153818500Y-77724000D01*
X150079000Y-81712000D02*
X151816000Y-81712000D01*
X151892000Y-81788000D02*
X151892000Y-79650500D01*
%TO.N,GREEN_LED*%
X181205500Y-87757000D02*
X179449000Y-87757000D01*
X179449000Y-87757000D02*
X179436000Y-87744000D01*
%TO.N,RED_LED*%
X181229000Y-82931000D02*
X179449000Y-82931000D01*
X179449000Y-82931000D02*
X179436000Y-82944000D01*
%TO.N,Net-(J2-D-)*%
X152883000Y-82512000D02*
X153099000Y-82296000D01*
X150079000Y-82512000D02*
X152883000Y-82512000D01*
D42*
%TO.N,USB_CONN_D+*%
X154749000Y-84074000D02*
X154937000Y-84262000D01*
X154937000Y-84262000D02*
X156850500Y-84262000D01*
%TO.N,USB_CONN_D-*%
X156784500Y-82296000D02*
X156850500Y-82362000D01*
X154749000Y-82296000D02*
X156784500Y-82296000D01*
D41*
%TO.N,Net-(J2-D+)*%
X150079000Y-83312000D02*
X152337000Y-83312000D01*
X152337000Y-83312000D02*
X153099000Y-84074000D01*
D42*
%TO.N,USB_D-*%
X160086000Y-82362000D02*
X160528000Y-82804000D01*
X159125500Y-82362000D02*
X160086000Y-82362000D01*
X166624000Y-82804000D02*
X166764000Y-82944000D01*
X160528000Y-82804000D02*
X166624000Y-82804000D01*
X166764000Y-82944000D02*
X168036000Y-82944000D01*
%TO.N,USB_D+*%
X159125500Y-84262000D02*
X160086000Y-84262000D01*
X160086000Y-84262000D02*
X160604000Y-83744000D01*
X160604000Y-83744000D02*
X168036000Y-83744000D01*
D41*
%TO.N,UCAP*%
X166383000Y-85344000D02*
X168036000Y-85344000D01*
X166129000Y-85090000D02*
X166383000Y-85344000D01*
%TO.N,Button_2*%
X174536000Y-92377296D02*
X174536000Y-91044000D01*
X180242504Y-98083800D02*
X174536000Y-92377296D01*
X182067200Y-101750500D02*
X180242504Y-99925804D01*
X180242504Y-99925804D02*
X180242504Y-98083800D01*
%TO.N,Button_1*%
X180428900Y-97633800D02*
X175336000Y-92540900D01*
X175336000Y-92540900D02*
X175336000Y-91044000D01*
X182067200Y-97633800D02*
X180428900Y-97633800D01*
%TO.N,RX*%
X176936000Y-92513600D02*
X176936000Y-91044000D01*
X186204600Y-93123600D02*
X177546000Y-93123600D01*
X177546000Y-93123600D02*
X176936000Y-92513600D01*
X186670000Y-93589000D02*
X186204600Y-93123600D01*
%TO.N,Net-(J3-Pin_5)*%
X187845000Y-97304000D02*
X186670000Y-96129000D01*
X191170200Y-99844000D02*
X188723299Y-99844000D01*
X188723299Y-99844000D02*
X187845000Y-98965701D01*
X187845000Y-98965701D02*
X187845000Y-97304000D01*
X191757800Y-100431600D02*
X191170200Y-99844000D01*
X192660000Y-100431600D02*
X191757800Y-100431600D01*
%TD*%
M02*
