%TF.GenerationSoftware,KiCad,Pcbnew,(7.0.0)*%
%TF.CreationDate,2023-05-03T17:51:17-06:00*%
%TF.ProjectId,Phase_B_Proto,50686173-655f-4425-9f50-726f746f2e6b,rev?*%
%TF.SameCoordinates,Original*%
%TF.FileFunction,Legend,Bot*%
%TF.FilePolarity,Positive*%
%FSLAX46Y46*%
G04 Gerber Fmt 4.6, Leading zero omitted, Abs format (unit mm)*
G04 Created by KiCad (PCBNEW (7.0.0)) date 2023-05-03 17:51:17*
%MOMM*%
%LPD*%
G01*
G04 APERTURE LIST*
%ADD10C,0.150000*%
G04 APERTURE END LIST*
D10*
X159781904Y-93609980D02*
X159781904Y-92609980D01*
X159781904Y-92609980D02*
X159448571Y-93324266D01*
X159448571Y-93324266D02*
X159115238Y-92609980D01*
X159115238Y-92609980D02*
X159115238Y-93609980D01*
X158448571Y-92609980D02*
X158258095Y-92609980D01*
X158258095Y-92609980D02*
X158162857Y-92657600D01*
X158162857Y-92657600D02*
X158067619Y-92752838D01*
X158067619Y-92752838D02*
X158020000Y-92943314D01*
X158020000Y-92943314D02*
X158020000Y-93276647D01*
X158020000Y-93276647D02*
X158067619Y-93467123D01*
X158067619Y-93467123D02*
X158162857Y-93562361D01*
X158162857Y-93562361D02*
X158258095Y-93609980D01*
X158258095Y-93609980D02*
X158448571Y-93609980D01*
X158448571Y-93609980D02*
X158543809Y-93562361D01*
X158543809Y-93562361D02*
X158639047Y-93467123D01*
X158639047Y-93467123D02*
X158686666Y-93276647D01*
X158686666Y-93276647D02*
X158686666Y-92943314D01*
X158686666Y-92943314D02*
X158639047Y-92752838D01*
X158639047Y-92752838D02*
X158543809Y-92657600D01*
X158543809Y-92657600D02*
X158448571Y-92609980D01*
X157639047Y-93562361D02*
X157496190Y-93609980D01*
X157496190Y-93609980D02*
X157258095Y-93609980D01*
X157258095Y-93609980D02*
X157162857Y-93562361D01*
X157162857Y-93562361D02*
X157115238Y-93514742D01*
X157115238Y-93514742D02*
X157067619Y-93419504D01*
X157067619Y-93419504D02*
X157067619Y-93324266D01*
X157067619Y-93324266D02*
X157115238Y-93229028D01*
X157115238Y-93229028D02*
X157162857Y-93181409D01*
X157162857Y-93181409D02*
X157258095Y-93133790D01*
X157258095Y-93133790D02*
X157448571Y-93086171D01*
X157448571Y-93086171D02*
X157543809Y-93038552D01*
X157543809Y-93038552D02*
X157591428Y-92990933D01*
X157591428Y-92990933D02*
X157639047Y-92895695D01*
X157639047Y-92895695D02*
X157639047Y-92800457D01*
X157639047Y-92800457D02*
X157591428Y-92705219D01*
X157591428Y-92705219D02*
X157543809Y-92657600D01*
X157543809Y-92657600D02*
X157448571Y-92609980D01*
X157448571Y-92609980D02*
X157210476Y-92609980D01*
X157210476Y-92609980D02*
X157067619Y-92657600D01*
X156639047Y-93609980D02*
X156639047Y-92609980D01*
X165255676Y-98334380D02*
X165589009Y-97858190D01*
X165827104Y-98334380D02*
X165827104Y-97334380D01*
X165827104Y-97334380D02*
X165446152Y-97334380D01*
X165446152Y-97334380D02*
X165350914Y-97382000D01*
X165350914Y-97382000D02*
X165303295Y-97429619D01*
X165303295Y-97429619D02*
X165255676Y-97524857D01*
X165255676Y-97524857D02*
X165255676Y-97667714D01*
X165255676Y-97667714D02*
X165303295Y-97762952D01*
X165303295Y-97762952D02*
X165350914Y-97810571D01*
X165350914Y-97810571D02*
X165446152Y-97858190D01*
X165446152Y-97858190D02*
X165827104Y-97858190D01*
X164827104Y-97810571D02*
X164493771Y-97810571D01*
X164350914Y-98334380D02*
X164827104Y-98334380D01*
X164827104Y-98334380D02*
X164827104Y-97334380D01*
X164827104Y-97334380D02*
X164350914Y-97334380D01*
X163969961Y-98286761D02*
X163827104Y-98334380D01*
X163827104Y-98334380D02*
X163589009Y-98334380D01*
X163589009Y-98334380D02*
X163493771Y-98286761D01*
X163493771Y-98286761D02*
X163446152Y-98239142D01*
X163446152Y-98239142D02*
X163398533Y-98143904D01*
X163398533Y-98143904D02*
X163398533Y-98048666D01*
X163398533Y-98048666D02*
X163446152Y-97953428D01*
X163446152Y-97953428D02*
X163493771Y-97905809D01*
X163493771Y-97905809D02*
X163589009Y-97858190D01*
X163589009Y-97858190D02*
X163779485Y-97810571D01*
X163779485Y-97810571D02*
X163874723Y-97762952D01*
X163874723Y-97762952D02*
X163922342Y-97715333D01*
X163922342Y-97715333D02*
X163969961Y-97620095D01*
X163969961Y-97620095D02*
X163969961Y-97524857D01*
X163969961Y-97524857D02*
X163922342Y-97429619D01*
X163922342Y-97429619D02*
X163874723Y-97382000D01*
X163874723Y-97382000D02*
X163779485Y-97334380D01*
X163779485Y-97334380D02*
X163541390Y-97334380D01*
X163541390Y-97334380D02*
X163398533Y-97382000D01*
X162969961Y-97810571D02*
X162636628Y-97810571D01*
X162493771Y-98334380D02*
X162969961Y-98334380D01*
X162969961Y-98334380D02*
X162969961Y-97334380D01*
X162969961Y-97334380D02*
X162493771Y-97334380D01*
X162208056Y-97334380D02*
X161636628Y-97334380D01*
X161922342Y-98334380D02*
X161922342Y-97334380D01*
X190150761Y-102973180D02*
X189579333Y-102973180D01*
X189865047Y-103973180D02*
X189865047Y-102973180D01*
X189341237Y-102973180D02*
X188674571Y-103973180D01*
X188674571Y-102973180D02*
X189341237Y-103973180D01*
X187045695Y-102919200D02*
X187140933Y-102871580D01*
X187140933Y-102871580D02*
X187283790Y-102871580D01*
X187283790Y-102871580D02*
X187426647Y-102919200D01*
X187426647Y-102919200D02*
X187521885Y-103014438D01*
X187521885Y-103014438D02*
X187569504Y-103109676D01*
X187569504Y-103109676D02*
X187617123Y-103300152D01*
X187617123Y-103300152D02*
X187617123Y-103443009D01*
X187617123Y-103443009D02*
X187569504Y-103633485D01*
X187569504Y-103633485D02*
X187521885Y-103728723D01*
X187521885Y-103728723D02*
X187426647Y-103823961D01*
X187426647Y-103823961D02*
X187283790Y-103871580D01*
X187283790Y-103871580D02*
X187188552Y-103871580D01*
X187188552Y-103871580D02*
X187045695Y-103823961D01*
X187045695Y-103823961D02*
X186998076Y-103776342D01*
X186998076Y-103776342D02*
X186998076Y-103443009D01*
X186998076Y-103443009D02*
X187188552Y-103443009D01*
X186569504Y-103871580D02*
X186569504Y-102871580D01*
X186569504Y-102871580D02*
X185998076Y-103871580D01*
X185998076Y-103871580D02*
X185998076Y-102871580D01*
X185521885Y-103871580D02*
X185521885Y-102871580D01*
X185521885Y-102871580D02*
X185283790Y-102871580D01*
X185283790Y-102871580D02*
X185140933Y-102919200D01*
X185140933Y-102919200D02*
X185045695Y-103014438D01*
X185045695Y-103014438D02*
X184998076Y-103109676D01*
X184998076Y-103109676D02*
X184950457Y-103300152D01*
X184950457Y-103300152D02*
X184950457Y-103443009D01*
X184950457Y-103443009D02*
X184998076Y-103633485D01*
X184998076Y-103633485D02*
X185045695Y-103728723D01*
X185045695Y-103728723D02*
X185140933Y-103823961D01*
X185140933Y-103823961D02*
X185283790Y-103871580D01*
X185283790Y-103871580D02*
X185521885Y-103871580D01*
X162169504Y-65031980D02*
X162169504Y-64031980D01*
X162169504Y-64031980D02*
X161598076Y-65031980D01*
X161598076Y-65031980D02*
X161598076Y-64031980D01*
X160979028Y-65031980D02*
X161074266Y-64984361D01*
X161074266Y-64984361D02*
X161121885Y-64936742D01*
X161121885Y-64936742D02*
X161169504Y-64841504D01*
X161169504Y-64841504D02*
X161169504Y-64555790D01*
X161169504Y-64555790D02*
X161121885Y-64460552D01*
X161121885Y-64460552D02*
X161074266Y-64412933D01*
X161074266Y-64412933D02*
X160979028Y-64365314D01*
X160979028Y-64365314D02*
X160836171Y-64365314D01*
X160836171Y-64365314D02*
X160740933Y-64412933D01*
X160740933Y-64412933D02*
X160693314Y-64460552D01*
X160693314Y-64460552D02*
X160645695Y-64555790D01*
X160645695Y-64555790D02*
X160645695Y-64841504D01*
X160645695Y-64841504D02*
X160693314Y-64936742D01*
X160693314Y-64936742D02*
X160740933Y-64984361D01*
X160740933Y-64984361D02*
X160836171Y-65031980D01*
X160836171Y-65031980D02*
X160979028Y-65031980D01*
X160359980Y-64365314D02*
X159979028Y-64365314D01*
X160217123Y-64031980D02*
X160217123Y-64889123D01*
X160217123Y-64889123D02*
X160169504Y-64984361D01*
X160169504Y-64984361D02*
X160074266Y-65031980D01*
X160074266Y-65031980D02*
X159979028Y-65031980D01*
X159264742Y-64984361D02*
X159359980Y-65031980D01*
X159359980Y-65031980D02*
X159550456Y-65031980D01*
X159550456Y-65031980D02*
X159645694Y-64984361D01*
X159645694Y-64984361D02*
X159693313Y-64889123D01*
X159693313Y-64889123D02*
X159693313Y-64508171D01*
X159693313Y-64508171D02*
X159645694Y-64412933D01*
X159645694Y-64412933D02*
X159550456Y-64365314D01*
X159550456Y-64365314D02*
X159359980Y-64365314D01*
X159359980Y-64365314D02*
X159264742Y-64412933D01*
X159264742Y-64412933D02*
X159217123Y-64508171D01*
X159217123Y-64508171D02*
X159217123Y-64603409D01*
X159217123Y-64603409D02*
X159693313Y-64698647D01*
X158836170Y-64984361D02*
X158740932Y-65031980D01*
X158740932Y-65031980D02*
X158550456Y-65031980D01*
X158550456Y-65031980D02*
X158455218Y-64984361D01*
X158455218Y-64984361D02*
X158407599Y-64889123D01*
X158407599Y-64889123D02*
X158407599Y-64841504D01*
X158407599Y-64841504D02*
X158455218Y-64746266D01*
X158455218Y-64746266D02*
X158550456Y-64698647D01*
X158550456Y-64698647D02*
X158693313Y-64698647D01*
X158693313Y-64698647D02*
X158788551Y-64651028D01*
X158788551Y-64651028D02*
X158836170Y-64555790D01*
X158836170Y-64555790D02*
X158836170Y-64508171D01*
X158836170Y-64508171D02*
X158788551Y-64412933D01*
X158788551Y-64412933D02*
X158693313Y-64365314D01*
X158693313Y-64365314D02*
X158550456Y-64365314D01*
X158550456Y-64365314D02*
X158455218Y-64412933D01*
X157979027Y-64936742D02*
X157931408Y-64984361D01*
X157931408Y-64984361D02*
X157979027Y-65031980D01*
X157979027Y-65031980D02*
X158026646Y-64984361D01*
X158026646Y-64984361D02*
X157979027Y-64936742D01*
X157979027Y-64936742D02*
X157979027Y-65031980D01*
X157979027Y-64412933D02*
X157931408Y-64460552D01*
X157931408Y-64460552D02*
X157979027Y-64508171D01*
X157979027Y-64508171D02*
X158026646Y-64460552D01*
X158026646Y-64460552D02*
X157979027Y-64412933D01*
X157979027Y-64412933D02*
X157979027Y-64508171D01*
X161598076Y-66651980D02*
X161931409Y-66175790D01*
X162169504Y-66651980D02*
X162169504Y-65651980D01*
X162169504Y-65651980D02*
X161788552Y-65651980D01*
X161788552Y-65651980D02*
X161693314Y-65699600D01*
X161693314Y-65699600D02*
X161645695Y-65747219D01*
X161645695Y-65747219D02*
X161598076Y-65842457D01*
X161598076Y-65842457D02*
X161598076Y-65985314D01*
X161598076Y-65985314D02*
X161645695Y-66080552D01*
X161645695Y-66080552D02*
X161693314Y-66128171D01*
X161693314Y-66128171D02*
X161788552Y-66175790D01*
X161788552Y-66175790D02*
X162169504Y-66175790D01*
X161169504Y-66128171D02*
X160836171Y-66128171D01*
X160693314Y-66651980D02*
X161169504Y-66651980D01*
X161169504Y-66651980D02*
X161169504Y-65651980D01*
X161169504Y-65651980D02*
X160693314Y-65651980D01*
X160264742Y-66651980D02*
X160264742Y-65651980D01*
X160264742Y-65651980D02*
X160026647Y-65651980D01*
X160026647Y-65651980D02*
X159883790Y-65699600D01*
X159883790Y-65699600D02*
X159788552Y-65794838D01*
X159788552Y-65794838D02*
X159740933Y-65890076D01*
X159740933Y-65890076D02*
X159693314Y-66080552D01*
X159693314Y-66080552D02*
X159693314Y-66223409D01*
X159693314Y-66223409D02*
X159740933Y-66413885D01*
X159740933Y-66413885D02*
X159788552Y-66509123D01*
X159788552Y-66509123D02*
X159883790Y-66604361D01*
X159883790Y-66604361D02*
X160026647Y-66651980D01*
X160026647Y-66651980D02*
X160264742Y-66651980D01*
X158365695Y-65699600D02*
X158460933Y-65651980D01*
X158460933Y-65651980D02*
X158603790Y-65651980D01*
X158603790Y-65651980D02*
X158746647Y-65699600D01*
X158746647Y-65699600D02*
X158841885Y-65794838D01*
X158841885Y-65794838D02*
X158889504Y-65890076D01*
X158889504Y-65890076D02*
X158937123Y-66080552D01*
X158937123Y-66080552D02*
X158937123Y-66223409D01*
X158937123Y-66223409D02*
X158889504Y-66413885D01*
X158889504Y-66413885D02*
X158841885Y-66509123D01*
X158841885Y-66509123D02*
X158746647Y-66604361D01*
X158746647Y-66604361D02*
X158603790Y-66651980D01*
X158603790Y-66651980D02*
X158508552Y-66651980D01*
X158508552Y-66651980D02*
X158365695Y-66604361D01*
X158365695Y-66604361D02*
X158318076Y-66556742D01*
X158318076Y-66556742D02*
X158318076Y-66223409D01*
X158318076Y-66223409D02*
X158508552Y-66223409D01*
X157318076Y-66651980D02*
X157651409Y-66175790D01*
X157889504Y-66651980D02*
X157889504Y-65651980D01*
X157889504Y-65651980D02*
X157508552Y-65651980D01*
X157508552Y-65651980D02*
X157413314Y-65699600D01*
X157413314Y-65699600D02*
X157365695Y-65747219D01*
X157365695Y-65747219D02*
X157318076Y-65842457D01*
X157318076Y-65842457D02*
X157318076Y-65985314D01*
X157318076Y-65985314D02*
X157365695Y-66080552D01*
X157365695Y-66080552D02*
X157413314Y-66128171D01*
X157413314Y-66128171D02*
X157508552Y-66175790D01*
X157508552Y-66175790D02*
X157889504Y-66175790D01*
X156889504Y-66128171D02*
X156556171Y-66128171D01*
X156413314Y-66651980D02*
X156889504Y-66651980D01*
X156889504Y-66651980D02*
X156889504Y-65651980D01*
X156889504Y-65651980D02*
X156413314Y-65651980D01*
X155984742Y-66128171D02*
X155651409Y-66128171D01*
X155508552Y-66651980D02*
X155984742Y-66651980D01*
X155984742Y-66651980D02*
X155984742Y-65651980D01*
X155984742Y-65651980D02*
X155508552Y-65651980D01*
X155079980Y-66651980D02*
X155079980Y-65651980D01*
X155079980Y-65651980D02*
X154508552Y-66651980D01*
X154508552Y-66651980D02*
X154508552Y-65651980D01*
X161979028Y-67271980D02*
X161883790Y-67271980D01*
X161883790Y-67271980D02*
X161788552Y-67319600D01*
X161788552Y-67319600D02*
X161740933Y-67367219D01*
X161740933Y-67367219D02*
X161693314Y-67462457D01*
X161693314Y-67462457D02*
X161645695Y-67652933D01*
X161645695Y-67652933D02*
X161645695Y-67891028D01*
X161645695Y-67891028D02*
X161693314Y-68081504D01*
X161693314Y-68081504D02*
X161740933Y-68176742D01*
X161740933Y-68176742D02*
X161788552Y-68224361D01*
X161788552Y-68224361D02*
X161883790Y-68271980D01*
X161883790Y-68271980D02*
X161979028Y-68271980D01*
X161979028Y-68271980D02*
X162074266Y-68224361D01*
X162074266Y-68224361D02*
X162121885Y-68176742D01*
X162121885Y-68176742D02*
X162169504Y-68081504D01*
X162169504Y-68081504D02*
X162217123Y-67891028D01*
X162217123Y-67891028D02*
X162217123Y-67652933D01*
X162217123Y-67652933D02*
X162169504Y-67462457D01*
X162169504Y-67462457D02*
X162121885Y-67367219D01*
X162121885Y-67367219D02*
X162074266Y-67319600D01*
X162074266Y-67319600D02*
X161979028Y-67271980D01*
X160379028Y-68605314D02*
X160379028Y-67176742D01*
X158365695Y-68271980D02*
X158937123Y-68271980D01*
X158651409Y-68271980D02*
X158651409Y-67271980D01*
X158651409Y-67271980D02*
X158746647Y-67414838D01*
X158746647Y-67414838D02*
X158841885Y-67510076D01*
X158841885Y-67510076D02*
X158937123Y-67557695D01*
X155609504Y-67891028D02*
X154847600Y-67891028D01*
X154371409Y-67605314D02*
X153609505Y-67891028D01*
X153609505Y-67891028D02*
X154371409Y-68176742D01*
X151961886Y-68271980D02*
X152295219Y-67795790D01*
X152533314Y-68271980D02*
X152533314Y-67271980D01*
X152533314Y-67271980D02*
X152152362Y-67271980D01*
X152152362Y-67271980D02*
X152057124Y-67319600D01*
X152057124Y-67319600D02*
X152009505Y-67367219D01*
X152009505Y-67367219D02*
X151961886Y-67462457D01*
X151961886Y-67462457D02*
X151961886Y-67605314D01*
X151961886Y-67605314D02*
X152009505Y-67700552D01*
X152009505Y-67700552D02*
X152057124Y-67748171D01*
X152057124Y-67748171D02*
X152152362Y-67795790D01*
X152152362Y-67795790D02*
X152533314Y-67795790D01*
X151104743Y-67605314D02*
X151104743Y-68271980D01*
X151533314Y-67605314D02*
X151533314Y-68129123D01*
X151533314Y-68129123D02*
X151485695Y-68224361D01*
X151485695Y-68224361D02*
X151390457Y-68271980D01*
X151390457Y-68271980D02*
X151247600Y-68271980D01*
X151247600Y-68271980D02*
X151152362Y-68224361D01*
X151152362Y-68224361D02*
X151104743Y-68176742D01*
X150628552Y-67605314D02*
X150628552Y-68271980D01*
X150628552Y-67700552D02*
X150580933Y-67652933D01*
X150580933Y-67652933D02*
X150485695Y-67605314D01*
X150485695Y-67605314D02*
X150342838Y-67605314D01*
X150342838Y-67605314D02*
X150247600Y-67652933D01*
X150247600Y-67652933D02*
X150199981Y-67748171D01*
X150199981Y-67748171D02*
X150199981Y-68271980D01*
X149723790Y-67605314D02*
X149723790Y-68271980D01*
X149723790Y-67700552D02*
X149676171Y-67652933D01*
X149676171Y-67652933D02*
X149580933Y-67605314D01*
X149580933Y-67605314D02*
X149438076Y-67605314D01*
X149438076Y-67605314D02*
X149342838Y-67652933D01*
X149342838Y-67652933D02*
X149295219Y-67748171D01*
X149295219Y-67748171D02*
X149295219Y-68271980D01*
X148819028Y-68271980D02*
X148819028Y-67605314D01*
X148819028Y-67271980D02*
X148866647Y-67319600D01*
X148866647Y-67319600D02*
X148819028Y-67367219D01*
X148819028Y-67367219D02*
X148771409Y-67319600D01*
X148771409Y-67319600D02*
X148819028Y-67271980D01*
X148819028Y-67271980D02*
X148819028Y-67367219D01*
X148342838Y-67605314D02*
X148342838Y-68271980D01*
X148342838Y-67700552D02*
X148295219Y-67652933D01*
X148295219Y-67652933D02*
X148199981Y-67605314D01*
X148199981Y-67605314D02*
X148057124Y-67605314D01*
X148057124Y-67605314D02*
X147961886Y-67652933D01*
X147961886Y-67652933D02*
X147914267Y-67748171D01*
X147914267Y-67748171D02*
X147914267Y-68271980D01*
X147009505Y-67605314D02*
X147009505Y-68414838D01*
X147009505Y-68414838D02*
X147057124Y-68510076D01*
X147057124Y-68510076D02*
X147104743Y-68557695D01*
X147104743Y-68557695D02*
X147199981Y-68605314D01*
X147199981Y-68605314D02*
X147342838Y-68605314D01*
X147342838Y-68605314D02*
X147438076Y-68557695D01*
X147009505Y-68224361D02*
X147104743Y-68271980D01*
X147104743Y-68271980D02*
X147295219Y-68271980D01*
X147295219Y-68271980D02*
X147390457Y-68224361D01*
X147390457Y-68224361D02*
X147438076Y-68176742D01*
X147438076Y-68176742D02*
X147485695Y-68081504D01*
X147485695Y-68081504D02*
X147485695Y-67795790D01*
X147485695Y-67795790D02*
X147438076Y-67700552D01*
X147438076Y-67700552D02*
X147390457Y-67652933D01*
X147390457Y-67652933D02*
X147295219Y-67605314D01*
X147295219Y-67605314D02*
X147104743Y-67605314D01*
X147104743Y-67605314D02*
X147009505Y-67652933D01*
X161645695Y-69891980D02*
X162217123Y-69891980D01*
X161931409Y-69891980D02*
X161931409Y-68891980D01*
X161931409Y-68891980D02*
X162026647Y-69034838D01*
X162026647Y-69034838D02*
X162121885Y-69130076D01*
X162121885Y-69130076D02*
X162217123Y-69177695D01*
X160379028Y-70225314D02*
X160379028Y-68796742D01*
X158699028Y-68891980D02*
X158603790Y-68891980D01*
X158603790Y-68891980D02*
X158508552Y-68939600D01*
X158508552Y-68939600D02*
X158460933Y-68987219D01*
X158460933Y-68987219D02*
X158413314Y-69082457D01*
X158413314Y-69082457D02*
X158365695Y-69272933D01*
X158365695Y-69272933D02*
X158365695Y-69511028D01*
X158365695Y-69511028D02*
X158413314Y-69701504D01*
X158413314Y-69701504D02*
X158460933Y-69796742D01*
X158460933Y-69796742D02*
X158508552Y-69844361D01*
X158508552Y-69844361D02*
X158603790Y-69891980D01*
X158603790Y-69891980D02*
X158699028Y-69891980D01*
X158699028Y-69891980D02*
X158794266Y-69844361D01*
X158794266Y-69844361D02*
X158841885Y-69796742D01*
X158841885Y-69796742D02*
X158889504Y-69701504D01*
X158889504Y-69701504D02*
X158937123Y-69511028D01*
X158937123Y-69511028D02*
X158937123Y-69272933D01*
X158937123Y-69272933D02*
X158889504Y-69082457D01*
X158889504Y-69082457D02*
X158841885Y-68987219D01*
X158841885Y-68987219D02*
X158794266Y-68939600D01*
X158794266Y-68939600D02*
X158699028Y-68891980D01*
X155609504Y-69511028D02*
X154847600Y-69511028D01*
X154371409Y-69225314D02*
X153609505Y-69511028D01*
X153609505Y-69511028D02*
X154371409Y-69796742D01*
X152580933Y-69606266D02*
X152104743Y-69606266D01*
X152676171Y-69891980D02*
X152342838Y-68891980D01*
X152342838Y-68891980D02*
X152009505Y-69891980D01*
X151533314Y-69891980D02*
X151628552Y-69844361D01*
X151628552Y-69844361D02*
X151676171Y-69749123D01*
X151676171Y-69749123D02*
X151676171Y-68891980D01*
X150723790Y-69891980D02*
X150723790Y-69368171D01*
X150723790Y-69368171D02*
X150771409Y-69272933D01*
X150771409Y-69272933D02*
X150866647Y-69225314D01*
X150866647Y-69225314D02*
X151057123Y-69225314D01*
X151057123Y-69225314D02*
X151152361Y-69272933D01*
X150723790Y-69844361D02*
X150819028Y-69891980D01*
X150819028Y-69891980D02*
X151057123Y-69891980D01*
X151057123Y-69891980D02*
X151152361Y-69844361D01*
X151152361Y-69844361D02*
X151199980Y-69749123D01*
X151199980Y-69749123D02*
X151199980Y-69653885D01*
X151199980Y-69653885D02*
X151152361Y-69558647D01*
X151152361Y-69558647D02*
X151057123Y-69511028D01*
X151057123Y-69511028D02*
X150819028Y-69511028D01*
X150819028Y-69511028D02*
X150723790Y-69463409D01*
X150247599Y-69891980D02*
X150247599Y-69225314D01*
X150247599Y-69415790D02*
X150199980Y-69320552D01*
X150199980Y-69320552D02*
X150152361Y-69272933D01*
X150152361Y-69272933D02*
X150057123Y-69225314D01*
X150057123Y-69225314D02*
X149961885Y-69225314D01*
X149628551Y-69891980D02*
X149628551Y-69225314D01*
X149628551Y-69320552D02*
X149580932Y-69272933D01*
X149580932Y-69272933D02*
X149485694Y-69225314D01*
X149485694Y-69225314D02*
X149342837Y-69225314D01*
X149342837Y-69225314D02*
X149247599Y-69272933D01*
X149247599Y-69272933D02*
X149199980Y-69368171D01*
X149199980Y-69368171D02*
X149199980Y-69891980D01*
X149199980Y-69368171D02*
X149152361Y-69272933D01*
X149152361Y-69272933D02*
X149057123Y-69225314D01*
X149057123Y-69225314D02*
X148914266Y-69225314D01*
X148914266Y-69225314D02*
X148819027Y-69272933D01*
X148819027Y-69272933D02*
X148771408Y-69368171D01*
X148771408Y-69368171D02*
X148771408Y-69891980D01*
X161645695Y-71511980D02*
X162217123Y-71511980D01*
X161931409Y-71511980D02*
X161931409Y-70511980D01*
X161931409Y-70511980D02*
X162026647Y-70654838D01*
X162026647Y-70654838D02*
X162121885Y-70750076D01*
X162121885Y-70750076D02*
X162217123Y-70797695D01*
X160379028Y-71845314D02*
X160379028Y-70416742D01*
X158365695Y-71511980D02*
X158937123Y-71511980D01*
X158651409Y-71511980D02*
X158651409Y-70511980D01*
X158651409Y-70511980D02*
X158746647Y-70654838D01*
X158746647Y-70654838D02*
X158841885Y-70750076D01*
X158841885Y-70750076D02*
X158937123Y-70797695D01*
X155609504Y-71131028D02*
X154847600Y-71131028D01*
X154371409Y-70845314D02*
X153609505Y-71131028D01*
X153609505Y-71131028D02*
X154371409Y-71416742D01*
X152580933Y-71464361D02*
X152438076Y-71511980D01*
X152438076Y-71511980D02*
X152199981Y-71511980D01*
X152199981Y-71511980D02*
X152104743Y-71464361D01*
X152104743Y-71464361D02*
X152057124Y-71416742D01*
X152057124Y-71416742D02*
X152009505Y-71321504D01*
X152009505Y-71321504D02*
X152009505Y-71226266D01*
X152009505Y-71226266D02*
X152057124Y-71131028D01*
X152057124Y-71131028D02*
X152104743Y-71083409D01*
X152104743Y-71083409D02*
X152199981Y-71035790D01*
X152199981Y-71035790D02*
X152390457Y-70988171D01*
X152390457Y-70988171D02*
X152485695Y-70940552D01*
X152485695Y-70940552D02*
X152533314Y-70892933D01*
X152533314Y-70892933D02*
X152580933Y-70797695D01*
X152580933Y-70797695D02*
X152580933Y-70702457D01*
X152580933Y-70702457D02*
X152533314Y-70607219D01*
X152533314Y-70607219D02*
X152485695Y-70559600D01*
X152485695Y-70559600D02*
X152390457Y-70511980D01*
X152390457Y-70511980D02*
X152152362Y-70511980D01*
X152152362Y-70511980D02*
X152009505Y-70559600D01*
X151723790Y-70845314D02*
X151342838Y-70845314D01*
X151580933Y-70511980D02*
X151580933Y-71369123D01*
X151580933Y-71369123D02*
X151533314Y-71464361D01*
X151533314Y-71464361D02*
X151438076Y-71511980D01*
X151438076Y-71511980D02*
X151342838Y-71511980D01*
X150866647Y-71511980D02*
X150961885Y-71464361D01*
X150961885Y-71464361D02*
X151009504Y-71416742D01*
X151009504Y-71416742D02*
X151057123Y-71321504D01*
X151057123Y-71321504D02*
X151057123Y-71035790D01*
X151057123Y-71035790D02*
X151009504Y-70940552D01*
X151009504Y-70940552D02*
X150961885Y-70892933D01*
X150961885Y-70892933D02*
X150866647Y-70845314D01*
X150866647Y-70845314D02*
X150723790Y-70845314D01*
X150723790Y-70845314D02*
X150628552Y-70892933D01*
X150628552Y-70892933D02*
X150580933Y-70940552D01*
X150580933Y-70940552D02*
X150533314Y-71035790D01*
X150533314Y-71035790D02*
X150533314Y-71321504D01*
X150533314Y-71321504D02*
X150580933Y-71416742D01*
X150580933Y-71416742D02*
X150628552Y-71464361D01*
X150628552Y-71464361D02*
X150723790Y-71511980D01*
X150723790Y-71511980D02*
X150866647Y-71511980D01*
X150104742Y-70845314D02*
X150104742Y-71845314D01*
X150104742Y-70892933D02*
X150009504Y-70845314D01*
X150009504Y-70845314D02*
X149819028Y-70845314D01*
X149819028Y-70845314D02*
X149723790Y-70892933D01*
X149723790Y-70892933D02*
X149676171Y-70940552D01*
X149676171Y-70940552D02*
X149628552Y-71035790D01*
X149628552Y-71035790D02*
X149628552Y-71321504D01*
X149628552Y-71321504D02*
X149676171Y-71416742D01*
X149676171Y-71416742D02*
X149723790Y-71464361D01*
X149723790Y-71464361D02*
X149819028Y-71511980D01*
X149819028Y-71511980D02*
X150009504Y-71511980D01*
X150009504Y-71511980D02*
X150104742Y-71464361D01*
X149199980Y-70845314D02*
X149199980Y-71845314D01*
X149199980Y-70892933D02*
X149104742Y-70845314D01*
X149104742Y-70845314D02*
X148914266Y-70845314D01*
X148914266Y-70845314D02*
X148819028Y-70892933D01*
X148819028Y-70892933D02*
X148771409Y-70940552D01*
X148771409Y-70940552D02*
X148723790Y-71035790D01*
X148723790Y-71035790D02*
X148723790Y-71321504D01*
X148723790Y-71321504D02*
X148771409Y-71416742D01*
X148771409Y-71416742D02*
X148819028Y-71464361D01*
X148819028Y-71464361D02*
X148914266Y-71511980D01*
X148914266Y-71511980D02*
X149104742Y-71511980D01*
X149104742Y-71511980D02*
X149199980Y-71464361D01*
X147914266Y-71464361D02*
X148009504Y-71511980D01*
X148009504Y-71511980D02*
X148199980Y-71511980D01*
X148199980Y-71511980D02*
X148295218Y-71464361D01*
X148295218Y-71464361D02*
X148342837Y-71369123D01*
X148342837Y-71369123D02*
X148342837Y-70988171D01*
X148342837Y-70988171D02*
X148295218Y-70892933D01*
X148295218Y-70892933D02*
X148199980Y-70845314D01*
X148199980Y-70845314D02*
X148009504Y-70845314D01*
X148009504Y-70845314D02*
X147914266Y-70892933D01*
X147914266Y-70892933D02*
X147866647Y-70988171D01*
X147866647Y-70988171D02*
X147866647Y-71083409D01*
X147866647Y-71083409D02*
X148342837Y-71178647D01*
X147438075Y-71511980D02*
X147438075Y-70845314D01*
X147438075Y-71035790D02*
X147390456Y-70940552D01*
X147390456Y-70940552D02*
X147342837Y-70892933D01*
X147342837Y-70892933D02*
X147247599Y-70845314D01*
X147247599Y-70845314D02*
X147152361Y-70845314D01*
X161915504Y-61640971D02*
X161582171Y-61640971D01*
X161439314Y-62164780D02*
X161915504Y-62164780D01*
X161915504Y-62164780D02*
X161915504Y-61164780D01*
X161915504Y-61164780D02*
X161439314Y-61164780D01*
X161105980Y-61498114D02*
X160867885Y-62164780D01*
X160867885Y-62164780D02*
X160629790Y-61498114D01*
X159820266Y-62164780D02*
X159820266Y-61640971D01*
X159820266Y-61640971D02*
X159867885Y-61545733D01*
X159867885Y-61545733D02*
X159963123Y-61498114D01*
X159963123Y-61498114D02*
X160153599Y-61498114D01*
X160153599Y-61498114D02*
X160248837Y-61545733D01*
X159820266Y-62117161D02*
X159915504Y-62164780D01*
X159915504Y-62164780D02*
X160153599Y-62164780D01*
X160153599Y-62164780D02*
X160248837Y-62117161D01*
X160248837Y-62117161D02*
X160296456Y-62021923D01*
X160296456Y-62021923D02*
X160296456Y-61926685D01*
X160296456Y-61926685D02*
X160248837Y-61831447D01*
X160248837Y-61831447D02*
X160153599Y-61783828D01*
X160153599Y-61783828D02*
X159915504Y-61783828D01*
X159915504Y-61783828D02*
X159820266Y-61736209D01*
X159344075Y-61498114D02*
X159344075Y-62164780D01*
X159344075Y-61593352D02*
X159296456Y-61545733D01*
X159296456Y-61545733D02*
X159201218Y-61498114D01*
X159201218Y-61498114D02*
X159058361Y-61498114D01*
X159058361Y-61498114D02*
X158963123Y-61545733D01*
X158963123Y-61545733D02*
X158915504Y-61640971D01*
X158915504Y-61640971D02*
X158915504Y-62164780D01*
X157839313Y-62164780D02*
X157839313Y-61164780D01*
X157839313Y-61640971D02*
X157267885Y-61640971D01*
X157267885Y-62164780D02*
X157267885Y-61164780D01*
X156791694Y-62164780D02*
X156791694Y-61498114D01*
X156791694Y-61164780D02*
X156839313Y-61212400D01*
X156839313Y-61212400D02*
X156791694Y-61260019D01*
X156791694Y-61260019D02*
X156744075Y-61212400D01*
X156744075Y-61212400D02*
X156791694Y-61164780D01*
X156791694Y-61164780D02*
X156791694Y-61260019D01*
X156172647Y-62164780D02*
X156267885Y-62117161D01*
X156267885Y-62117161D02*
X156315504Y-62021923D01*
X156315504Y-62021923D02*
X156315504Y-61164780D01*
X155648837Y-62164780D02*
X155744075Y-62117161D01*
X155744075Y-62117161D02*
X155791694Y-62021923D01*
X155791694Y-62021923D02*
X155791694Y-61164780D01*
X162067904Y-60116971D02*
X161734571Y-60116971D01*
X161591714Y-60640780D02*
X162067904Y-60640780D01*
X162067904Y-60640780D02*
X162067904Y-59640780D01*
X162067904Y-59640780D02*
X161591714Y-59640780D01*
X161163142Y-60640780D02*
X161163142Y-59974114D01*
X161163142Y-60069352D02*
X161115523Y-60021733D01*
X161115523Y-60021733D02*
X161020285Y-59974114D01*
X161020285Y-59974114D02*
X160877428Y-59974114D01*
X160877428Y-59974114D02*
X160782190Y-60021733D01*
X160782190Y-60021733D02*
X160734571Y-60116971D01*
X160734571Y-60116971D02*
X160734571Y-60640780D01*
X160734571Y-60116971D02*
X160686952Y-60021733D01*
X160686952Y-60021733D02*
X160591714Y-59974114D01*
X160591714Y-59974114D02*
X160448857Y-59974114D01*
X160448857Y-59974114D02*
X160353618Y-60021733D01*
X160353618Y-60021733D02*
X160305999Y-60116971D01*
X160305999Y-60116971D02*
X160305999Y-60640780D01*
X159829809Y-60640780D02*
X159829809Y-59640780D01*
X159829809Y-60021733D02*
X159734571Y-59974114D01*
X159734571Y-59974114D02*
X159544095Y-59974114D01*
X159544095Y-59974114D02*
X159448857Y-60021733D01*
X159448857Y-60021733D02*
X159401238Y-60069352D01*
X159401238Y-60069352D02*
X159353619Y-60164590D01*
X159353619Y-60164590D02*
X159353619Y-60450304D01*
X159353619Y-60450304D02*
X159401238Y-60545542D01*
X159401238Y-60545542D02*
X159448857Y-60593161D01*
X159448857Y-60593161D02*
X159544095Y-60640780D01*
X159544095Y-60640780D02*
X159734571Y-60640780D01*
X159734571Y-60640780D02*
X159829809Y-60593161D01*
X158544095Y-60593161D02*
X158639333Y-60640780D01*
X158639333Y-60640780D02*
X158829809Y-60640780D01*
X158829809Y-60640780D02*
X158925047Y-60593161D01*
X158925047Y-60593161D02*
X158972666Y-60497923D01*
X158972666Y-60497923D02*
X158972666Y-60116971D01*
X158972666Y-60116971D02*
X158925047Y-60021733D01*
X158925047Y-60021733D02*
X158829809Y-59974114D01*
X158829809Y-59974114D02*
X158639333Y-59974114D01*
X158639333Y-59974114D02*
X158544095Y-60021733D01*
X158544095Y-60021733D02*
X158496476Y-60116971D01*
X158496476Y-60116971D02*
X158496476Y-60212209D01*
X158496476Y-60212209D02*
X158972666Y-60307447D01*
X157639333Y-60640780D02*
X157639333Y-59640780D01*
X157639333Y-60593161D02*
X157734571Y-60640780D01*
X157734571Y-60640780D02*
X157925047Y-60640780D01*
X157925047Y-60640780D02*
X158020285Y-60593161D01*
X158020285Y-60593161D02*
X158067904Y-60545542D01*
X158067904Y-60545542D02*
X158115523Y-60450304D01*
X158115523Y-60450304D02*
X158115523Y-60164590D01*
X158115523Y-60164590D02*
X158067904Y-60069352D01*
X158067904Y-60069352D02*
X158020285Y-60021733D01*
X158020285Y-60021733D02*
X157925047Y-59974114D01*
X157925047Y-59974114D02*
X157734571Y-59974114D01*
X157734571Y-59974114D02*
X157639333Y-60021733D01*
X156734571Y-60640780D02*
X156734571Y-59640780D01*
X156734571Y-60593161D02*
X156829809Y-60640780D01*
X156829809Y-60640780D02*
X157020285Y-60640780D01*
X157020285Y-60640780D02*
X157115523Y-60593161D01*
X157115523Y-60593161D02*
X157163142Y-60545542D01*
X157163142Y-60545542D02*
X157210761Y-60450304D01*
X157210761Y-60450304D02*
X157210761Y-60164590D01*
X157210761Y-60164590D02*
X157163142Y-60069352D01*
X157163142Y-60069352D02*
X157115523Y-60021733D01*
X157115523Y-60021733D02*
X157020285Y-59974114D01*
X157020285Y-59974114D02*
X156829809Y-59974114D01*
X156829809Y-59974114D02*
X156734571Y-60021733D01*
X155877428Y-60593161D02*
X155972666Y-60640780D01*
X155972666Y-60640780D02*
X156163142Y-60640780D01*
X156163142Y-60640780D02*
X156258380Y-60593161D01*
X156258380Y-60593161D02*
X156305999Y-60497923D01*
X156305999Y-60497923D02*
X156305999Y-60116971D01*
X156305999Y-60116971D02*
X156258380Y-60021733D01*
X156258380Y-60021733D02*
X156163142Y-59974114D01*
X156163142Y-59974114D02*
X155972666Y-59974114D01*
X155972666Y-59974114D02*
X155877428Y-60021733D01*
X155877428Y-60021733D02*
X155829809Y-60116971D01*
X155829809Y-60116971D02*
X155829809Y-60212209D01*
X155829809Y-60212209D02*
X156305999Y-60307447D01*
X154972666Y-60640780D02*
X154972666Y-59640780D01*
X154972666Y-60593161D02*
X155067904Y-60640780D01*
X155067904Y-60640780D02*
X155258380Y-60640780D01*
X155258380Y-60640780D02*
X155353618Y-60593161D01*
X155353618Y-60593161D02*
X155401237Y-60545542D01*
X155401237Y-60545542D02*
X155448856Y-60450304D01*
X155448856Y-60450304D02*
X155448856Y-60164590D01*
X155448856Y-60164590D02*
X155401237Y-60069352D01*
X155401237Y-60069352D02*
X155353618Y-60021733D01*
X155353618Y-60021733D02*
X155258380Y-59974114D01*
X155258380Y-59974114D02*
X155067904Y-59974114D01*
X155067904Y-59974114D02*
X154972666Y-60021733D01*
X153944094Y-60593161D02*
X153801237Y-60640780D01*
X153801237Y-60640780D02*
X153563142Y-60640780D01*
X153563142Y-60640780D02*
X153467904Y-60593161D01*
X153467904Y-60593161D02*
X153420285Y-60545542D01*
X153420285Y-60545542D02*
X153372666Y-60450304D01*
X153372666Y-60450304D02*
X153372666Y-60355066D01*
X153372666Y-60355066D02*
X153420285Y-60259828D01*
X153420285Y-60259828D02*
X153467904Y-60212209D01*
X153467904Y-60212209D02*
X153563142Y-60164590D01*
X153563142Y-60164590D02*
X153753618Y-60116971D01*
X153753618Y-60116971D02*
X153848856Y-60069352D01*
X153848856Y-60069352D02*
X153896475Y-60021733D01*
X153896475Y-60021733D02*
X153944094Y-59926495D01*
X153944094Y-59926495D02*
X153944094Y-59831257D01*
X153944094Y-59831257D02*
X153896475Y-59736019D01*
X153896475Y-59736019D02*
X153848856Y-59688400D01*
X153848856Y-59688400D02*
X153753618Y-59640780D01*
X153753618Y-59640780D02*
X153515523Y-59640780D01*
X153515523Y-59640780D02*
X153372666Y-59688400D01*
X153039332Y-59974114D02*
X152801237Y-60640780D01*
X152563142Y-59974114D02*
X152801237Y-60640780D01*
X152801237Y-60640780D02*
X152896475Y-60878876D01*
X152896475Y-60878876D02*
X152944094Y-60926495D01*
X152944094Y-60926495D02*
X153039332Y-60974114D01*
X152229808Y-60593161D02*
X152134570Y-60640780D01*
X152134570Y-60640780D02*
X151944094Y-60640780D01*
X151944094Y-60640780D02*
X151848856Y-60593161D01*
X151848856Y-60593161D02*
X151801237Y-60497923D01*
X151801237Y-60497923D02*
X151801237Y-60450304D01*
X151801237Y-60450304D02*
X151848856Y-60355066D01*
X151848856Y-60355066D02*
X151944094Y-60307447D01*
X151944094Y-60307447D02*
X152086951Y-60307447D01*
X152086951Y-60307447D02*
X152182189Y-60259828D01*
X152182189Y-60259828D02*
X152229808Y-60164590D01*
X152229808Y-60164590D02*
X152229808Y-60116971D01*
X152229808Y-60116971D02*
X152182189Y-60021733D01*
X152182189Y-60021733D02*
X152086951Y-59974114D01*
X152086951Y-59974114D02*
X151944094Y-59974114D01*
X151944094Y-59974114D02*
X151848856Y-60021733D01*
X151515522Y-59974114D02*
X151134570Y-59974114D01*
X151372665Y-59640780D02*
X151372665Y-60497923D01*
X151372665Y-60497923D02*
X151325046Y-60593161D01*
X151325046Y-60593161D02*
X151229808Y-60640780D01*
X151229808Y-60640780D02*
X151134570Y-60640780D01*
X150420284Y-60593161D02*
X150515522Y-60640780D01*
X150515522Y-60640780D02*
X150705998Y-60640780D01*
X150705998Y-60640780D02*
X150801236Y-60593161D01*
X150801236Y-60593161D02*
X150848855Y-60497923D01*
X150848855Y-60497923D02*
X150848855Y-60116971D01*
X150848855Y-60116971D02*
X150801236Y-60021733D01*
X150801236Y-60021733D02*
X150705998Y-59974114D01*
X150705998Y-59974114D02*
X150515522Y-59974114D01*
X150515522Y-59974114D02*
X150420284Y-60021733D01*
X150420284Y-60021733D02*
X150372665Y-60116971D01*
X150372665Y-60116971D02*
X150372665Y-60212209D01*
X150372665Y-60212209D02*
X150848855Y-60307447D01*
X149944093Y-60640780D02*
X149944093Y-59974114D01*
X149944093Y-60069352D02*
X149896474Y-60021733D01*
X149896474Y-60021733D02*
X149801236Y-59974114D01*
X149801236Y-59974114D02*
X149658379Y-59974114D01*
X149658379Y-59974114D02*
X149563141Y-60021733D01*
X149563141Y-60021733D02*
X149515522Y-60116971D01*
X149515522Y-60116971D02*
X149515522Y-60640780D01*
X149515522Y-60116971D02*
X149467903Y-60021733D01*
X149467903Y-60021733D02*
X149372665Y-59974114D01*
X149372665Y-59974114D02*
X149229808Y-59974114D01*
X149229808Y-59974114D02*
X149134569Y-60021733D01*
X149134569Y-60021733D02*
X149086950Y-60116971D01*
X149086950Y-60116971D02*
X149086950Y-60640780D01*
X148658379Y-60593161D02*
X148563141Y-60640780D01*
X148563141Y-60640780D02*
X148372665Y-60640780D01*
X148372665Y-60640780D02*
X148277427Y-60593161D01*
X148277427Y-60593161D02*
X148229808Y-60497923D01*
X148229808Y-60497923D02*
X148229808Y-60450304D01*
X148229808Y-60450304D02*
X148277427Y-60355066D01*
X148277427Y-60355066D02*
X148372665Y-60307447D01*
X148372665Y-60307447D02*
X148515522Y-60307447D01*
X148515522Y-60307447D02*
X148610760Y-60259828D01*
X148610760Y-60259828D02*
X148658379Y-60164590D01*
X148658379Y-60164590D02*
X148658379Y-60116971D01*
X148658379Y-60116971D02*
X148610760Y-60021733D01*
X148610760Y-60021733D02*
X148515522Y-59974114D01*
X148515522Y-59974114D02*
X148372665Y-59974114D01*
X148372665Y-59974114D02*
X148277427Y-60021733D01*
M02*
