M48
; DRILL file {KiCad (7.0.0)} date Wed May  3 17:51:12 2023
; FORMAT={-:-/ absolute / inch / decimal}
; #@! TF.CreationDate,2023-05-03T17:51:12-06:00
; #@! TF.GenerationSoftware,Kicad,Pcbnew,(7.0.0)
; #@! TF.FileFunction,Plated,1,2,PTH
FMAT,2
INCH
; #@! TA.AperFunction,Plated,PTH,ViaDrill
T1C0.0157
; #@! TA.AperFunction,Plated,PTH,ComponentDrill
T2C0.0394
%
G90
G05
T1
X5.975Y-3.345
X5.978Y-3.452
X6.126Y-3.28
X6.362Y-3.848
X6.424Y-3.13
X6.436Y-3.21
X6.438Y-3.35
X6.438Y-3.41
X6.644Y-3.776
X6.666Y-2.958
X6.67Y-3.33
X6.714Y-3.078
X6.72Y-3.76
X6.762Y-2.958
X6.778Y-3.53
X6.802Y-3.93
X6.948Y-3.19
X6.984Y-4.008
X6.986Y-2.962
X7.064Y-3.166
X7.084Y-3.554
X7.168Y-3.73
X7.168Y-3.894
X7.24Y-3.526
X7.28Y-3.986
X7.49Y-2.936
X7.544Y-3.888
X7.668Y-3.65
X7.714Y-3.752
X7.732Y-3.134
X7.822Y-3.652
X7.846Y-2.936
X8.426Y-2.552
X8.544Y-2.45
T2
X6.3608Y-3.5666
X6.3608Y-3.6666
X6.3608Y-3.7666
X6.4608Y-3.5666
X6.4608Y-3.6666
X6.4608Y-3.7666
X6.762Y-2.136
X6.762Y-2.736
X6.862Y-2.136
X6.862Y-2.736
X6.962Y-2.136
X6.962Y-2.736
X7.062Y-2.136
X7.062Y-2.736
X7.162Y-2.136
X7.162Y-2.736
X7.262Y-2.136
X7.262Y-2.736
X7.3492Y-3.6846
X7.3492Y-3.7846
X7.3492Y-3.8846
X7.3492Y-3.9846
X7.4328Y-3.218
X7.4492Y-3.6846
X7.4492Y-3.7846
X7.4492Y-3.8846
X7.4492Y-3.9846
X7.732Y-3.218
T0
M30
