%TF.GenerationSoftware,KiCad,Pcbnew,(7.0.0)*%
%TF.CreationDate,2023-05-03T17:51:17-06:00*%
%TF.ProjectId,Phase_B_Proto,50686173-655f-4425-9f50-726f746f2e6b,rev?*%
%TF.SameCoordinates,Original*%
%TF.FileFunction,Copper,L2,Bot*%
%TF.FilePolarity,Positive*%
%FSLAX46Y46*%
G04 Gerber Fmt 4.6, Leading zero omitted, Abs format (unit mm)*
G04 Created by KiCad (PCBNEW (7.0.0)) date 2023-05-03 17:51:17*
%MOMM*%
%LPD*%
G01*
G04 APERTURE LIST*
%TA.AperFunction,ComponentPad*%
%ADD10R,1.700000X1.700000*%
%TD*%
%TA.AperFunction,ComponentPad*%
%ADD11O,1.700000X1.700000*%
%TD*%
%TA.AperFunction,ComponentPad*%
%ADD12R,1.500000X1.500000*%
%TD*%
%TA.AperFunction,ComponentPad*%
%ADD13C,1.500000*%
%TD*%
%TA.AperFunction,ComponentPad*%
%ADD14C,2.000000*%
%TD*%
%TA.AperFunction,ComponentPad*%
%ADD15R,2.000000X2.000000*%
%TD*%
%TA.AperFunction,ViaPad*%
%ADD16C,0.800000*%
%TD*%
G04 APERTURE END LIST*
D10*
%TO.P,J1,1,MISO*%
%TO.N,MISO*%
X164103999Y-90591399D03*
D11*
%TO.P,J1,2,VCC*%
%TO.N,+5V*%
X161563999Y-90591399D03*
%TO.P,J1,3,SCK*%
%TO.N,SCK*%
X164103999Y-93131399D03*
%TO.P,J1,4,MOSI*%
%TO.N,MOSI*%
X161563999Y-93131399D03*
%TO.P,J1,5,~{RST}*%
%TO.N,RESET*%
X164103999Y-95671399D03*
%TO.P,J1,6,GND*%
%TO.N,GND*%
X161563999Y-95671399D03*
%TD*%
D10*
%TO.P,J3,1,Pin_1*%
%TO.N,GND*%
X186669999Y-101208999D03*
D11*
%TO.P,J3,2,Pin_2*%
%TO.N,TX*%
X189209999Y-101208999D03*
%TO.P,J3,3,Pin_3*%
%TO.N,unconnected-(J3-Pin_3-Pad3)*%
X186669999Y-98668999D03*
%TO.P,J3,4,Pin_4*%
%TO.N,+3.3V*%
X189209999Y-98668999D03*
%TO.P,J3,5,Pin_5*%
%TO.N,Net-(J3-Pin_5)*%
X186669999Y-96128999D03*
%TO.P,J3,6,Pin_6*%
%TO.N,+3.3V*%
X189209999Y-96128999D03*
%TO.P,J3,7,Pin_7*%
%TO.N,RX*%
X186669999Y-93588999D03*
%TO.P,J3,8,Pin_8*%
%TO.N,+3.3V*%
X189209999Y-93588999D03*
%TD*%
D12*
%TO.P,U1,1,e*%
%TO.N,Net-(U1-e)*%
X171754799Y-69494399D03*
D13*
%TO.P,U1,2,d*%
%TO.N,Net-(U1-d)*%
X174294800Y-69494400D03*
%TO.P,U1,3,DPX*%
%TO.N,Net-(U1-DPX)*%
X176834800Y-69494400D03*
%TO.P,U1,4,c*%
%TO.N,Net-(U1-c)*%
X179374800Y-69494400D03*
%TO.P,U1,5,g*%
%TO.N,Net-(U1-g)*%
X181914800Y-69494400D03*
%TO.P,U1,6,CA4*%
%TO.N,Dig4*%
X184454800Y-69494400D03*
%TO.P,U1,7,b*%
%TO.N,Net-(U1-b)*%
X184454800Y-54254400D03*
%TO.P,U1,8,CA3*%
%TO.N,Dig3*%
X181914800Y-54254400D03*
%TO.P,U1,9,CA2*%
%TO.N,Dig2*%
X179374800Y-54254400D03*
%TO.P,U1,10,f*%
%TO.N,Net-(U1-f)*%
X176834800Y-54254400D03*
%TO.P,U1,11,a*%
%TO.N,Net-(U1-a)*%
X174294800Y-54254400D03*
%TO.P,U1,12,CA1*%
%TO.N,Dig1*%
X171754800Y-54254400D03*
%TD*%
D14*
%TO.P,LS1,2,2*%
%TO.N,GND*%
X196392800Y-81737200D03*
D15*
%TO.P,LS1,1,1*%
%TO.N,Buzzer*%
X188792799Y-81737199D03*
%TD*%
D16*
%TO.N,GND*%
X199288400Y-74574400D03*
X190246000Y-74574400D03*
X171754800Y-75133200D03*
X169316400Y-75133200D03*
X196392800Y-79603600D03*
X217017600Y-62230000D03*
X176479200Y-81026000D03*
X177393600Y-101803200D03*
X161594800Y-97739200D03*
X172770800Y-99822000D03*
X168757600Y-95910400D03*
X170688000Y-95504000D03*
X151841200Y-87680800D03*
X172161200Y-89662000D03*
X182067200Y-98907600D03*
X163525200Y-85090000D03*
X184912000Y-101244400D03*
X169418000Y-84582000D03*
X179933600Y-90271600D03*
X214020400Y-64820800D03*
X163169600Y-79502000D03*
X151765000Y-84963000D03*
X163525200Y-86614000D03*
X163474400Y-81534000D03*
X155600400Y-83312000D03*
X195935600Y-95300800D03*
X179425600Y-80416400D03*
X191617600Y-98755200D03*
X182067200Y-94742000D03*
X194767200Y-92710000D03*
X170535600Y-78181200D03*
X177444400Y-75234800D03*
X198678800Y-92760800D03*
X183896000Y-89560400D03*
%TD*%
%TA.AperFunction,Conductor*%
%TO.N,GND*%
G36*
X221070480Y-49750294D02*
G01*
X221115862Y-49795635D01*
X221132513Y-49857587D01*
X221154542Y-73978870D01*
X221181185Y-103153169D01*
X221181301Y-103279700D01*
X221182700Y-104811274D01*
X221182700Y-105183900D01*
X221166087Y-105245900D01*
X221120700Y-105291287D01*
X221058700Y-105307900D01*
X143024287Y-105307900D01*
X142962320Y-105291306D01*
X142916938Y-105245965D01*
X142900287Y-105184013D01*
X142895807Y-100279200D01*
X145178015Y-100279200D01*
X145198338Y-100628127D01*
X145198964Y-100631681D01*
X145198966Y-100631692D01*
X145258403Y-100968778D01*
X145258405Y-100968788D01*
X145259031Y-100972336D01*
X145260063Y-100975785D01*
X145260065Y-100975791D01*
X145358242Y-101303725D01*
X145359274Y-101307171D01*
X145360699Y-101310474D01*
X145496282Y-101624793D01*
X145496287Y-101624803D01*
X145497711Y-101628104D01*
X145499513Y-101631226D01*
X145499515Y-101631229D01*
X145670661Y-101927664D01*
X145670667Y-101927673D01*
X145672470Y-101930796D01*
X145674629Y-101933696D01*
X145879035Y-102208262D01*
X145879041Y-102208269D01*
X145881188Y-102211153D01*
X146121042Y-102465383D01*
X146123800Y-102467697D01*
X146123804Y-102467701D01*
X146238792Y-102564187D01*
X146388789Y-102690049D01*
X146680807Y-102882113D01*
X146993149Y-103038977D01*
X147321589Y-103158519D01*
X147491637Y-103198821D01*
X147658179Y-103238292D01*
X147658181Y-103238292D01*
X147661686Y-103239123D01*
X148008841Y-103279700D01*
X148354761Y-103279700D01*
X148358359Y-103279700D01*
X148705514Y-103239123D01*
X149045611Y-103158519D01*
X149374051Y-103038977D01*
X149686393Y-102882113D01*
X149978411Y-102690049D01*
X150246158Y-102465383D01*
X150486012Y-102211153D01*
X150566143Y-102103518D01*
X185320000Y-102103518D01*
X185320353Y-102110114D01*
X185325573Y-102158667D01*
X185329111Y-102173641D01*
X185373547Y-102292777D01*
X185381962Y-102308189D01*
X185457498Y-102409092D01*
X185469907Y-102421501D01*
X185570810Y-102497037D01*
X185586222Y-102505452D01*
X185705358Y-102549888D01*
X185720332Y-102553426D01*
X185768885Y-102558646D01*
X185775482Y-102559000D01*
X186403674Y-102559000D01*
X186416549Y-102555549D01*
X186420000Y-102542674D01*
X186420000Y-101475326D01*
X186416549Y-101462450D01*
X186403674Y-101459000D01*
X185336326Y-101459000D01*
X185323450Y-101462450D01*
X185320000Y-101475326D01*
X185320000Y-102103518D01*
X150566143Y-102103518D01*
X150694730Y-101930796D01*
X150869489Y-101628104D01*
X151007926Y-101307171D01*
X151108169Y-100972336D01*
X151168862Y-100628127D01*
X151189185Y-100279200D01*
X151168862Y-99930273D01*
X151108169Y-99586064D01*
X151007926Y-99251229D01*
X150869489Y-98930296D01*
X150718630Y-98669000D01*
X185314341Y-98669000D01*
X185334937Y-98904408D01*
X185336336Y-98909630D01*
X185336337Y-98909634D01*
X185394694Y-99127430D01*
X185394697Y-99127438D01*
X185396097Y-99132663D01*
X185398385Y-99137570D01*
X185398386Y-99137572D01*
X185493678Y-99341927D01*
X185493681Y-99341933D01*
X185495965Y-99346830D01*
X185499064Y-99351257D01*
X185499066Y-99351259D01*
X185628399Y-99535966D01*
X185628402Y-99535970D01*
X185631505Y-99540401D01*
X185635336Y-99544231D01*
X185635336Y-99544232D01*
X185753818Y-99662714D01*
X185785114Y-99715460D01*
X185787303Y-99776753D01*
X185759850Y-99831597D01*
X185709471Y-99866576D01*
X185586226Y-99912544D01*
X185570810Y-99920962D01*
X185469907Y-99996498D01*
X185457498Y-100008907D01*
X185381962Y-100109810D01*
X185373547Y-100125222D01*
X185329111Y-100244358D01*
X185325573Y-100259332D01*
X185320353Y-100307885D01*
X185320000Y-100314482D01*
X185320000Y-100942674D01*
X185323450Y-100955549D01*
X185336326Y-100959000D01*
X186796000Y-100959000D01*
X186858000Y-100975613D01*
X186903387Y-101021000D01*
X186920000Y-101083000D01*
X186920000Y-102542674D01*
X186923450Y-102555549D01*
X186936326Y-102559000D01*
X187564518Y-102559000D01*
X187571114Y-102558646D01*
X187619667Y-102553426D01*
X187634641Y-102549888D01*
X187753777Y-102505452D01*
X187769189Y-102497037D01*
X187870092Y-102421501D01*
X187882501Y-102409092D01*
X187958037Y-102308189D01*
X187966452Y-102292777D01*
X188012422Y-102169529D01*
X188047401Y-102119149D01*
X188102246Y-102091696D01*
X188163539Y-102093885D01*
X188216285Y-102125181D01*
X188338599Y-102247495D01*
X188532170Y-102383035D01*
X188746337Y-102482903D01*
X188974592Y-102544063D01*
X189210000Y-102564659D01*
X189445408Y-102544063D01*
X189673663Y-102482903D01*
X189887830Y-102383035D01*
X190081401Y-102247495D01*
X190248495Y-102080401D01*
X190384035Y-101886830D01*
X190483903Y-101672663D01*
X190545063Y-101444408D01*
X190565659Y-101209000D01*
X190545063Y-100973592D01*
X190483903Y-100745337D01*
X190384035Y-100531171D01*
X190248495Y-100337599D01*
X190081401Y-100170505D01*
X190076968Y-100167401D01*
X190076961Y-100167395D01*
X189895842Y-100040575D01*
X189856976Y-99996257D01*
X189842965Y-99939000D01*
X189856976Y-99881743D01*
X189895842Y-99837425D01*
X190076961Y-99710604D01*
X190076961Y-99710603D01*
X190081401Y-99707495D01*
X190248495Y-99540401D01*
X190384035Y-99346830D01*
X190483903Y-99132663D01*
X190545063Y-98904408D01*
X190565659Y-98669000D01*
X190545063Y-98433592D01*
X190483903Y-98205337D01*
X190384035Y-97991171D01*
X190248495Y-97797599D01*
X190081401Y-97630505D01*
X190076970Y-97627402D01*
X190076966Y-97627399D01*
X189895841Y-97500574D01*
X189856976Y-97456256D01*
X189842965Y-97398999D01*
X189856976Y-97341742D01*
X189895839Y-97297426D01*
X190081401Y-97167495D01*
X190248495Y-97000401D01*
X190384035Y-96806830D01*
X190483903Y-96592663D01*
X190545063Y-96364408D01*
X190565659Y-96129000D01*
X190545063Y-95893592D01*
X190483903Y-95665337D01*
X190384035Y-95451171D01*
X190248495Y-95257599D01*
X190081401Y-95090505D01*
X190076968Y-95087401D01*
X190076961Y-95087395D01*
X189895842Y-94960575D01*
X189856976Y-94916257D01*
X189842965Y-94859000D01*
X189856976Y-94801743D01*
X189895842Y-94757425D01*
X190076961Y-94630604D01*
X190076961Y-94630603D01*
X190081401Y-94627495D01*
X190248495Y-94460401D01*
X190384035Y-94266830D01*
X190483903Y-94052663D01*
X190545063Y-93824408D01*
X190565659Y-93589000D01*
X190545063Y-93353592D01*
X190483903Y-93125337D01*
X190384035Y-92911171D01*
X190248495Y-92717599D01*
X190081401Y-92550505D01*
X190076970Y-92547402D01*
X190076966Y-92547399D01*
X189892259Y-92418066D01*
X189892257Y-92418064D01*
X189887830Y-92414965D01*
X189882933Y-92412681D01*
X189882927Y-92412678D01*
X189678572Y-92317386D01*
X189678570Y-92317385D01*
X189673663Y-92315097D01*
X189668438Y-92313697D01*
X189668430Y-92313694D01*
X189450634Y-92255337D01*
X189450630Y-92255336D01*
X189445408Y-92253937D01*
X189440020Y-92253465D01*
X189440017Y-92253465D01*
X189215395Y-92233813D01*
X189210000Y-92233341D01*
X189204605Y-92233813D01*
X188979982Y-92253465D01*
X188979977Y-92253465D01*
X188974592Y-92253937D01*
X188969371Y-92255335D01*
X188969365Y-92255337D01*
X188751569Y-92313694D01*
X188751557Y-92313698D01*
X188746337Y-92315097D01*
X188741432Y-92317383D01*
X188741427Y-92317386D01*
X188537081Y-92412675D01*
X188537077Y-92412677D01*
X188532171Y-92414965D01*
X188527738Y-92418068D01*
X188527731Y-92418073D01*
X188343034Y-92547399D01*
X188343029Y-92547402D01*
X188338599Y-92550505D01*
X188334775Y-92554328D01*
X188334769Y-92554334D01*
X188175334Y-92713769D01*
X188175328Y-92713775D01*
X188171505Y-92717599D01*
X188168402Y-92722029D01*
X188168399Y-92722034D01*
X188041575Y-92903159D01*
X187997257Y-92942025D01*
X187940000Y-92956036D01*
X187882743Y-92942025D01*
X187838425Y-92903159D01*
X187711600Y-92722034D01*
X187708495Y-92717599D01*
X187541401Y-92550505D01*
X187536970Y-92547402D01*
X187536966Y-92547399D01*
X187352259Y-92418066D01*
X187352257Y-92418064D01*
X187347830Y-92414965D01*
X187342933Y-92412681D01*
X187342927Y-92412678D01*
X187138572Y-92317386D01*
X187138570Y-92317385D01*
X187133663Y-92315097D01*
X187128438Y-92313697D01*
X187128430Y-92313694D01*
X186910634Y-92255337D01*
X186910630Y-92255336D01*
X186905408Y-92253937D01*
X186900020Y-92253465D01*
X186900017Y-92253465D01*
X186675395Y-92233813D01*
X186670000Y-92233341D01*
X186664605Y-92233813D01*
X186439982Y-92253465D01*
X186439977Y-92253465D01*
X186434592Y-92253937D01*
X186429371Y-92255335D01*
X186429365Y-92255337D01*
X186211569Y-92313694D01*
X186211557Y-92313698D01*
X186206337Y-92315097D01*
X186201432Y-92317383D01*
X186201427Y-92317386D01*
X185997081Y-92412675D01*
X185997077Y-92412677D01*
X185992171Y-92414965D01*
X185987738Y-92418068D01*
X185987731Y-92418073D01*
X185803034Y-92547399D01*
X185803029Y-92547402D01*
X185798599Y-92550505D01*
X185794775Y-92554328D01*
X185794769Y-92554334D01*
X185635334Y-92713769D01*
X185635328Y-92713775D01*
X185631505Y-92717599D01*
X185628402Y-92722029D01*
X185628399Y-92722034D01*
X185499073Y-92906731D01*
X185499068Y-92906738D01*
X185495965Y-92911171D01*
X185493677Y-92916077D01*
X185493675Y-92916081D01*
X185398386Y-93120427D01*
X185398383Y-93120432D01*
X185396097Y-93125337D01*
X185394698Y-93130557D01*
X185394694Y-93130569D01*
X185336337Y-93348365D01*
X185336335Y-93348371D01*
X185334937Y-93353592D01*
X185334465Y-93358977D01*
X185334465Y-93358982D01*
X185333323Y-93372034D01*
X185314341Y-93589000D01*
X185314813Y-93594395D01*
X185333996Y-93813659D01*
X185334937Y-93824408D01*
X185336336Y-93829630D01*
X185336337Y-93829634D01*
X185394694Y-94047430D01*
X185394697Y-94047438D01*
X185396097Y-94052663D01*
X185398385Y-94057570D01*
X185398386Y-94057572D01*
X185493678Y-94261927D01*
X185493681Y-94261933D01*
X185495965Y-94266830D01*
X185499064Y-94271257D01*
X185499066Y-94271259D01*
X185628399Y-94455966D01*
X185628402Y-94455970D01*
X185631505Y-94460401D01*
X185798599Y-94627495D01*
X185803032Y-94630599D01*
X185803038Y-94630604D01*
X185984158Y-94757425D01*
X186023024Y-94801743D01*
X186037035Y-94859000D01*
X186023024Y-94916257D01*
X185984159Y-94960575D01*
X185803041Y-95087395D01*
X185798599Y-95090505D01*
X185794775Y-95094328D01*
X185794769Y-95094334D01*
X185635334Y-95253769D01*
X185635328Y-95253775D01*
X185631505Y-95257599D01*
X185628402Y-95262029D01*
X185628399Y-95262034D01*
X185499073Y-95446731D01*
X185499068Y-95446738D01*
X185495965Y-95451171D01*
X185493677Y-95456077D01*
X185493675Y-95456081D01*
X185398386Y-95660427D01*
X185398383Y-95660432D01*
X185396097Y-95665337D01*
X185394698Y-95670557D01*
X185394694Y-95670569D01*
X185336337Y-95888365D01*
X185336335Y-95888371D01*
X185334937Y-95893592D01*
X185334465Y-95898977D01*
X185334465Y-95898982D01*
X185314813Y-96123605D01*
X185314341Y-96129000D01*
X185314813Y-96134395D01*
X185334271Y-96356805D01*
X185334937Y-96364408D01*
X185336336Y-96369630D01*
X185336337Y-96369634D01*
X185394694Y-96587430D01*
X185394697Y-96587438D01*
X185396097Y-96592663D01*
X185398385Y-96597570D01*
X185398386Y-96597572D01*
X185493678Y-96801927D01*
X185493681Y-96801933D01*
X185495965Y-96806830D01*
X185499064Y-96811257D01*
X185499066Y-96811259D01*
X185628399Y-96995966D01*
X185628402Y-96995970D01*
X185631505Y-97000401D01*
X185798599Y-97167495D01*
X185803032Y-97170599D01*
X185803038Y-97170604D01*
X185984158Y-97297425D01*
X186023024Y-97341743D01*
X186037035Y-97399000D01*
X186023024Y-97456257D01*
X185984160Y-97500574D01*
X185798599Y-97630505D01*
X185794775Y-97634328D01*
X185794769Y-97634334D01*
X185635334Y-97793769D01*
X185635328Y-97793775D01*
X185631505Y-97797599D01*
X185628402Y-97802029D01*
X185628399Y-97802034D01*
X185499073Y-97986731D01*
X185499068Y-97986738D01*
X185495965Y-97991171D01*
X185493677Y-97996077D01*
X185493675Y-97996081D01*
X185398386Y-98200427D01*
X185398383Y-98200432D01*
X185396097Y-98205337D01*
X185394698Y-98210557D01*
X185394694Y-98210569D01*
X185336337Y-98428365D01*
X185336335Y-98428371D01*
X185334937Y-98433592D01*
X185334465Y-98438977D01*
X185334465Y-98438982D01*
X185317963Y-98627604D01*
X185314341Y-98669000D01*
X150718630Y-98669000D01*
X150694730Y-98627604D01*
X150554306Y-98438982D01*
X150488164Y-98350137D01*
X150488159Y-98350131D01*
X150486012Y-98347247D01*
X150246158Y-98093017D01*
X150243400Y-98090703D01*
X150243395Y-98090698D01*
X149981170Y-97870666D01*
X149981169Y-97870665D01*
X149978411Y-97868351D01*
X149975393Y-97866366D01*
X149689412Y-97678272D01*
X149689404Y-97678267D01*
X149686393Y-97676287D01*
X149589049Y-97627399D01*
X149377288Y-97521048D01*
X149377278Y-97521043D01*
X149374051Y-97519423D01*
X149270286Y-97481656D01*
X149049000Y-97401114D01*
X149048992Y-97401111D01*
X149045611Y-97399881D01*
X149042112Y-97399051D01*
X149042103Y-97399049D01*
X148709020Y-97320107D01*
X148709004Y-97320104D01*
X148705514Y-97319277D01*
X148701949Y-97318860D01*
X148701936Y-97318858D01*
X148361929Y-97279117D01*
X148361924Y-97279116D01*
X148358359Y-97278700D01*
X148008841Y-97278700D01*
X148005276Y-97279116D01*
X148005270Y-97279117D01*
X147665263Y-97318858D01*
X147665247Y-97318860D01*
X147661686Y-97319277D01*
X147658198Y-97320103D01*
X147658179Y-97320107D01*
X147325096Y-97399049D01*
X147325082Y-97399052D01*
X147321589Y-97399881D01*
X147318212Y-97401110D01*
X147318199Y-97401114D01*
X146996550Y-97518185D01*
X146993149Y-97519423D01*
X146989927Y-97521040D01*
X146989911Y-97521048D01*
X146684036Y-97674665D01*
X146684031Y-97674667D01*
X146680807Y-97676287D01*
X146677803Y-97678262D01*
X146677787Y-97678272D01*
X146391806Y-97866366D01*
X146391798Y-97866371D01*
X146388789Y-97868351D01*
X146386038Y-97870658D01*
X146386029Y-97870666D01*
X146123804Y-98090698D01*
X146123790Y-98090710D01*
X146121042Y-98093017D01*
X146118567Y-98095639D01*
X146118562Y-98095645D01*
X145883662Y-98344624D01*
X145883656Y-98344630D01*
X145881188Y-98347247D01*
X145879048Y-98350121D01*
X145879035Y-98350137D01*
X145674629Y-98624703D01*
X145674623Y-98624711D01*
X145672470Y-98627604D01*
X145670671Y-98630718D01*
X145670661Y-98630735D01*
X145499515Y-98927170D01*
X145499509Y-98927180D01*
X145497711Y-98930296D01*
X145496290Y-98933589D01*
X145496282Y-98933606D01*
X145406808Y-99141032D01*
X145359274Y-99251229D01*
X145358245Y-99254664D01*
X145358242Y-99254674D01*
X145260065Y-99582608D01*
X145260062Y-99582618D01*
X145259031Y-99586064D01*
X145258406Y-99589607D01*
X145258403Y-99589621D01*
X145198966Y-99926707D01*
X145198964Y-99926720D01*
X145198338Y-99930273D01*
X145198128Y-99933878D01*
X145198127Y-99933887D01*
X145184346Y-100170505D01*
X145178015Y-100279200D01*
X142895807Y-100279200D01*
X142891829Y-95923951D01*
X160236688Y-95923951D01*
X160237056Y-95935180D01*
X160289168Y-96129663D01*
X160292856Y-96139797D01*
X160388113Y-96344076D01*
X160393501Y-96353408D01*
X160522784Y-96538043D01*
X160529721Y-96546309D01*
X160689090Y-96705678D01*
X160697356Y-96712615D01*
X160881991Y-96841898D01*
X160891323Y-96847286D01*
X161095602Y-96942543D01*
X161105736Y-96946231D01*
X161300219Y-96998343D01*
X161311448Y-96998711D01*
X161314000Y-96987769D01*
X161314000Y-95937726D01*
X161310549Y-95924850D01*
X161297674Y-95921400D01*
X160247631Y-95921400D01*
X160236688Y-95923951D01*
X142891829Y-95923951D01*
X142889279Y-93131400D01*
X160208341Y-93131400D01*
X160208813Y-93136795D01*
X160227780Y-93353592D01*
X160228937Y-93366808D01*
X160230336Y-93372030D01*
X160230337Y-93372034D01*
X160288694Y-93589830D01*
X160288697Y-93589838D01*
X160290097Y-93595063D01*
X160292385Y-93599970D01*
X160292386Y-93599972D01*
X160387678Y-93804327D01*
X160387681Y-93804333D01*
X160389965Y-93809230D01*
X160393064Y-93813657D01*
X160393066Y-93813659D01*
X160522399Y-93998366D01*
X160522402Y-93998370D01*
X160525505Y-94002801D01*
X160692599Y-94169895D01*
X160697031Y-94172998D01*
X160697033Y-94173000D01*
X160878595Y-94300131D01*
X160917460Y-94344449D01*
X160931471Y-94401706D01*
X160917460Y-94458963D01*
X160878595Y-94503281D01*
X160697352Y-94630188D01*
X160689092Y-94637119D01*
X160529719Y-94796492D01*
X160522784Y-94804757D01*
X160393508Y-94989382D01*
X160388110Y-94998732D01*
X160292856Y-95203002D01*
X160289168Y-95213136D01*
X160237056Y-95407619D01*
X160236688Y-95418848D01*
X160247631Y-95421400D01*
X161690000Y-95421400D01*
X161752000Y-95438013D01*
X161797387Y-95483400D01*
X161814000Y-95545400D01*
X161814000Y-96987769D01*
X161816551Y-96998711D01*
X161827780Y-96998343D01*
X162022263Y-96946231D01*
X162032397Y-96942543D01*
X162236676Y-96847286D01*
X162246008Y-96841898D01*
X162430643Y-96712615D01*
X162438909Y-96705678D01*
X162598278Y-96546309D01*
X162605219Y-96538038D01*
X162732119Y-96356806D01*
X162776437Y-96317940D01*
X162833694Y-96303929D01*
X162890951Y-96317940D01*
X162935269Y-96356805D01*
X163062399Y-96538366D01*
X163062402Y-96538370D01*
X163065505Y-96542801D01*
X163232599Y-96709895D01*
X163237031Y-96712998D01*
X163237033Y-96713000D01*
X163326972Y-96775976D01*
X163426170Y-96845435D01*
X163640337Y-96945303D01*
X163868592Y-97006463D01*
X164104000Y-97027059D01*
X164339408Y-97006463D01*
X164567663Y-96945303D01*
X164781830Y-96845435D01*
X164975401Y-96709895D01*
X165142495Y-96542801D01*
X165278035Y-96349230D01*
X165377903Y-96135063D01*
X165439063Y-95906808D01*
X165459659Y-95671400D01*
X165439063Y-95435992D01*
X165377903Y-95207737D01*
X165278035Y-94993571D01*
X165142495Y-94799999D01*
X164975401Y-94632905D01*
X164970968Y-94629801D01*
X164970961Y-94629795D01*
X164789842Y-94502975D01*
X164750976Y-94458657D01*
X164736965Y-94401400D01*
X164750976Y-94344143D01*
X164789842Y-94299825D01*
X164970961Y-94173004D01*
X164970961Y-94173003D01*
X164975401Y-94169895D01*
X165142495Y-94002801D01*
X165278035Y-93809230D01*
X165377903Y-93595063D01*
X165439063Y-93366808D01*
X165459659Y-93131400D01*
X165439063Y-92895992D01*
X165377903Y-92667737D01*
X165278035Y-92453571D01*
X165142495Y-92259999D01*
X165020569Y-92138072D01*
X164989273Y-92085327D01*
X164987084Y-92024034D01*
X165014537Y-91969189D01*
X165064916Y-91934210D01*
X165196331Y-91885196D01*
X165311546Y-91798946D01*
X165397796Y-91683731D01*
X165448091Y-91548883D01*
X165454500Y-91489273D01*
X165454499Y-89693528D01*
X165448091Y-89633917D01*
X165397796Y-89499069D01*
X165311546Y-89383854D01*
X165221030Y-89316094D01*
X165203431Y-89302919D01*
X165203430Y-89302918D01*
X165196331Y-89297604D01*
X165089442Y-89257737D01*
X165068752Y-89250020D01*
X165068750Y-89250019D01*
X165061483Y-89247309D01*
X165053770Y-89246479D01*
X165053767Y-89246479D01*
X165005180Y-89241255D01*
X165005169Y-89241254D01*
X165001873Y-89240900D01*
X164998550Y-89240900D01*
X163209439Y-89240900D01*
X163209420Y-89240900D01*
X163206128Y-89240901D01*
X163202850Y-89241253D01*
X163202838Y-89241254D01*
X163154231Y-89246479D01*
X163154225Y-89246480D01*
X163146517Y-89247309D01*
X163139252Y-89250018D01*
X163139246Y-89250020D01*
X163019980Y-89294504D01*
X163019978Y-89294504D01*
X163011669Y-89297604D01*
X163004572Y-89302916D01*
X163004568Y-89302919D01*
X162903550Y-89378541D01*
X162903546Y-89378544D01*
X162896454Y-89383854D01*
X162891144Y-89390946D01*
X162891141Y-89390950D01*
X162815519Y-89491968D01*
X162815516Y-89491972D01*
X162810204Y-89499069D01*
X162807104Y-89507378D01*
X162807105Y-89507378D01*
X162761189Y-89630483D01*
X162726210Y-89680862D01*
X162671365Y-89708315D01*
X162610072Y-89706126D01*
X162557326Y-89674830D01*
X162439232Y-89556736D01*
X162439230Y-89556734D01*
X162435401Y-89552905D01*
X162430970Y-89549802D01*
X162430966Y-89549799D01*
X162246259Y-89420466D01*
X162246257Y-89420464D01*
X162241830Y-89417365D01*
X162236933Y-89415081D01*
X162236927Y-89415078D01*
X162032572Y-89319786D01*
X162032570Y-89319785D01*
X162027663Y-89317497D01*
X162022438Y-89316097D01*
X162022430Y-89316094D01*
X161804634Y-89257737D01*
X161804630Y-89257736D01*
X161799408Y-89256337D01*
X161794020Y-89255865D01*
X161794017Y-89255865D01*
X161569395Y-89236213D01*
X161564000Y-89235741D01*
X161558605Y-89236213D01*
X161333982Y-89255865D01*
X161333977Y-89255865D01*
X161328592Y-89256337D01*
X161323371Y-89257735D01*
X161323365Y-89257737D01*
X161105569Y-89316094D01*
X161105557Y-89316098D01*
X161100337Y-89317497D01*
X161095432Y-89319783D01*
X161095427Y-89319786D01*
X160891081Y-89415075D01*
X160891077Y-89415077D01*
X160886171Y-89417365D01*
X160881738Y-89420468D01*
X160881731Y-89420473D01*
X160697034Y-89549799D01*
X160697029Y-89549802D01*
X160692599Y-89552905D01*
X160688775Y-89556728D01*
X160688769Y-89556734D01*
X160529334Y-89716169D01*
X160529328Y-89716175D01*
X160525505Y-89719999D01*
X160522402Y-89724429D01*
X160522399Y-89724434D01*
X160393073Y-89909131D01*
X160393068Y-89909138D01*
X160389965Y-89913571D01*
X160387677Y-89918477D01*
X160387675Y-89918481D01*
X160292386Y-90122827D01*
X160292383Y-90122832D01*
X160290097Y-90127737D01*
X160288698Y-90132957D01*
X160288694Y-90132969D01*
X160230337Y-90350765D01*
X160230335Y-90350771D01*
X160228937Y-90355992D01*
X160208341Y-90591400D01*
X160228937Y-90826808D01*
X160230336Y-90832030D01*
X160230337Y-90832034D01*
X160288694Y-91049830D01*
X160288697Y-91049838D01*
X160290097Y-91055063D01*
X160292385Y-91059970D01*
X160292386Y-91059972D01*
X160387678Y-91264327D01*
X160387681Y-91264333D01*
X160389965Y-91269230D01*
X160393064Y-91273657D01*
X160393066Y-91273659D01*
X160522399Y-91458366D01*
X160522402Y-91458370D01*
X160525505Y-91462801D01*
X160692599Y-91629895D01*
X160697032Y-91632999D01*
X160697038Y-91633004D01*
X160878158Y-91759825D01*
X160917024Y-91804143D01*
X160931035Y-91861400D01*
X160917024Y-91918657D01*
X160878159Y-91962975D01*
X160697041Y-92089795D01*
X160692599Y-92092905D01*
X160688775Y-92096728D01*
X160688769Y-92096734D01*
X160529334Y-92256169D01*
X160529328Y-92256175D01*
X160525505Y-92259999D01*
X160522402Y-92264429D01*
X160522399Y-92264434D01*
X160393073Y-92449131D01*
X160393068Y-92449138D01*
X160389965Y-92453571D01*
X160387677Y-92458477D01*
X160387675Y-92458481D01*
X160292386Y-92662827D01*
X160292383Y-92662832D01*
X160290097Y-92667737D01*
X160288698Y-92672957D01*
X160288694Y-92672969D01*
X160230337Y-92890765D01*
X160230335Y-92890771D01*
X160228937Y-92895992D01*
X160228465Y-92901377D01*
X160228465Y-92901382D01*
X160209604Y-93116967D01*
X160208341Y-93131400D01*
X142889279Y-93131400D01*
X142882360Y-85555935D01*
X146624669Y-85555935D01*
X146655135Y-85728711D01*
X146724623Y-85889804D01*
X146829390Y-86030530D01*
X146963786Y-86143302D01*
X147120567Y-86222040D01*
X147291279Y-86262500D01*
X147419111Y-86262500D01*
X147422709Y-86262500D01*
X147553255Y-86247241D01*
X147718117Y-86187237D01*
X147864696Y-86090830D01*
X147985092Y-85963218D01*
X148072812Y-85811281D01*
X148123130Y-85643210D01*
X148133331Y-85468065D01*
X148102865Y-85295289D01*
X148033377Y-85134196D01*
X147928610Y-84993470D01*
X147856747Y-84933170D01*
X147799745Y-84885339D01*
X147799744Y-84885338D01*
X147794214Y-84880698D01*
X147701810Y-84834291D01*
X147643883Y-84805199D01*
X147643880Y-84805198D01*
X147637433Y-84801960D01*
X147630407Y-84800294D01*
X147630405Y-84800294D01*
X147473749Y-84763165D01*
X147473743Y-84763164D01*
X147466721Y-84761500D01*
X147335291Y-84761500D01*
X147331725Y-84761916D01*
X147331721Y-84761917D01*
X147211915Y-84775920D01*
X147211907Y-84775921D01*
X147204745Y-84776759D01*
X147197967Y-84779225D01*
X147197958Y-84779228D01*
X147046674Y-84834291D01*
X147046671Y-84834292D01*
X147039883Y-84836763D01*
X147033850Y-84840730D01*
X147033842Y-84840735D01*
X146899340Y-84929199D01*
X146899334Y-84929203D01*
X146893304Y-84933170D01*
X146888351Y-84938419D01*
X146888346Y-84938424D01*
X146777865Y-85055527D01*
X146777861Y-85055531D01*
X146772908Y-85060782D01*
X146769299Y-85067032D01*
X146769296Y-85067037D01*
X146688799Y-85206463D01*
X146688796Y-85206468D01*
X146685188Y-85212719D01*
X146683117Y-85219634D01*
X146683117Y-85219636D01*
X146636941Y-85373869D01*
X146636939Y-85373877D01*
X146634870Y-85380790D01*
X146634450Y-85387996D01*
X146634449Y-85388004D01*
X146625088Y-85548725D01*
X146625088Y-85548733D01*
X146624669Y-85555935D01*
X142882360Y-85555935D01*
X142879827Y-82781778D01*
X187292300Y-82781778D01*
X187292301Y-82785072D01*
X187292653Y-82788350D01*
X187292654Y-82788361D01*
X187297879Y-82836968D01*
X187297880Y-82836973D01*
X187298709Y-82844683D01*
X187301419Y-82851949D01*
X187301420Y-82851953D01*
X187335017Y-82942031D01*
X187349004Y-82979531D01*
X187354318Y-82986630D01*
X187354319Y-82986631D01*
X187364099Y-82999696D01*
X187435254Y-83094746D01*
X187550469Y-83180996D01*
X187685317Y-83231291D01*
X187744927Y-83237700D01*
X189840672Y-83237699D01*
X189900283Y-83231291D01*
X190035131Y-83180996D01*
X190150346Y-83094746D01*
X190236596Y-82979531D01*
X190243713Y-82960448D01*
X195528549Y-82960448D01*
X195536655Y-82971639D01*
X195565517Y-82994103D01*
X195574079Y-82999696D01*
X195783685Y-83113129D01*
X195793039Y-83117232D01*
X196018456Y-83194617D01*
X196028368Y-83197128D01*
X196263443Y-83236355D01*
X196273639Y-83237200D01*
X196511961Y-83237200D01*
X196522156Y-83236355D01*
X196757231Y-83197128D01*
X196767143Y-83194617D01*
X196992560Y-83117232D01*
X197001914Y-83113129D01*
X197211523Y-82999695D01*
X197220081Y-82994103D01*
X197248946Y-82971637D01*
X197257050Y-82960450D01*
X197250389Y-82948342D01*
X196404342Y-82102295D01*
X196392800Y-82095631D01*
X196381257Y-82102295D01*
X195535208Y-82948343D01*
X195528549Y-82960448D01*
X190243713Y-82960448D01*
X190286891Y-82844683D01*
X190293300Y-82785073D01*
X190293300Y-81742317D01*
X194888083Y-81742317D01*
X194907762Y-81979818D01*
X194909446Y-81989912D01*
X194967953Y-82220947D01*
X194971272Y-82230614D01*
X195067008Y-82448873D01*
X195071870Y-82457856D01*
X195161799Y-82595504D01*
X195169763Y-82603224D01*
X195179145Y-82597300D01*
X196027704Y-81748742D01*
X196034368Y-81737200D01*
X196751231Y-81737200D01*
X196757895Y-81748742D01*
X197606453Y-82597300D01*
X197615834Y-82603224D01*
X197623802Y-82595499D01*
X197713724Y-82457864D01*
X197718592Y-82448869D01*
X197814327Y-82230614D01*
X197817646Y-82220947D01*
X197876153Y-81989912D01*
X197877837Y-81979818D01*
X197897517Y-81742317D01*
X197897517Y-81732083D01*
X197877837Y-81494581D01*
X197876153Y-81484487D01*
X197817646Y-81253452D01*
X197814327Y-81243785D01*
X197718592Y-81025530D01*
X197713724Y-81016535D01*
X197623802Y-80878899D01*
X197615834Y-80871174D01*
X197606453Y-80877098D01*
X196757895Y-81725657D01*
X196751231Y-81737200D01*
X196034368Y-81737200D01*
X196027704Y-81725657D01*
X195179145Y-80877098D01*
X195169764Y-80871174D01*
X195161797Y-80878899D01*
X195071872Y-81016538D01*
X195067007Y-81025528D01*
X194971272Y-81243785D01*
X194967953Y-81253452D01*
X194909446Y-81484487D01*
X194907762Y-81494581D01*
X194888083Y-81732083D01*
X194888083Y-81742317D01*
X190293300Y-81742317D01*
X190293299Y-80689328D01*
X190286891Y-80629717D01*
X190243712Y-80513949D01*
X195528548Y-80513949D01*
X195535208Y-80526055D01*
X196381257Y-81372104D01*
X196392800Y-81378768D01*
X196404342Y-81372104D01*
X197250390Y-80526055D01*
X197257050Y-80513949D01*
X197248943Y-80502759D01*
X197220086Y-80480299D01*
X197211519Y-80474703D01*
X197001914Y-80361270D01*
X196992560Y-80357167D01*
X196767143Y-80279782D01*
X196757231Y-80277271D01*
X196522156Y-80238044D01*
X196511961Y-80237200D01*
X196273639Y-80237200D01*
X196263443Y-80238044D01*
X196028368Y-80277271D01*
X196018456Y-80279782D01*
X195793039Y-80357167D01*
X195783685Y-80361270D01*
X195574076Y-80474704D01*
X195565517Y-80480296D01*
X195536654Y-80502760D01*
X195528548Y-80513949D01*
X190243712Y-80513949D01*
X190236596Y-80494869D01*
X190150346Y-80379654D01*
X190126652Y-80361917D01*
X190042231Y-80298719D01*
X190042230Y-80298718D01*
X190035131Y-80293404D01*
X189900283Y-80243109D01*
X189892570Y-80242279D01*
X189892567Y-80242279D01*
X189843980Y-80237055D01*
X189843969Y-80237054D01*
X189840673Y-80236700D01*
X189837350Y-80236700D01*
X187748239Y-80236700D01*
X187748220Y-80236700D01*
X187744928Y-80236701D01*
X187741650Y-80237053D01*
X187741638Y-80237054D01*
X187693031Y-80242279D01*
X187693025Y-80242280D01*
X187685317Y-80243109D01*
X187678052Y-80245818D01*
X187678046Y-80245820D01*
X187558780Y-80290304D01*
X187558778Y-80290304D01*
X187550469Y-80293404D01*
X187543372Y-80298716D01*
X187543368Y-80298719D01*
X187442350Y-80374341D01*
X187442346Y-80374344D01*
X187435254Y-80379654D01*
X187429944Y-80386746D01*
X187429941Y-80386750D01*
X187354319Y-80487768D01*
X187354316Y-80487772D01*
X187349004Y-80494869D01*
X187345904Y-80503178D01*
X187345904Y-80503180D01*
X187301420Y-80622447D01*
X187301419Y-80622450D01*
X187298709Y-80629717D01*
X187297879Y-80637427D01*
X187297879Y-80637432D01*
X187292655Y-80686019D01*
X187292654Y-80686031D01*
X187292300Y-80689327D01*
X187292300Y-80692648D01*
X187292300Y-80692649D01*
X187292300Y-82781760D01*
X187292300Y-82781778D01*
X142879827Y-82781778D01*
X142878342Y-81155935D01*
X146624669Y-81155935D01*
X146655135Y-81328711D01*
X146724623Y-81489804D01*
X146829390Y-81630530D01*
X146963786Y-81743302D01*
X147120567Y-81822040D01*
X147291279Y-81862500D01*
X147419111Y-81862500D01*
X147422709Y-81862500D01*
X147553255Y-81847241D01*
X147718117Y-81787237D01*
X147864696Y-81690830D01*
X147985092Y-81563218D01*
X148072812Y-81411281D01*
X148123130Y-81243210D01*
X148133331Y-81068065D01*
X148102865Y-80895289D01*
X148033377Y-80734196D01*
X147928610Y-80593470D01*
X147856747Y-80533170D01*
X147799745Y-80485339D01*
X147799744Y-80485338D01*
X147794214Y-80480698D01*
X147701810Y-80434291D01*
X147643883Y-80405199D01*
X147643880Y-80405198D01*
X147637433Y-80401960D01*
X147630407Y-80400294D01*
X147630405Y-80400294D01*
X147473749Y-80363165D01*
X147473743Y-80363164D01*
X147466721Y-80361500D01*
X147335291Y-80361500D01*
X147331725Y-80361916D01*
X147331721Y-80361917D01*
X147211915Y-80375920D01*
X147211907Y-80375921D01*
X147204745Y-80376759D01*
X147197967Y-80379225D01*
X147197958Y-80379228D01*
X147046674Y-80434291D01*
X147046671Y-80434292D01*
X147039883Y-80436763D01*
X147033850Y-80440730D01*
X147033842Y-80440735D01*
X146899340Y-80529199D01*
X146899334Y-80529203D01*
X146893304Y-80533170D01*
X146888351Y-80538419D01*
X146888346Y-80538424D01*
X146777865Y-80655527D01*
X146777861Y-80655531D01*
X146772908Y-80660782D01*
X146769299Y-80667032D01*
X146769296Y-80667037D01*
X146688799Y-80806463D01*
X146688796Y-80806468D01*
X146685188Y-80812719D01*
X146683117Y-80819634D01*
X146683117Y-80819636D01*
X146636941Y-80973869D01*
X146636939Y-80973877D01*
X146634870Y-80980790D01*
X146634450Y-80987996D01*
X146634449Y-80988004D01*
X146625088Y-81148725D01*
X146625088Y-81148733D01*
X146624669Y-81155935D01*
X142878342Y-81155935D01*
X142878189Y-80988004D01*
X142868418Y-70288978D01*
X170504300Y-70288978D01*
X170504301Y-70292272D01*
X170504653Y-70295550D01*
X170504654Y-70295561D01*
X170509879Y-70344168D01*
X170509880Y-70344173D01*
X170510709Y-70351883D01*
X170513419Y-70359149D01*
X170513420Y-70359153D01*
X170547017Y-70449231D01*
X170561004Y-70486731D01*
X170566318Y-70493830D01*
X170566319Y-70493831D01*
X170631949Y-70581502D01*
X170647254Y-70601946D01*
X170762469Y-70688196D01*
X170897317Y-70738491D01*
X170956927Y-70744900D01*
X172552672Y-70744899D01*
X172612283Y-70738491D01*
X172747131Y-70688196D01*
X172862346Y-70601946D01*
X172948596Y-70486731D01*
X172998891Y-70351883D01*
X173005300Y-70292273D01*
X173005299Y-70226261D01*
X173020845Y-70166148D01*
X173063588Y-70121106D01*
X173122808Y-70102433D01*
X173183656Y-70114812D01*
X173230874Y-70155139D01*
X173330096Y-70296842D01*
X173330099Y-70296846D01*
X173333202Y-70301277D01*
X173487923Y-70455998D01*
X173667161Y-70581502D01*
X173672061Y-70583787D01*
X173672063Y-70583788D01*
X173695783Y-70594849D01*
X173865470Y-70673975D01*
X174023322Y-70716271D01*
X174071590Y-70729205D01*
X174071591Y-70729205D01*
X174076823Y-70730607D01*
X174294800Y-70749677D01*
X174512777Y-70730607D01*
X174724130Y-70673975D01*
X174922439Y-70581502D01*
X175101677Y-70455998D01*
X175256398Y-70301277D01*
X175381902Y-70122039D01*
X175452417Y-69970817D01*
X175498175Y-69918641D01*
X175564800Y-69899221D01*
X175631425Y-69918641D01*
X175677182Y-69970817D01*
X175745409Y-70117132D01*
X175745413Y-70117139D01*
X175747698Y-70122039D01*
X175750797Y-70126466D01*
X175750799Y-70126468D01*
X175870096Y-70296842D01*
X175870099Y-70296846D01*
X175873202Y-70301277D01*
X176027923Y-70455998D01*
X176207161Y-70581502D01*
X176212061Y-70583787D01*
X176212063Y-70583788D01*
X176235783Y-70594849D01*
X176405470Y-70673975D01*
X176563322Y-70716271D01*
X176611590Y-70729205D01*
X176611591Y-70729205D01*
X176616823Y-70730607D01*
X176834800Y-70749677D01*
X177052777Y-70730607D01*
X177264130Y-70673975D01*
X177462439Y-70581502D01*
X177641677Y-70455998D01*
X177796398Y-70301277D01*
X177921902Y-70122039D01*
X177992417Y-69970817D01*
X178038175Y-69918641D01*
X178104800Y-69899221D01*
X178171425Y-69918641D01*
X178217182Y-69970817D01*
X178285409Y-70117132D01*
X178285413Y-70117139D01*
X178287698Y-70122039D01*
X178290797Y-70126466D01*
X178290799Y-70126468D01*
X178410096Y-70296842D01*
X178410099Y-70296846D01*
X178413202Y-70301277D01*
X178567923Y-70455998D01*
X178747161Y-70581502D01*
X178752061Y-70583787D01*
X178752063Y-70583788D01*
X178775783Y-70594849D01*
X178945470Y-70673975D01*
X179103322Y-70716271D01*
X179151590Y-70729205D01*
X179151591Y-70729205D01*
X179156823Y-70730607D01*
X179374800Y-70749677D01*
X179592777Y-70730607D01*
X179804130Y-70673975D01*
X180002439Y-70581502D01*
X180181677Y-70455998D01*
X180336398Y-70301277D01*
X180461902Y-70122039D01*
X180532417Y-69970817D01*
X180578175Y-69918641D01*
X180644800Y-69899221D01*
X180711425Y-69918641D01*
X180757182Y-69970817D01*
X180825409Y-70117132D01*
X180825413Y-70117139D01*
X180827698Y-70122039D01*
X180830797Y-70126466D01*
X180830799Y-70126468D01*
X180950096Y-70296842D01*
X180950099Y-70296846D01*
X180953202Y-70301277D01*
X181107923Y-70455998D01*
X181287161Y-70581502D01*
X181292061Y-70583787D01*
X181292063Y-70583788D01*
X181315783Y-70594849D01*
X181485470Y-70673975D01*
X181643322Y-70716271D01*
X181691590Y-70729205D01*
X181691591Y-70729205D01*
X181696823Y-70730607D01*
X181914800Y-70749677D01*
X182132777Y-70730607D01*
X182344130Y-70673975D01*
X182542439Y-70581502D01*
X182721677Y-70455998D01*
X182876398Y-70301277D01*
X183001902Y-70122039D01*
X183072417Y-69970817D01*
X183118175Y-69918641D01*
X183184800Y-69899221D01*
X183251425Y-69918641D01*
X183297182Y-69970817D01*
X183365409Y-70117132D01*
X183365413Y-70117139D01*
X183367698Y-70122039D01*
X183370797Y-70126466D01*
X183370799Y-70126468D01*
X183490096Y-70296842D01*
X183490099Y-70296846D01*
X183493202Y-70301277D01*
X183647923Y-70455998D01*
X183827161Y-70581502D01*
X183832061Y-70583787D01*
X183832063Y-70583788D01*
X183855783Y-70594849D01*
X184025470Y-70673975D01*
X184183322Y-70716271D01*
X184231590Y-70729205D01*
X184231591Y-70729205D01*
X184236823Y-70730607D01*
X184454800Y-70749677D01*
X184672777Y-70730607D01*
X184884130Y-70673975D01*
X185082439Y-70581502D01*
X185261677Y-70455998D01*
X185416398Y-70301277D01*
X185541902Y-70122039D01*
X185634375Y-69923730D01*
X185691007Y-69712377D01*
X185710077Y-69494400D01*
X185691007Y-69276423D01*
X185634375Y-69065070D01*
X185541902Y-68866762D01*
X185416398Y-68687523D01*
X185261677Y-68532802D01*
X185257246Y-68529699D01*
X185257242Y-68529696D01*
X185086868Y-68410399D01*
X185086866Y-68410397D01*
X185082439Y-68407298D01*
X185077542Y-68405014D01*
X185077536Y-68405011D01*
X184889036Y-68317112D01*
X184889029Y-68317109D01*
X184884130Y-68314825D01*
X184878903Y-68313424D01*
X184878902Y-68313424D01*
X184678009Y-68259594D01*
X184677999Y-68259592D01*
X184672777Y-68258193D01*
X184667385Y-68257721D01*
X184667378Y-68257720D01*
X184460195Y-68239595D01*
X184454800Y-68239123D01*
X184449405Y-68239595D01*
X184242221Y-68257720D01*
X184242212Y-68257721D01*
X184236823Y-68258193D01*
X184231602Y-68259591D01*
X184231590Y-68259594D01*
X184030697Y-68313424D01*
X184030692Y-68313425D01*
X184025470Y-68314825D01*
X184020574Y-68317107D01*
X184020563Y-68317112D01*
X183832072Y-68405008D01*
X183832068Y-68405010D01*
X183827162Y-68407298D01*
X183822729Y-68410401D01*
X183822722Y-68410406D01*
X183652358Y-68529696D01*
X183652353Y-68529699D01*
X183647923Y-68532802D01*
X183644099Y-68536625D01*
X183644093Y-68536631D01*
X183497031Y-68683693D01*
X183497025Y-68683699D01*
X183493202Y-68687523D01*
X183490099Y-68691953D01*
X183490096Y-68691958D01*
X183370806Y-68862322D01*
X183370801Y-68862329D01*
X183367698Y-68866762D01*
X183365410Y-68871668D01*
X183365408Y-68871672D01*
X183297182Y-69017983D01*
X183251425Y-69070159D01*
X183184800Y-69089578D01*
X183118175Y-69070159D01*
X183072418Y-69017983D01*
X183005272Y-68873990D01*
X183001902Y-68866762D01*
X182876398Y-68687523D01*
X182721677Y-68532802D01*
X182717246Y-68529699D01*
X182717242Y-68529696D01*
X182546868Y-68410399D01*
X182546866Y-68410397D01*
X182542439Y-68407298D01*
X182537542Y-68405014D01*
X182537536Y-68405011D01*
X182349036Y-68317112D01*
X182349029Y-68317109D01*
X182344130Y-68314825D01*
X182338903Y-68313424D01*
X182338902Y-68313424D01*
X182138009Y-68259594D01*
X182137999Y-68259592D01*
X182132777Y-68258193D01*
X182127385Y-68257721D01*
X182127378Y-68257720D01*
X181920195Y-68239595D01*
X181914800Y-68239123D01*
X181909405Y-68239595D01*
X181702221Y-68257720D01*
X181702212Y-68257721D01*
X181696823Y-68258193D01*
X181691602Y-68259591D01*
X181691590Y-68259594D01*
X181490697Y-68313424D01*
X181490692Y-68313425D01*
X181485470Y-68314825D01*
X181480574Y-68317107D01*
X181480563Y-68317112D01*
X181292072Y-68405008D01*
X181292068Y-68405010D01*
X181287162Y-68407298D01*
X181282729Y-68410401D01*
X181282722Y-68410406D01*
X181112358Y-68529696D01*
X181112353Y-68529699D01*
X181107923Y-68532802D01*
X181104099Y-68536625D01*
X181104093Y-68536631D01*
X180957031Y-68683693D01*
X180957025Y-68683699D01*
X180953202Y-68687523D01*
X180950099Y-68691953D01*
X180950096Y-68691958D01*
X180830806Y-68862322D01*
X180830801Y-68862329D01*
X180827698Y-68866762D01*
X180825410Y-68871668D01*
X180825408Y-68871672D01*
X180757182Y-69017983D01*
X180711425Y-69070159D01*
X180644800Y-69089578D01*
X180578175Y-69070159D01*
X180532418Y-69017983D01*
X180465272Y-68873990D01*
X180461902Y-68866762D01*
X180336398Y-68687523D01*
X180181677Y-68532802D01*
X180177246Y-68529699D01*
X180177242Y-68529696D01*
X180006868Y-68410399D01*
X180006866Y-68410397D01*
X180002439Y-68407298D01*
X179997542Y-68405014D01*
X179997536Y-68405011D01*
X179809036Y-68317112D01*
X179809029Y-68317109D01*
X179804130Y-68314825D01*
X179798903Y-68313424D01*
X179798902Y-68313424D01*
X179598009Y-68259594D01*
X179597999Y-68259592D01*
X179592777Y-68258193D01*
X179587385Y-68257721D01*
X179587378Y-68257720D01*
X179380195Y-68239595D01*
X179374800Y-68239123D01*
X179369405Y-68239595D01*
X179162221Y-68257720D01*
X179162212Y-68257721D01*
X179156823Y-68258193D01*
X179151602Y-68259591D01*
X179151590Y-68259594D01*
X178950697Y-68313424D01*
X178950692Y-68313425D01*
X178945470Y-68314825D01*
X178940574Y-68317107D01*
X178940563Y-68317112D01*
X178752072Y-68405008D01*
X178752068Y-68405010D01*
X178747162Y-68407298D01*
X178742729Y-68410401D01*
X178742722Y-68410406D01*
X178572358Y-68529696D01*
X178572353Y-68529699D01*
X178567923Y-68532802D01*
X178564099Y-68536625D01*
X178564093Y-68536631D01*
X178417031Y-68683693D01*
X178417025Y-68683699D01*
X178413202Y-68687523D01*
X178410099Y-68691953D01*
X178410096Y-68691958D01*
X178290806Y-68862322D01*
X178290801Y-68862329D01*
X178287698Y-68866762D01*
X178285410Y-68871668D01*
X178285408Y-68871672D01*
X178217182Y-69017983D01*
X178171425Y-69070159D01*
X178104800Y-69089578D01*
X178038175Y-69070159D01*
X177992418Y-69017983D01*
X177925272Y-68873990D01*
X177921902Y-68866762D01*
X177796398Y-68687523D01*
X177641677Y-68532802D01*
X177637246Y-68529699D01*
X177637242Y-68529696D01*
X177466868Y-68410399D01*
X177466866Y-68410397D01*
X177462439Y-68407298D01*
X177457542Y-68405014D01*
X177457536Y-68405011D01*
X177269036Y-68317112D01*
X177269029Y-68317109D01*
X177264130Y-68314825D01*
X177258903Y-68313424D01*
X177258902Y-68313424D01*
X177058009Y-68259594D01*
X177057999Y-68259592D01*
X177052777Y-68258193D01*
X177047385Y-68257721D01*
X177047378Y-68257720D01*
X176840195Y-68239595D01*
X176834800Y-68239123D01*
X176829405Y-68239595D01*
X176622221Y-68257720D01*
X176622212Y-68257721D01*
X176616823Y-68258193D01*
X176611602Y-68259591D01*
X176611590Y-68259594D01*
X176410697Y-68313424D01*
X176410692Y-68313425D01*
X176405470Y-68314825D01*
X176400574Y-68317107D01*
X176400563Y-68317112D01*
X176212072Y-68405008D01*
X176212068Y-68405010D01*
X176207162Y-68407298D01*
X176202729Y-68410401D01*
X176202722Y-68410406D01*
X176032358Y-68529696D01*
X176032353Y-68529699D01*
X176027923Y-68532802D01*
X176024099Y-68536625D01*
X176024093Y-68536631D01*
X175877031Y-68683693D01*
X175877025Y-68683699D01*
X175873202Y-68687523D01*
X175870099Y-68691953D01*
X175870096Y-68691958D01*
X175750806Y-68862322D01*
X175750801Y-68862329D01*
X175747698Y-68866762D01*
X175745410Y-68871668D01*
X175745408Y-68871672D01*
X175677182Y-69017983D01*
X175631425Y-69070159D01*
X175564800Y-69089578D01*
X175498175Y-69070159D01*
X175452418Y-69017983D01*
X175385272Y-68873990D01*
X175381902Y-68866762D01*
X175256398Y-68687523D01*
X175101677Y-68532802D01*
X175097246Y-68529699D01*
X175097242Y-68529696D01*
X174926868Y-68410399D01*
X174926866Y-68410397D01*
X174922439Y-68407298D01*
X174917542Y-68405014D01*
X174917536Y-68405011D01*
X174729036Y-68317112D01*
X174729029Y-68317109D01*
X174724130Y-68314825D01*
X174718903Y-68313424D01*
X174718902Y-68313424D01*
X174518009Y-68259594D01*
X174517999Y-68259592D01*
X174512777Y-68258193D01*
X174507385Y-68257721D01*
X174507378Y-68257720D01*
X174300195Y-68239595D01*
X174294800Y-68239123D01*
X174289405Y-68239595D01*
X174082221Y-68257720D01*
X174082212Y-68257721D01*
X174076823Y-68258193D01*
X174071602Y-68259591D01*
X174071590Y-68259594D01*
X173870697Y-68313424D01*
X173870692Y-68313425D01*
X173865470Y-68314825D01*
X173860574Y-68317107D01*
X173860563Y-68317112D01*
X173672072Y-68405008D01*
X173672068Y-68405010D01*
X173667162Y-68407298D01*
X173662729Y-68410401D01*
X173662722Y-68410406D01*
X173492358Y-68529696D01*
X173492353Y-68529699D01*
X173487923Y-68532802D01*
X173484099Y-68536625D01*
X173484093Y-68536631D01*
X173337031Y-68683693D01*
X173337025Y-68683699D01*
X173333202Y-68687523D01*
X173330099Y-68691953D01*
X173330096Y-68691958D01*
X173230874Y-68833663D01*
X173183657Y-68873990D01*
X173122809Y-68886370D01*
X173063589Y-68867698D01*
X173020846Y-68822656D01*
X173005299Y-68762540D01*
X173005299Y-68699839D01*
X173005299Y-68696528D01*
X172998891Y-68636917D01*
X172948596Y-68502069D01*
X172862346Y-68386854D01*
X172747131Y-68300604D01*
X172676765Y-68274359D01*
X172619552Y-68253020D01*
X172619550Y-68253019D01*
X172612283Y-68250309D01*
X172604570Y-68249479D01*
X172604567Y-68249479D01*
X172555980Y-68244255D01*
X172555969Y-68244254D01*
X172552673Y-68243900D01*
X172549350Y-68243900D01*
X170960239Y-68243900D01*
X170960220Y-68243900D01*
X170956928Y-68243901D01*
X170953650Y-68244253D01*
X170953638Y-68244254D01*
X170905031Y-68249479D01*
X170905025Y-68249480D01*
X170897317Y-68250309D01*
X170890052Y-68253018D01*
X170890046Y-68253020D01*
X170770780Y-68297504D01*
X170770778Y-68297504D01*
X170762469Y-68300604D01*
X170755372Y-68305916D01*
X170755368Y-68305919D01*
X170654350Y-68381541D01*
X170654346Y-68381544D01*
X170647254Y-68386854D01*
X170641944Y-68393946D01*
X170641941Y-68393950D01*
X170566319Y-68494968D01*
X170566316Y-68494972D01*
X170561004Y-68502069D01*
X170557904Y-68510378D01*
X170557904Y-68510380D01*
X170513420Y-68629647D01*
X170513419Y-68629650D01*
X170510709Y-68636917D01*
X170509879Y-68644627D01*
X170509879Y-68644632D01*
X170504655Y-68693219D01*
X170504654Y-68693231D01*
X170504300Y-68696527D01*
X170504300Y-68699848D01*
X170504300Y-68699849D01*
X170504300Y-70288960D01*
X170504300Y-70288978D01*
X142868418Y-70288978D01*
X142854468Y-55013600D01*
X144822415Y-55013600D01*
X144822625Y-55017206D01*
X144841646Y-55343788D01*
X144842738Y-55362527D01*
X144843364Y-55366081D01*
X144843366Y-55366092D01*
X144902803Y-55703178D01*
X144902805Y-55703188D01*
X144903431Y-55706736D01*
X144904463Y-55710185D01*
X144904465Y-55710191D01*
X144963737Y-55908173D01*
X145003674Y-56041571D01*
X145005099Y-56044874D01*
X145140682Y-56359193D01*
X145140687Y-56359203D01*
X145142111Y-56362504D01*
X145143913Y-56365626D01*
X145143915Y-56365629D01*
X145315061Y-56662064D01*
X145315067Y-56662073D01*
X145316870Y-56665196D01*
X145319029Y-56668096D01*
X145523435Y-56942662D01*
X145523441Y-56942669D01*
X145525588Y-56945553D01*
X145765442Y-57199783D01*
X145768200Y-57202097D01*
X145768204Y-57202101D01*
X145908891Y-57320151D01*
X146033189Y-57424449D01*
X146060102Y-57442150D01*
X146243084Y-57562500D01*
X146325207Y-57616513D01*
X146637549Y-57773377D01*
X146965989Y-57892919D01*
X147136037Y-57933221D01*
X147302579Y-57972692D01*
X147302581Y-57972692D01*
X147306086Y-57973523D01*
X147653241Y-58014100D01*
X147999161Y-58014100D01*
X148002759Y-58014100D01*
X148349914Y-57973523D01*
X148690011Y-57892919D01*
X149018451Y-57773377D01*
X149330793Y-57616513D01*
X149622811Y-57424449D01*
X149890558Y-57199783D01*
X150130412Y-56945553D01*
X150339130Y-56665196D01*
X150513889Y-56362504D01*
X150652326Y-56041571D01*
X150752569Y-55706736D01*
X150813262Y-55362527D01*
X150833585Y-55013600D01*
X150813262Y-54664673D01*
X150752569Y-54320464D01*
X150732791Y-54254400D01*
X170499523Y-54254400D01*
X170499995Y-54259795D01*
X170518120Y-54466978D01*
X170518121Y-54466985D01*
X170518593Y-54472377D01*
X170519992Y-54477599D01*
X170519994Y-54477609D01*
X170570308Y-54665379D01*
X170575225Y-54683730D01*
X170577509Y-54688629D01*
X170577512Y-54688636D01*
X170665411Y-54877136D01*
X170665414Y-54877142D01*
X170667698Y-54882039D01*
X170670797Y-54886466D01*
X170670799Y-54886468D01*
X170790096Y-55056842D01*
X170790099Y-55056846D01*
X170793202Y-55061277D01*
X170947923Y-55215998D01*
X170952355Y-55219101D01*
X170952357Y-55219103D01*
X171003818Y-55255136D01*
X171127161Y-55341502D01*
X171325470Y-55433975D01*
X171483322Y-55476271D01*
X171531590Y-55489205D01*
X171531591Y-55489205D01*
X171536823Y-55490607D01*
X171754800Y-55509677D01*
X171972777Y-55490607D01*
X172184130Y-55433975D01*
X172382439Y-55341502D01*
X172561677Y-55215998D01*
X172716398Y-55061277D01*
X172841902Y-54882039D01*
X172912417Y-54730817D01*
X172958175Y-54678641D01*
X173024800Y-54659221D01*
X173091425Y-54678641D01*
X173137182Y-54730817D01*
X173205409Y-54877132D01*
X173205413Y-54877139D01*
X173207698Y-54882039D01*
X173210797Y-54886466D01*
X173210799Y-54886468D01*
X173330096Y-55056842D01*
X173330099Y-55056846D01*
X173333202Y-55061277D01*
X173487923Y-55215998D01*
X173492355Y-55219101D01*
X173492357Y-55219103D01*
X173543818Y-55255136D01*
X173667161Y-55341502D01*
X173865470Y-55433975D01*
X174023322Y-55476271D01*
X174071590Y-55489205D01*
X174071591Y-55489205D01*
X174076823Y-55490607D01*
X174294800Y-55509677D01*
X174512777Y-55490607D01*
X174724130Y-55433975D01*
X174922439Y-55341502D01*
X175101677Y-55215998D01*
X175256398Y-55061277D01*
X175381902Y-54882039D01*
X175452417Y-54730817D01*
X175498175Y-54678641D01*
X175564800Y-54659221D01*
X175631425Y-54678641D01*
X175677182Y-54730817D01*
X175745409Y-54877132D01*
X175745413Y-54877139D01*
X175747698Y-54882039D01*
X175750797Y-54886466D01*
X175750799Y-54886468D01*
X175870096Y-55056842D01*
X175870099Y-55056846D01*
X175873202Y-55061277D01*
X176027923Y-55215998D01*
X176032355Y-55219101D01*
X176032357Y-55219103D01*
X176083818Y-55255136D01*
X176207161Y-55341502D01*
X176405470Y-55433975D01*
X176563322Y-55476271D01*
X176611590Y-55489205D01*
X176611591Y-55489205D01*
X176616823Y-55490607D01*
X176834800Y-55509677D01*
X177052777Y-55490607D01*
X177264130Y-55433975D01*
X177462439Y-55341502D01*
X177641677Y-55215998D01*
X177796398Y-55061277D01*
X177921902Y-54882039D01*
X177992417Y-54730817D01*
X178038175Y-54678641D01*
X178104800Y-54659221D01*
X178171425Y-54678641D01*
X178217182Y-54730817D01*
X178285409Y-54877132D01*
X178285413Y-54877139D01*
X178287698Y-54882039D01*
X178290797Y-54886466D01*
X178290799Y-54886468D01*
X178410096Y-55056842D01*
X178410099Y-55056846D01*
X178413202Y-55061277D01*
X178567923Y-55215998D01*
X178572355Y-55219101D01*
X178572357Y-55219103D01*
X178623818Y-55255136D01*
X178747161Y-55341502D01*
X178945470Y-55433975D01*
X179103322Y-55476271D01*
X179151590Y-55489205D01*
X179151591Y-55489205D01*
X179156823Y-55490607D01*
X179374800Y-55509677D01*
X179592777Y-55490607D01*
X179804130Y-55433975D01*
X180002439Y-55341502D01*
X180181677Y-55215998D01*
X180336398Y-55061277D01*
X180461902Y-54882039D01*
X180532417Y-54730817D01*
X180578175Y-54678641D01*
X180644800Y-54659221D01*
X180711425Y-54678641D01*
X180757182Y-54730817D01*
X180825409Y-54877132D01*
X180825413Y-54877139D01*
X180827698Y-54882039D01*
X180830797Y-54886466D01*
X180830799Y-54886468D01*
X180950096Y-55056842D01*
X180950099Y-55056846D01*
X180953202Y-55061277D01*
X181107923Y-55215998D01*
X181112355Y-55219101D01*
X181112357Y-55219103D01*
X181163818Y-55255136D01*
X181287161Y-55341502D01*
X181485470Y-55433975D01*
X181643322Y-55476271D01*
X181691590Y-55489205D01*
X181691591Y-55489205D01*
X181696823Y-55490607D01*
X181914800Y-55509677D01*
X182132777Y-55490607D01*
X182344130Y-55433975D01*
X182542439Y-55341502D01*
X182721677Y-55215998D01*
X182876398Y-55061277D01*
X183001902Y-54882039D01*
X183072417Y-54730817D01*
X183118175Y-54678641D01*
X183184800Y-54659221D01*
X183251425Y-54678641D01*
X183297182Y-54730817D01*
X183365409Y-54877132D01*
X183365413Y-54877139D01*
X183367698Y-54882039D01*
X183370797Y-54886466D01*
X183370799Y-54886468D01*
X183490096Y-55056842D01*
X183490099Y-55056846D01*
X183493202Y-55061277D01*
X183647923Y-55215998D01*
X183652355Y-55219101D01*
X183652357Y-55219103D01*
X183703818Y-55255136D01*
X183827161Y-55341502D01*
X184025470Y-55433975D01*
X184183322Y-55476271D01*
X184231590Y-55489205D01*
X184231591Y-55489205D01*
X184236823Y-55490607D01*
X184454800Y-55509677D01*
X184672777Y-55490607D01*
X184884130Y-55433975D01*
X185082439Y-55341502D01*
X185261677Y-55215998D01*
X185416398Y-55061277D01*
X185541902Y-54882039D01*
X185634375Y-54683730D01*
X185666993Y-54562000D01*
X212996015Y-54562000D01*
X212996225Y-54565606D01*
X213014369Y-54877136D01*
X213016338Y-54910927D01*
X213016964Y-54914481D01*
X213016966Y-54914492D01*
X213076403Y-55251578D01*
X213076405Y-55251588D01*
X213077031Y-55255136D01*
X213078063Y-55258585D01*
X213078065Y-55258591D01*
X213176242Y-55586525D01*
X213177274Y-55589971D01*
X213178699Y-55593274D01*
X213314282Y-55907593D01*
X213314287Y-55907603D01*
X213315711Y-55910904D01*
X213317513Y-55914026D01*
X213317515Y-55914029D01*
X213488661Y-56210464D01*
X213488667Y-56210473D01*
X213490470Y-56213596D01*
X213492629Y-56216496D01*
X213697035Y-56491062D01*
X213697041Y-56491069D01*
X213699188Y-56493953D01*
X213939042Y-56748183D01*
X214206789Y-56972849D01*
X214498807Y-57164913D01*
X214811149Y-57321777D01*
X215139589Y-57441319D01*
X215309637Y-57481621D01*
X215476179Y-57521092D01*
X215476181Y-57521092D01*
X215479686Y-57521923D01*
X215826841Y-57562500D01*
X216172761Y-57562500D01*
X216176359Y-57562500D01*
X216523514Y-57521923D01*
X216863611Y-57441319D01*
X217192051Y-57321777D01*
X217504393Y-57164913D01*
X217796411Y-56972849D01*
X218064158Y-56748183D01*
X218304012Y-56493953D01*
X218512730Y-56213596D01*
X218687489Y-55910904D01*
X218825926Y-55589971D01*
X218926169Y-55255136D01*
X218986862Y-54910927D01*
X219007185Y-54562000D01*
X218986862Y-54213073D01*
X218926169Y-53868864D01*
X218825926Y-53534029D01*
X218687489Y-53213096D01*
X218607658Y-53074825D01*
X218514538Y-52913535D01*
X218514535Y-52913531D01*
X218512730Y-52910404D01*
X218433764Y-52804335D01*
X218306164Y-52632937D01*
X218306159Y-52632931D01*
X218304012Y-52630047D01*
X218064158Y-52375817D01*
X218061400Y-52373503D01*
X218061395Y-52373498D01*
X217799170Y-52153466D01*
X217799169Y-52153465D01*
X217796411Y-52151151D01*
X217648210Y-52053677D01*
X217507412Y-51961072D01*
X217507404Y-51961067D01*
X217504393Y-51959087D01*
X217441150Y-51927325D01*
X217195288Y-51803848D01*
X217195278Y-51803843D01*
X217192051Y-51802223D01*
X217088286Y-51764456D01*
X216867000Y-51683914D01*
X216866992Y-51683911D01*
X216863611Y-51682681D01*
X216860112Y-51681851D01*
X216860103Y-51681849D01*
X216527020Y-51602907D01*
X216527004Y-51602904D01*
X216523514Y-51602077D01*
X216519949Y-51601660D01*
X216519936Y-51601658D01*
X216179929Y-51561917D01*
X216179924Y-51561916D01*
X216176359Y-51561500D01*
X215826841Y-51561500D01*
X215823276Y-51561916D01*
X215823270Y-51561917D01*
X215483263Y-51601658D01*
X215483247Y-51601660D01*
X215479686Y-51602077D01*
X215476198Y-51602903D01*
X215476179Y-51602907D01*
X215143096Y-51681849D01*
X215143082Y-51681852D01*
X215139589Y-51682681D01*
X215136212Y-51683910D01*
X215136199Y-51683914D01*
X214814550Y-51800985D01*
X214811149Y-51802223D01*
X214807927Y-51803840D01*
X214807911Y-51803848D01*
X214502036Y-51957465D01*
X214502031Y-51957467D01*
X214498807Y-51959087D01*
X214495803Y-51961062D01*
X214495787Y-51961072D01*
X214209806Y-52149166D01*
X214209798Y-52149171D01*
X214206789Y-52151151D01*
X214204038Y-52153458D01*
X214204029Y-52153466D01*
X213941804Y-52373498D01*
X213941790Y-52373510D01*
X213939042Y-52375817D01*
X213936567Y-52378439D01*
X213936562Y-52378445D01*
X213701662Y-52627424D01*
X213701656Y-52627430D01*
X213699188Y-52630047D01*
X213697048Y-52632921D01*
X213697035Y-52632937D01*
X213492629Y-52907503D01*
X213492623Y-52907511D01*
X213490470Y-52910404D01*
X213488671Y-52913518D01*
X213488661Y-52913535D01*
X213317515Y-53209970D01*
X213317509Y-53209980D01*
X213315711Y-53213096D01*
X213314290Y-53216389D01*
X213314282Y-53216406D01*
X213216241Y-53443693D01*
X213177274Y-53534029D01*
X213176245Y-53537464D01*
X213176242Y-53537474D01*
X213078065Y-53865408D01*
X213078062Y-53865418D01*
X213077031Y-53868864D01*
X213076406Y-53872407D01*
X213076403Y-53872421D01*
X213016966Y-54209507D01*
X213016964Y-54209520D01*
X213016338Y-54213073D01*
X213016128Y-54216678D01*
X213016127Y-54216687D01*
X213010284Y-54317008D01*
X212996015Y-54562000D01*
X185666993Y-54562000D01*
X185691007Y-54472377D01*
X185710077Y-54254400D01*
X185691007Y-54036423D01*
X185634375Y-53825070D01*
X185541902Y-53626762D01*
X185416398Y-53447523D01*
X185261677Y-53292802D01*
X185257246Y-53289699D01*
X185257242Y-53289696D01*
X185086868Y-53170399D01*
X185086866Y-53170397D01*
X185082439Y-53167298D01*
X185077542Y-53165014D01*
X185077536Y-53165011D01*
X184889036Y-53077112D01*
X184889029Y-53077109D01*
X184884130Y-53074825D01*
X184878903Y-53073424D01*
X184878902Y-53073424D01*
X184678009Y-53019594D01*
X184677999Y-53019592D01*
X184672777Y-53018193D01*
X184667385Y-53017721D01*
X184667378Y-53017720D01*
X184460195Y-52999595D01*
X184454800Y-52999123D01*
X184449405Y-52999595D01*
X184242221Y-53017720D01*
X184242212Y-53017721D01*
X184236823Y-53018193D01*
X184231602Y-53019591D01*
X184231590Y-53019594D01*
X184030697Y-53073424D01*
X184030692Y-53073425D01*
X184025470Y-53074825D01*
X184020574Y-53077107D01*
X184020563Y-53077112D01*
X183832072Y-53165008D01*
X183832068Y-53165010D01*
X183827162Y-53167298D01*
X183822729Y-53170401D01*
X183822722Y-53170406D01*
X183652358Y-53289696D01*
X183652353Y-53289699D01*
X183647923Y-53292802D01*
X183644099Y-53296625D01*
X183644093Y-53296631D01*
X183497031Y-53443693D01*
X183497025Y-53443699D01*
X183493202Y-53447523D01*
X183490099Y-53451953D01*
X183490096Y-53451958D01*
X183370806Y-53622322D01*
X183370801Y-53622329D01*
X183367698Y-53626762D01*
X183365410Y-53631668D01*
X183365408Y-53631672D01*
X183297182Y-53777983D01*
X183251425Y-53830159D01*
X183184800Y-53849578D01*
X183118175Y-53830159D01*
X183072418Y-53777983D01*
X183018133Y-53661570D01*
X183001902Y-53626762D01*
X182876398Y-53447523D01*
X182721677Y-53292802D01*
X182717246Y-53289699D01*
X182717242Y-53289696D01*
X182546868Y-53170399D01*
X182546866Y-53170397D01*
X182542439Y-53167298D01*
X182537542Y-53165014D01*
X182537536Y-53165011D01*
X182349036Y-53077112D01*
X182349029Y-53077109D01*
X182344130Y-53074825D01*
X182338903Y-53073424D01*
X182338902Y-53073424D01*
X182138009Y-53019594D01*
X182137999Y-53019592D01*
X182132777Y-53018193D01*
X182127385Y-53017721D01*
X182127378Y-53017720D01*
X181920195Y-52999595D01*
X181914800Y-52999123D01*
X181909405Y-52999595D01*
X181702221Y-53017720D01*
X181702212Y-53017721D01*
X181696823Y-53018193D01*
X181691602Y-53019591D01*
X181691590Y-53019594D01*
X181490697Y-53073424D01*
X181490692Y-53073425D01*
X181485470Y-53074825D01*
X181480574Y-53077107D01*
X181480563Y-53077112D01*
X181292072Y-53165008D01*
X181292068Y-53165010D01*
X181287162Y-53167298D01*
X181282729Y-53170401D01*
X181282722Y-53170406D01*
X181112358Y-53289696D01*
X181112353Y-53289699D01*
X181107923Y-53292802D01*
X181104099Y-53296625D01*
X181104093Y-53296631D01*
X180957031Y-53443693D01*
X180957025Y-53443699D01*
X180953202Y-53447523D01*
X180950099Y-53451953D01*
X180950096Y-53451958D01*
X180830806Y-53622322D01*
X180830801Y-53622329D01*
X180827698Y-53626762D01*
X180825410Y-53631668D01*
X180825408Y-53631672D01*
X180757182Y-53777983D01*
X180711425Y-53830159D01*
X180644800Y-53849578D01*
X180578175Y-53830159D01*
X180532418Y-53777983D01*
X180478133Y-53661570D01*
X180461902Y-53626762D01*
X180336398Y-53447523D01*
X180181677Y-53292802D01*
X180177246Y-53289699D01*
X180177242Y-53289696D01*
X180006868Y-53170399D01*
X180006866Y-53170397D01*
X180002439Y-53167298D01*
X179997542Y-53165014D01*
X179997536Y-53165011D01*
X179809036Y-53077112D01*
X179809029Y-53077109D01*
X179804130Y-53074825D01*
X179798903Y-53073424D01*
X179798902Y-53073424D01*
X179598009Y-53019594D01*
X179597999Y-53019592D01*
X179592777Y-53018193D01*
X179587385Y-53017721D01*
X179587378Y-53017720D01*
X179380195Y-52999595D01*
X179374800Y-52999123D01*
X179369405Y-52999595D01*
X179162221Y-53017720D01*
X179162212Y-53017721D01*
X179156823Y-53018193D01*
X179151602Y-53019591D01*
X179151590Y-53019594D01*
X178950697Y-53073424D01*
X178950692Y-53073425D01*
X178945470Y-53074825D01*
X178940574Y-53077107D01*
X178940563Y-53077112D01*
X178752072Y-53165008D01*
X178752068Y-53165010D01*
X178747162Y-53167298D01*
X178742729Y-53170401D01*
X178742722Y-53170406D01*
X178572358Y-53289696D01*
X178572353Y-53289699D01*
X178567923Y-53292802D01*
X178564099Y-53296625D01*
X178564093Y-53296631D01*
X178417031Y-53443693D01*
X178417025Y-53443699D01*
X178413202Y-53447523D01*
X178410099Y-53451953D01*
X178410096Y-53451958D01*
X178290806Y-53622322D01*
X178290801Y-53622329D01*
X178287698Y-53626762D01*
X178285410Y-53631668D01*
X178285408Y-53631672D01*
X178217182Y-53777983D01*
X178171425Y-53830159D01*
X178104800Y-53849578D01*
X178038175Y-53830159D01*
X177992418Y-53777983D01*
X177938133Y-53661570D01*
X177921902Y-53626762D01*
X177796398Y-53447523D01*
X177641677Y-53292802D01*
X177637246Y-53289699D01*
X177637242Y-53289696D01*
X177466868Y-53170399D01*
X177466866Y-53170397D01*
X177462439Y-53167298D01*
X177457542Y-53165014D01*
X177457536Y-53165011D01*
X177269036Y-53077112D01*
X177269029Y-53077109D01*
X177264130Y-53074825D01*
X177258903Y-53073424D01*
X177258902Y-53073424D01*
X177058009Y-53019594D01*
X177057999Y-53019592D01*
X177052777Y-53018193D01*
X177047385Y-53017721D01*
X177047378Y-53017720D01*
X176840195Y-52999595D01*
X176834800Y-52999123D01*
X176829405Y-52999595D01*
X176622221Y-53017720D01*
X176622212Y-53017721D01*
X176616823Y-53018193D01*
X176611602Y-53019591D01*
X176611590Y-53019594D01*
X176410697Y-53073424D01*
X176410692Y-53073425D01*
X176405470Y-53074825D01*
X176400574Y-53077107D01*
X176400563Y-53077112D01*
X176212072Y-53165008D01*
X176212068Y-53165010D01*
X176207162Y-53167298D01*
X176202729Y-53170401D01*
X176202722Y-53170406D01*
X176032358Y-53289696D01*
X176032353Y-53289699D01*
X176027923Y-53292802D01*
X176024099Y-53296625D01*
X176024093Y-53296631D01*
X175877031Y-53443693D01*
X175877025Y-53443699D01*
X175873202Y-53447523D01*
X175870099Y-53451953D01*
X175870096Y-53451958D01*
X175750806Y-53622322D01*
X175750801Y-53622329D01*
X175747698Y-53626762D01*
X175745410Y-53631668D01*
X175745408Y-53631672D01*
X175677182Y-53777983D01*
X175631425Y-53830159D01*
X175564800Y-53849578D01*
X175498175Y-53830159D01*
X175452418Y-53777983D01*
X175398133Y-53661570D01*
X175381902Y-53626762D01*
X175256398Y-53447523D01*
X175101677Y-53292802D01*
X175097246Y-53289699D01*
X175097242Y-53289696D01*
X174926868Y-53170399D01*
X174926866Y-53170397D01*
X174922439Y-53167298D01*
X174917542Y-53165014D01*
X174917536Y-53165011D01*
X174729036Y-53077112D01*
X174729029Y-53077109D01*
X174724130Y-53074825D01*
X174718903Y-53073424D01*
X174718902Y-53073424D01*
X174518009Y-53019594D01*
X174517999Y-53019592D01*
X174512777Y-53018193D01*
X174507385Y-53017721D01*
X174507378Y-53017720D01*
X174300195Y-52999595D01*
X174294800Y-52999123D01*
X174289405Y-52999595D01*
X174082221Y-53017720D01*
X174082212Y-53017721D01*
X174076823Y-53018193D01*
X174071602Y-53019591D01*
X174071590Y-53019594D01*
X173870697Y-53073424D01*
X173870692Y-53073425D01*
X173865470Y-53074825D01*
X173860574Y-53077107D01*
X173860563Y-53077112D01*
X173672072Y-53165008D01*
X173672068Y-53165010D01*
X173667162Y-53167298D01*
X173662729Y-53170401D01*
X173662722Y-53170406D01*
X173492358Y-53289696D01*
X173492353Y-53289699D01*
X173487923Y-53292802D01*
X173484099Y-53296625D01*
X173484093Y-53296631D01*
X173337031Y-53443693D01*
X173337025Y-53443699D01*
X173333202Y-53447523D01*
X173330099Y-53451953D01*
X173330096Y-53451958D01*
X173210806Y-53622322D01*
X173210801Y-53622329D01*
X173207698Y-53626762D01*
X173205410Y-53631668D01*
X173205408Y-53631672D01*
X173137182Y-53777983D01*
X173091425Y-53830159D01*
X173024800Y-53849578D01*
X172958175Y-53830159D01*
X172912418Y-53777983D01*
X172858133Y-53661570D01*
X172841902Y-53626762D01*
X172716398Y-53447523D01*
X172561677Y-53292802D01*
X172557246Y-53289699D01*
X172557242Y-53289696D01*
X172386868Y-53170399D01*
X172386866Y-53170397D01*
X172382439Y-53167298D01*
X172377542Y-53165014D01*
X172377536Y-53165011D01*
X172189036Y-53077112D01*
X172189029Y-53077109D01*
X172184130Y-53074825D01*
X172178903Y-53073424D01*
X172178902Y-53073424D01*
X171978009Y-53019594D01*
X171977999Y-53019592D01*
X171972777Y-53018193D01*
X171967385Y-53017721D01*
X171967378Y-53017720D01*
X171760195Y-52999595D01*
X171754800Y-52999123D01*
X171749405Y-52999595D01*
X171542221Y-53017720D01*
X171542212Y-53017721D01*
X171536823Y-53018193D01*
X171531602Y-53019591D01*
X171531590Y-53019594D01*
X171330697Y-53073424D01*
X171330692Y-53073425D01*
X171325470Y-53074825D01*
X171320574Y-53077107D01*
X171320563Y-53077112D01*
X171132072Y-53165008D01*
X171132068Y-53165010D01*
X171127162Y-53167298D01*
X171122729Y-53170401D01*
X171122722Y-53170406D01*
X170952358Y-53289696D01*
X170952353Y-53289699D01*
X170947923Y-53292802D01*
X170944099Y-53296625D01*
X170944093Y-53296631D01*
X170797031Y-53443693D01*
X170797025Y-53443699D01*
X170793202Y-53447523D01*
X170790099Y-53451953D01*
X170790096Y-53451958D01*
X170670806Y-53622322D01*
X170670801Y-53622329D01*
X170667698Y-53626762D01*
X170665410Y-53631668D01*
X170665408Y-53631672D01*
X170577512Y-53820163D01*
X170577507Y-53820174D01*
X170575225Y-53825070D01*
X170573825Y-53830292D01*
X170573824Y-53830297D01*
X170519994Y-54031190D01*
X170519991Y-54031202D01*
X170518593Y-54036423D01*
X170518121Y-54041812D01*
X170518120Y-54041821D01*
X170503077Y-54213779D01*
X170499523Y-54254400D01*
X150732791Y-54254400D01*
X150652326Y-53985629D01*
X150513889Y-53664696D01*
X150391065Y-53451958D01*
X150340938Y-53365135D01*
X150340935Y-53365131D01*
X150339130Y-53362004D01*
X150196491Y-53170406D01*
X150132564Y-53084537D01*
X150132559Y-53084531D01*
X150130412Y-53081647D01*
X149890558Y-52827417D01*
X149887800Y-52825103D01*
X149887795Y-52825098D01*
X149625570Y-52605066D01*
X149625569Y-52605065D01*
X149622811Y-52602751D01*
X149619793Y-52600766D01*
X149333812Y-52412672D01*
X149333804Y-52412667D01*
X149330793Y-52410687D01*
X149256744Y-52373498D01*
X149021688Y-52255448D01*
X149021678Y-52255443D01*
X149018451Y-52253823D01*
X148914686Y-52216056D01*
X148693400Y-52135514D01*
X148693392Y-52135511D01*
X148690011Y-52134281D01*
X148686512Y-52133451D01*
X148686503Y-52133449D01*
X148353420Y-52054507D01*
X148353404Y-52054504D01*
X148349914Y-52053677D01*
X148346349Y-52053260D01*
X148346336Y-52053258D01*
X148006329Y-52013517D01*
X148006324Y-52013516D01*
X148002759Y-52013100D01*
X147653241Y-52013100D01*
X147649676Y-52013516D01*
X147649670Y-52013517D01*
X147309663Y-52053258D01*
X147309647Y-52053260D01*
X147306086Y-52053677D01*
X147302598Y-52054503D01*
X147302579Y-52054507D01*
X146969496Y-52133449D01*
X146969482Y-52133452D01*
X146965989Y-52134281D01*
X146962612Y-52135510D01*
X146962599Y-52135514D01*
X146640950Y-52252585D01*
X146637549Y-52253823D01*
X146634327Y-52255440D01*
X146634311Y-52255448D01*
X146328436Y-52409065D01*
X146328431Y-52409067D01*
X146325207Y-52410687D01*
X146322203Y-52412662D01*
X146322187Y-52412672D01*
X146036206Y-52600766D01*
X146036198Y-52600771D01*
X146033189Y-52602751D01*
X146030438Y-52605058D01*
X146030429Y-52605066D01*
X145768204Y-52825098D01*
X145768190Y-52825110D01*
X145765442Y-52827417D01*
X145762967Y-52830039D01*
X145762962Y-52830045D01*
X145528062Y-53079024D01*
X145528056Y-53079030D01*
X145525588Y-53081647D01*
X145523448Y-53084521D01*
X145523435Y-53084537D01*
X145319029Y-53359103D01*
X145319023Y-53359111D01*
X145316870Y-53362004D01*
X145315071Y-53365118D01*
X145315061Y-53365135D01*
X145143915Y-53661570D01*
X145143909Y-53661580D01*
X145142111Y-53664696D01*
X145140690Y-53667989D01*
X145140682Y-53668006D01*
X145052507Y-53872421D01*
X145003674Y-53985629D01*
X145002645Y-53989064D01*
X145002642Y-53989074D01*
X144904465Y-54317008D01*
X144904462Y-54317018D01*
X144903431Y-54320464D01*
X144902806Y-54324007D01*
X144902803Y-54324021D01*
X144843366Y-54661107D01*
X144843364Y-54661120D01*
X144842738Y-54664673D01*
X144842528Y-54668278D01*
X144842527Y-54668287D01*
X144828436Y-54910221D01*
X144822415Y-55013600D01*
X142854468Y-55013600D01*
X142849759Y-49857810D01*
X142866334Y-49795765D01*
X142911726Y-49750332D01*
X142973759Y-49733700D01*
X221008513Y-49733700D01*
X221070480Y-49750294D01*
G37*
%TD.AperFunction*%
%TD*%
M02*
